M48
; DRILL file {KiCad (5.1.12)-1} date 12/21/21 16:46:26
; FORMAT={-:-/ absolute / metric / decimal}
; #@! TF.CreationDate,2021-12-21T16:46:26+01:00
; #@! TF.GenerationSoftware,Kicad,Pcbnew,(5.1.12)-1
; #@! TF.FileFunction,Plated,1,2,PTH
FMAT,2
METRIC
T1C0.700
T2C1.000
%
G90
G05
T1
X81.264Y-104.758
X82.45Y-80.925
X82.45Y-88.545
X85.207Y-117.097
X85.328Y-74.08
X86.03Y-44.97
X87.254Y-71.504
X92.647Y-104.971
X118.95Y-61.55
X122.3Y-109.6
X122.55Y-59.45
X130.35Y-84.1
X133.1Y-86.0
X144.92Y-73.89
X158.5Y-73.45
T2
X82.45Y-108.075
X82.45Y-110.615
X82.45Y-113.155
X82.5Y-45.0
X82.5Y-47.54
X82.5Y-50.08
X82.5Y-69.0
X82.5Y-71.54
X82.5Y-74.08
X90.0Y-58.9
X90.0Y-61.44
X90.0Y-63.98
X90.0Y-66.52
X90.0Y-69.06
X90.0Y-71.6
X90.0Y-74.14
X90.0Y-76.68
X90.0Y-79.22
X90.0Y-81.76
X90.0Y-84.3
X90.0Y-86.84
X90.0Y-89.38
X90.0Y-91.92
X90.0Y-94.46
X90.0Y-97.0
X90.0Y-99.54
X90.0Y-102.08
X90.0Y-104.62
X101.0Y-46.5
X103.54Y-46.5
X106.08Y-46.5
X108.62Y-46.5
X111.16Y-46.5
X115.0Y-59.0
X115.0Y-61.54
X115.0Y-64.08
X115.0Y-66.62
X115.0Y-69.16
X115.0Y-71.7
X115.0Y-74.24
X115.0Y-76.78
X115.0Y-79.32
X115.0Y-81.86
X115.0Y-84.4
X115.0Y-86.94
X115.0Y-89.48
X115.0Y-92.02
X115.0Y-94.56
X115.0Y-97.1
X115.0Y-99.64
X115.0Y-102.18
X115.0Y-104.72
X137.3Y-86.0
X139.84Y-86.0
X142.38Y-86.0
X144.92Y-86.0
X147.46Y-86.0
X150.0Y-86.0
X158.5Y-47.8
X158.5Y-50.34
X158.5Y-52.88
X158.5Y-55.42
X158.5Y-57.96
X158.5Y-60.5
T0
M30
