G04 #@! TF.GenerationSoftware,KiCad,Pcbnew,(5.1.12)-1*
G04 #@! TF.CreationDate,2021-12-21T16:45:29+01:00*
G04 #@! TF.ProjectId,pcbV3,70636256-332e-46b6-9963-61645f706362,rev?*
G04 #@! TF.SameCoordinates,Original*
G04 #@! TF.FileFunction,Copper,L1,Top*
G04 #@! TF.FilePolarity,Positive*
%FSLAX46Y46*%
G04 Gerber Fmt 4.6, Leading zero omitted, Abs format (unit mm)*
G04 Created by KiCad (PCBNEW (5.1.12)-1) date 2021-12-21 16:45:29*
%MOMM*%
%LPD*%
G01*
G04 APERTURE LIST*
G04 #@! TA.AperFunction,SMDPad,CuDef*
%ADD10R,1.500000X1.500000*%
G04 #@! TD*
G04 #@! TA.AperFunction,ComponentPad*
%ADD11O,1.700000X1.700000*%
G04 #@! TD*
G04 #@! TA.AperFunction,ComponentPad*
%ADD12R,1.700000X1.700000*%
G04 #@! TD*
G04 #@! TA.AperFunction,ComponentPad*
%ADD13C,1.400000*%
G04 #@! TD*
G04 #@! TA.AperFunction,ComponentPad*
%ADD14O,1.400000X1.400000*%
G04 #@! TD*
G04 #@! TA.AperFunction,ViaPad*
%ADD15C,1.300000*%
G04 #@! TD*
G04 #@! TA.AperFunction,Conductor*
%ADD16C,1.000000*%
G04 #@! TD*
G04 APERTURE END LIST*
D10*
X120200000Y-121450000D03*
X120200000Y-118920000D03*
X120200000Y-116400000D03*
X124200000Y-121450000D03*
X124200000Y-118920000D03*
X124200000Y-116400000D03*
D11*
X82500000Y-74080000D03*
X82500000Y-71540000D03*
D12*
X82500000Y-69000000D03*
X82500000Y-45000000D03*
D11*
X82500000Y-47540000D03*
X82500000Y-50080000D03*
X90000000Y-104620000D03*
X90000000Y-102080000D03*
X90000000Y-99540000D03*
X90000000Y-97000000D03*
X90000000Y-94460000D03*
X90000000Y-91920000D03*
X90000000Y-89380000D03*
X90000000Y-86840000D03*
X90000000Y-84300000D03*
X90000000Y-81760000D03*
X90000000Y-79220000D03*
X90000000Y-76680000D03*
X90000000Y-74140000D03*
X90000000Y-71600000D03*
X90000000Y-69060000D03*
X90000000Y-66520000D03*
X90000000Y-63980000D03*
X90000000Y-61440000D03*
D12*
X90000000Y-58900000D03*
X101000000Y-46500000D03*
D11*
X103540000Y-46500000D03*
X106080000Y-46500000D03*
X108620000Y-46500000D03*
X111160000Y-46500000D03*
D12*
X115000000Y-59000000D03*
D11*
X115000000Y-61540000D03*
X115000000Y-64080000D03*
X115000000Y-66620000D03*
X115000000Y-69160000D03*
X115000000Y-71700000D03*
X115000000Y-74240000D03*
X115000000Y-76780000D03*
X115000000Y-79320000D03*
X115000000Y-81860000D03*
X115000000Y-84400000D03*
X115000000Y-86940000D03*
X115000000Y-89480000D03*
X115000000Y-92020000D03*
X115000000Y-94560000D03*
X115000000Y-97100000D03*
X115000000Y-99640000D03*
X115000000Y-102180000D03*
X115000000Y-104720000D03*
D12*
X150000000Y-86000000D03*
D11*
X147460000Y-86000000D03*
X144920000Y-86000000D03*
X142380000Y-86000000D03*
X139840000Y-86000000D03*
X137300000Y-86000000D03*
X158500000Y-60500000D03*
X158500000Y-57960000D03*
X158500000Y-55420000D03*
X158500000Y-52880000D03*
X158500000Y-50340000D03*
D12*
X158500000Y-47800000D03*
X82450000Y-108075000D03*
D11*
X82450000Y-110615000D03*
X82450000Y-113155000D03*
D13*
X82450000Y-80925000D03*
D14*
X82450000Y-88545000D03*
D15*
X122300000Y-109600000D03*
X85327500Y-74080000D03*
X92647300Y-104971000D03*
X130350000Y-84100000D03*
X85207200Y-117097100D03*
X133100000Y-86000000D03*
X86030000Y-44970000D03*
X158500000Y-73450000D03*
X122550000Y-59450000D03*
X87253900Y-71504200D03*
X144920000Y-73890000D03*
X118950000Y-61550000D03*
X81264200Y-104757800D03*
D16*
X122300000Y-109600000D02*
X122300000Y-118450000D01*
X122770000Y-118920000D02*
X124200000Y-118920000D01*
X122300000Y-118450000D02*
X122770000Y-118920000D01*
X94940200Y-107264000D02*
X92647300Y-104971000D01*
X94940200Y-107264000D02*
X94940200Y-107265200D01*
X94940200Y-107265200D02*
X98075000Y-110400000D01*
X114625000Y-110400000D02*
X118150000Y-106875000D01*
X98075000Y-110400000D02*
X114625000Y-110400000D01*
X118150000Y-106875000D02*
X118150000Y-101131000D01*
X126590472Y-92690472D02*
X126590472Y-114809528D01*
X125000000Y-116400000D02*
X126225000Y-115175000D01*
X124200000Y-116400000D02*
X125000000Y-116400000D01*
X126225000Y-115175000D02*
X125650000Y-115750000D01*
X126590472Y-114809528D02*
X126225000Y-115175000D01*
X86088100Y-48692900D02*
X86088100Y-63911600D01*
X86088100Y-63911600D02*
X82500000Y-67499700D01*
X82500000Y-67499700D02*
X82500000Y-69000000D01*
X124200000Y-122900000D02*
X124200000Y-121450000D01*
X91900000Y-123800000D02*
X123300000Y-123800000D01*
X123300000Y-123800000D02*
X124200000Y-122900000D01*
X90960101Y-122860101D02*
X91900000Y-123800000D01*
X90960101Y-122850001D02*
X90960101Y-122860101D01*
X85207200Y-117097100D02*
X90960101Y-122850001D01*
X122550000Y-59450000D02*
X122550000Y-65487300D01*
X131481350Y-74418650D02*
X131293850Y-74231150D01*
X130350000Y-84100000D02*
X126650000Y-87800000D01*
X126650000Y-92630946D02*
X126365473Y-92915473D01*
X126365473Y-92915473D02*
X126590472Y-92690472D01*
X126650000Y-87800000D02*
X126650000Y-92630946D01*
X118150000Y-101131000D02*
X126365473Y-92915473D01*
X133100000Y-86000000D02*
X130750000Y-88350000D01*
X130100000Y-89050000D02*
X130100000Y-118220002D01*
X126870002Y-121450000D02*
X124200000Y-121450000D01*
X130100000Y-118220002D02*
X126870002Y-121450000D01*
X130100000Y-89000000D02*
X130750000Y-88350000D01*
X130100000Y-89050000D02*
X130100000Y-89000000D01*
X128606350Y-71543650D02*
X128606350Y-77456350D01*
X122550000Y-65487300D02*
X128606350Y-71543650D01*
X128606350Y-71543650D02*
X131481350Y-74418650D01*
X133100000Y-81950000D02*
X133100000Y-86000000D01*
X128606350Y-77456350D02*
X133100000Y-81950000D01*
X86030000Y-48634800D02*
X86088100Y-48692900D01*
X86030000Y-44970000D02*
X86030000Y-48634800D01*
X82500000Y-74080000D02*
X85327500Y-74080000D01*
X154815700Y-77134300D02*
X158500000Y-73450000D01*
X134197000Y-77134300D02*
X154815700Y-77134300D01*
X131481350Y-74418650D02*
X134197000Y-77134300D01*
X82500000Y-71540000D02*
X84000300Y-71540000D01*
X84000300Y-71540000D02*
X84036100Y-71504200D01*
X84036100Y-71504200D02*
X87253900Y-71504200D01*
X118950000Y-61550000D02*
X118950000Y-58150000D01*
X118950000Y-58150000D02*
X120250000Y-56850000D01*
X120250000Y-56850000D02*
X126750000Y-56850000D01*
X144920000Y-73890000D02*
X127890000Y-56860000D01*
X126760000Y-56860000D02*
X126750000Y-56850000D01*
X127890000Y-56860000D02*
X126760000Y-56860000D01*
X82450000Y-88545000D02*
X82450000Y-89895300D01*
X82450000Y-89895300D02*
X81264200Y-91081100D01*
X81264200Y-91081100D02*
X81264200Y-104757800D01*
M02*
