M48
; DRILL file {KiCad (6.0.4)} date Fri Apr  8 13:10:17 2022
; FORMAT={-:-/ absolute / inch / decimal}
; #@! TF.CreationDate,2022-04-08T13:10:17+02:00
; #@! TF.GenerationSoftware,Kicad,Pcbnew,(6.0.4)
; #@! TF.FileFunction,Plated,1,2,PTH
FMAT,2
INCH
; #@! TA.AperFunction,Plated,PTH,ViaDrill
T1C0.0157
; #@! TA.AperFunction,Plated,PTH,ComponentDrill
T2C0.0300
; #@! TA.AperFunction,Plated,PTH,ComponentDrill
T3C0.0315
; #@! TA.AperFunction,Plated,PTH,ComponentDrill
T4C0.0354
; #@! TA.AperFunction,Plated,PTH,ComponentDrill
T5C0.0374
; #@! TA.AperFunction,Plated,PTH,ComponentDrill
T6C0.0394
; #@! TA.AperFunction,Plated,PTH,ComponentDrill
T7C0.0409
; #@! TA.AperFunction,Plated,PTH,ComponentDrill
T8C0.0433
; #@! TA.AperFunction,Plated,PTH,ComponentDrill
T9C0.0598
; #@! TA.AperFunction,Plated,PTH,ComponentDrill
T10C0.0787
%
G90
G05
T1
X4.9449Y-3.6604
X5.3945Y-2.8021
X5.7677Y-3.1286
T2
X6.5807Y-2.0276
X6.5829Y-3.5888
X6.6807Y-2.0276
X6.6829Y-3.5888
X6.7807Y-2.0276
X6.7829Y-3.5888
X6.8807Y-2.0276
X6.8829Y-3.5888
X6.9807Y-2.0276
X6.9829Y-3.5888
X7.0807Y-2.0276
X7.0829Y-3.5888
T3
X5.4331Y-4.8106
X5.4331Y-5.1106
X5.6693Y-4.8106
X5.6693Y-5.1106
X6.0354Y-4.3776
X6.0354Y-4.6776
X6.9094Y-4.3579
X6.9094Y-4.6579
T4
X5.9288Y-5.0187
X5.9288Y-5.1486
X6.0273Y-5.0187
X6.0273Y-5.1486
X6.1257Y-5.0187
X6.1257Y-5.1486
T5
X5.6102Y-2.8543
X5.6201Y-2.0354
X5.6201Y-2.2913
X5.6201Y-2.5591
X5.7087Y-2.8543
X5.7185Y-2.0354
X5.7185Y-2.2913
X5.7185Y-2.5591
X5.8071Y-2.8543
X5.8169Y-2.0354
X5.8169Y-2.2913
X5.8169Y-2.5591
X5.9055Y-2.8543
X5.9154Y-2.0354
X5.9154Y-2.2913
X5.9154Y-2.5591
X6.0138Y-2.0354
X6.311Y-4.4291
X6.311Y-4.5276
X6.311Y-4.626
X6.685Y-4.4291
X6.685Y-4.5276
X6.685Y-4.626
T6
X4.1339Y-4.4281
X4.1339Y-4.5281
X4.1339Y-4.6281
X4.4272Y-2.4488
X4.4272Y-2.5488
X4.4272Y-2.6488
X4.4272Y-2.7488
X4.4272Y-2.8488
X4.4272Y-2.9488
X5.2362Y-4.9114
X5.2362Y-5.0114
X5.6278Y-3.8199
X5.6677Y-3.4449
X5.6677Y-3.5449
X5.7278Y-3.8199
X5.7677Y-3.4449
X5.7677Y-3.5449
X5.8278Y-3.8199
X6.3199Y-2.3504
X6.3199Y-2.4504
X6.3199Y-2.5504
X6.3199Y-2.6504
T7
X4.2638Y-2.1945
X4.2638Y-2.2945
X4.2638Y-2.3945
X4.2638Y-2.4945
X4.2638Y-2.5945
X4.2638Y-2.6945
X4.2638Y-2.7945
X4.2638Y-2.8945
X4.2638Y-2.9945
X4.2638Y-3.0945
X4.2638Y-3.1945
X4.2638Y-3.2945
X4.2638Y-3.3945
X4.2638Y-3.4945
X4.2638Y-3.5945
X4.2638Y-3.6945
X4.2638Y-3.7945
X4.2638Y-3.8945
X4.2638Y-3.9945
X5.2638Y-2.1945
X5.2638Y-2.2945
X5.2638Y-2.3945
X5.2638Y-2.4945
X5.2638Y-2.5945
X5.2638Y-2.6945
X5.2638Y-2.7945
X5.2638Y-2.8945
X5.2638Y-2.9945
X5.2638Y-3.0945
X5.2638Y-3.1945
X5.2638Y-3.2945
X5.2638Y-3.3945
X5.2638Y-3.4945
X5.2638Y-3.5945
X5.2638Y-3.6945
X5.2638Y-3.7945
X5.2638Y-3.8945
X5.2638Y-3.9945
T8
X6.611Y-2.7362
X7.011Y-2.7362
T9
X6.611Y-3.189
X6.811Y-3.189
X7.0866Y-3.189
X7.2866Y-3.189
T10
X5.4256Y-2.677
X5.4256Y-3.2281
X6.1343Y-2.677
X6.1343Y-3.2281
T0
M30
