%TF.GenerationSoftware,KiCad,Pcbnew,(6.0.4)*%
%TF.CreationDate,2022-04-08T13:10:10+02:00*%
%TF.ProjectId,TeaSpike v1,54656153-7069-46b6-9520-76312e6b6963,rev?*%
%TF.SameCoordinates,Original*%
%TF.FileFunction,Copper,L2,Bot*%
%TF.FilePolarity,Positive*%
%FSLAX46Y46*%
G04 Gerber Fmt 4.6, Leading zero omitted, Abs format (unit mm)*
G04 Created by KiCad (PCBNEW (6.0.4)) date 2022-04-08 13:10:10*
%MOMM*%
%LPD*%
G01*
G04 APERTURE LIST*
G04 Aperture macros list*
%AMRoundRect*
0 Rectangle with rounded corners*
0 $1 Rounding radius*
0 $2 $3 $4 $5 $6 $7 $8 $9 X,Y pos of 4 corners*
0 Add a 4 corners polygon primitive as box body*
4,1,4,$2,$3,$4,$5,$6,$7,$8,$9,$2,$3,0*
0 Add four circle primitives for the rounded corners*
1,1,$1+$1,$2,$3*
1,1,$1+$1,$4,$5*
1,1,$1+$1,$6,$7*
1,1,$1+$1,$8,$9*
0 Add four rect primitives between the rounded corners*
20,1,$1+$1,$2,$3,$4,$5,0*
20,1,$1+$1,$4,$5,$6,$7,0*
20,1,$1+$1,$6,$7,$8,$9,0*
20,1,$1+$1,$8,$9,$2,$3,0*%
G04 Aperture macros list end*
%TA.AperFunction,EtchedComponent*%
%ADD10C,0.200000*%
%TD*%
%TA.AperFunction,ComponentPad*%
%ADD11RoundRect,0.250000X-0.600000X-0.725000X0.600000X-0.725000X0.600000X0.725000X-0.600000X0.725000X0*%
%TD*%
%TA.AperFunction,ComponentPad*%
%ADD12O,1.700000X1.950000*%
%TD*%
%TA.AperFunction,ComponentPad*%
%ADD13C,1.600000*%
%TD*%
%TA.AperFunction,ComponentPad*%
%ADD14O,1.600000X1.600000*%
%TD*%
%TA.AperFunction,ComponentPad*%
%ADD15R,1.700000X1.700000*%
%TD*%
%TA.AperFunction,ComponentPad*%
%ADD16O,1.700000X1.700000*%
%TD*%
%TA.AperFunction,ComponentPad*%
%ADD17R,1.560000X1.560000*%
%TD*%
%TA.AperFunction,ComponentPad*%
%ADD18C,1.560000*%
%TD*%
%TA.AperFunction,ComponentPad*%
%ADD19C,1.524000*%
%TD*%
%TA.AperFunction,ComponentPad*%
%ADD20RoundRect,0.250000X-0.725000X0.600000X-0.725000X-0.600000X0.725000X-0.600000X0.725000X0.600000X0*%
%TD*%
%TA.AperFunction,ComponentPad*%
%ADD21O,1.950000X1.700000*%
%TD*%
%TA.AperFunction,ComponentPad*%
%ADD22R,1.400000X1.400000*%
%TD*%
%TA.AperFunction,ComponentPad*%
%ADD23C,1.400000*%
%TD*%
%TA.AperFunction,ComponentPad*%
%ADD24R,3.000000X3.000000*%
%TD*%
%TA.AperFunction,ComponentPad*%
%ADD25C,3.000000*%
%TD*%
%TA.AperFunction,SMDPad,CuDef*%
%ADD26RoundRect,0.381000X-0.381000X0.381000X-0.381000X-0.381000X0.381000X-0.381000X0.381000X0.381000X0*%
%TD*%
%TA.AperFunction,ConnectorPad*%
%ADD27RoundRect,0.381000X-0.381000X0.381000X-0.381000X-0.381000X0.381000X-0.381000X0.381000X0.381000X0*%
%TD*%
%TA.AperFunction,ComponentPad*%
%ADD28C,1.540000*%
%TD*%
%TA.AperFunction,ComponentPad*%
%ADD29R,2.200000X2.200000*%
%TD*%
%TA.AperFunction,ComponentPad*%
%ADD30O,2.200000X2.200000*%
%TD*%
%TA.AperFunction,ViaPad*%
%ADD31C,0.800000*%
%TD*%
%TA.AperFunction,Conductor*%
%ADD32C,1.400000*%
%TD*%
%TA.AperFunction,Conductor*%
%ADD33C,1.500000*%
%TD*%
%TA.AperFunction,Conductor*%
%ADD34C,0.250000*%
%TD*%
G04 APERTURE END LIST*
D10*
%TO.C,U1*%
X139310000Y-81995000D02*
G75*
G03*
X139310000Y-81995000I-1500000J0D01*
G01*
X157310000Y-81995000D02*
G75*
G03*
X157310000Y-81995000I-1500000J0D01*
G01*
X139310000Y-67995000D02*
G75*
G03*
X139310000Y-67995000I-1500000J0D01*
G01*
%TD*%
D11*
%TO.P,DISPLAYcon1,1,Pin_1*%
%TO.N,3V3*%
X142750000Y-58200000D03*
D12*
%TO.P,DISPLAYcon1,2,Pin_2*%
%TO.N,GND*%
X145250000Y-58200000D03*
%TO.P,DISPLAYcon1,3,Pin_3*%
%TO.N,SCL*%
X147750000Y-58200000D03*
%TO.P,DISPLAYcon1,4,Pin_4*%
%TO.N,SDA*%
X150250000Y-58200000D03*
%TD*%
D13*
%TO.P,R1,1*%
%TO.N,Net-(JP1-Pad2)*%
X144000000Y-129810000D03*
D14*
%TO.P,R1,2*%
%TO.N,LowBatt*%
X144000000Y-122190000D03*
%TD*%
D15*
%TO.P,SoilMoisturecon1,1,Pin_1*%
%TO.N,GND*%
X105000000Y-112475000D03*
D16*
%TO.P,SoilMoisturecon1,2,Pin_2*%
%TO.N,3V3*%
X105000000Y-115015000D03*
%TO.P,SoilMoisturecon1,3,Pin_3*%
%TO.N,SoilMoisture*%
X105000000Y-117555000D03*
%TD*%
D17*
%TO.P,ESP32,1,3V3*%
%TO.N,3V3*%
X108300000Y-55740000D03*
D18*
%TO.P,ESP32,2,EN*%
%TO.N,EN*%
X108300000Y-58280000D03*
%TO.P,ESP32,3,SENSOR_VP*%
%TO.N,unconnected-(ESP32-Pad3)*%
X108300000Y-60820000D03*
%TO.P,ESP32,4,SENSOR_VN*%
%TO.N,unconnected-(ESP32-Pad4)*%
X108300000Y-63360000D03*
%TO.P,ESP32,5,IO34*%
%TO.N,unconnected-(ESP32-Pad5)*%
X108300000Y-65900000D03*
%TO.P,ESP32,6,IO35*%
%TO.N,SoilMoisture*%
X108300000Y-68440000D03*
%TO.P,ESP32,7,IO32*%
%TO.N,unconnected-(ESP32-Pad7)*%
X108300000Y-70980000D03*
%TO.P,ESP32,8,IO33*%
%TO.N,unconnected-(ESP32-Pad8)*%
X108300000Y-73520000D03*
%TO.P,ESP32,9,IO25*%
%TO.N,unconnected-(ESP32-Pad9)*%
X108300000Y-76060000D03*
%TO.P,ESP32,10,IO26*%
%TO.N,unconnected-(ESP32-Pad10)*%
X108300000Y-78600000D03*
%TO.P,ESP32,11,IO27*%
%TO.N,LowBatt*%
X108300000Y-81140000D03*
%TO.P,ESP32,12,IO14*%
%TO.N,OneWire*%
X108300000Y-83680000D03*
%TO.P,ESP32,13,IO12*%
%TO.N,unconnected-(ESP32-Pad13)*%
X108300000Y-86220000D03*
%TO.P,ESP32,14,GND1*%
%TO.N,GND*%
X108300000Y-88760000D03*
%TO.P,ESP32,15,IO13*%
%TO.N,LEDSTRIPE*%
X108300000Y-91300000D03*
%TO.P,ESP32,16,SD2*%
%TO.N,unconnected-(ESP32-Pad16)*%
X108300000Y-93840000D03*
%TO.P,ESP32,17,SD3*%
%TO.N,unconnected-(ESP32-Pad17)*%
X108300000Y-96380000D03*
%TO.P,ESP32,18,CMD*%
%TO.N,unconnected-(ESP32-Pad18)*%
X108300000Y-98920000D03*
%TO.P,ESP32,19,EXT_5V*%
%TO.N,5V*%
X108300000Y-101460000D03*
%TO.P,ESP32,20,GND3*%
%TO.N,unconnected-(ESP32-Pad20)*%
X133700000Y-55740000D03*
%TO.P,ESP32,21,IO23*%
%TO.N,MOSI*%
X133700000Y-58280000D03*
%TO.P,ESP32,22,IO22*%
%TO.N,SCL*%
X133700000Y-60820000D03*
%TO.P,ESP32,23,TXD0*%
%TO.N,unconnected-(ESP32-Pad23)*%
X133700000Y-63360000D03*
%TO.P,ESP32,24,RXD0*%
%TO.N,unconnected-(ESP32-Pad24)*%
X133700000Y-65900000D03*
%TO.P,ESP32,25,IO21*%
%TO.N,SDA*%
X133700000Y-68440000D03*
%TO.P,ESP32,26,GND2*%
%TO.N,unconnected-(ESP32-Pad26)*%
X133700000Y-70980000D03*
%TO.P,ESP32,27,IO19*%
%TO.N,MISO*%
X133700000Y-73520000D03*
%TO.P,ESP32,28,IO18*%
%TO.N,SCK*%
X133700000Y-76060000D03*
%TO.P,ESP32,29,IO5*%
%TO.N,SDcs*%
X133700000Y-78600000D03*
%TO.P,ESP32,30,IO17*%
%TO.N,unconnected-(ESP32-Pad30)*%
X133700000Y-81140000D03*
%TO.P,ESP32,31,IO16*%
%TO.N,unconnected-(ESP32-Pad31)*%
X133700000Y-83680000D03*
%TO.P,ESP32,32,IO4*%
%TO.N,NEOPIXEL*%
X133700000Y-86220000D03*
%TO.P,ESP32,33,IO0*%
%TO.N,unconnected-(ESP32-Pad33)*%
X133700000Y-88760000D03*
%TO.P,ESP32,34,IO2*%
%TO.N,unconnected-(ESP32-Pad34)*%
X133700000Y-91300000D03*
%TO.P,ESP32,35,IO15*%
%TO.N,unconnected-(ESP32-Pad35)*%
X133700000Y-93840000D03*
%TO.P,ESP32,36,SD1*%
%TO.N,unconnected-(ESP32-Pad36)*%
X133700000Y-96380000D03*
%TO.P,ESP32,37,SD0*%
%TO.N,unconnected-(ESP32-Pad37)*%
X133700000Y-98920000D03*
%TO.P,ESP32,38,CLK*%
%TO.N,unconnected-(ESP32-Pad38)*%
X133700000Y-101460000D03*
%TD*%
D15*
%TO.P,JP1,1,A*%
%TO.N,Net-(JP1-Pad1)*%
X133000000Y-124750000D03*
D16*
%TO.P,JP1,2,B*%
%TO.N,Net-(JP1-Pad2)*%
X133000000Y-127290000D03*
%TD*%
D15*
%TO.P,I2Ccon1,1,Pin_1*%
%TO.N,3V3*%
X160525000Y-59700000D03*
D16*
%TO.P,I2Ccon1,2,Pin_2*%
%TO.N,GND*%
X160525000Y-62240000D03*
%TO.P,I2Ccon1,3,Pin_3*%
%TO.N,SCL*%
X160525000Y-64780000D03*
%TO.P,I2Ccon1,4,Pin_4*%
%TO.N,SDA*%
X160525000Y-67320000D03*
%TD*%
D15*
%TO.P,PowerSupplycon1,1,Pin_1*%
%TO.N,5V*%
X148025000Y-97025000D03*
D16*
%TO.P,PowerSupplycon1,2,Pin_2*%
%TO.N,3V3*%
X145485000Y-97025000D03*
%TO.P,PowerSupplycon1,3,Pin_3*%
%TO.N,GND*%
X142945000Y-97025000D03*
%TD*%
D19*
%TO.P,U_RTC1,1,32K*%
%TO.N,unconnected-(U_RTC1-Pad1)*%
X167150000Y-51500000D03*
%TO.P,U_RTC1,2,SQW*%
%TO.N,unconnected-(U_RTC1-Pad2)*%
X169690000Y-51500000D03*
%TO.P,U_RTC1,3,SCL*%
%TO.N,SCL*%
X172230000Y-51500000D03*
%TO.P,U_RTC1,4,SDA*%
%TO.N,SDA*%
X174770000Y-51500000D03*
%TO.P,U_RTC1,5,VCC*%
%TO.N,3V3*%
X177310000Y-51500000D03*
%TO.P,U_RTC1,6,GND*%
%TO.N,GND*%
X179850000Y-51500000D03*
%TD*%
D11*
%TO.P,LEDSTRIPEcon1,1,Pin_1*%
%TO.N,GND*%
X142500000Y-72500000D03*
D12*
%TO.P,LEDSTRIPEcon1,2,Pin_2*%
%TO.N,LEDSTRIPE*%
X145000000Y-72500000D03*
%TO.P,LEDSTRIPEcon1,3,Pin_3*%
%TO.N,5V*%
X147500000Y-72500000D03*
%TO.P,LEDSTRIPEcon1,4,Pin_4*%
%TO.N,GND*%
X150000000Y-72500000D03*
%TD*%
D11*
%TO.P,VEML7700con1,1,Pin_1*%
%TO.N,3V3*%
X142750000Y-65000000D03*
D12*
%TO.P,VEML7700con1,2,Pin_2*%
%TO.N,GND*%
X145250000Y-65000000D03*
%TO.P,VEML7700con1,3,Pin_3*%
%TO.N,SCL*%
X147750000Y-65000000D03*
%TO.P,VEML7700con1,4,Pin_4*%
%TO.N,SDA*%
X150250000Y-65000000D03*
%TD*%
D13*
%TO.P,RTemp2,1*%
%TO.N,5V*%
X153300000Y-118810000D03*
D14*
%TO.P,RTemp2,2*%
%TO.N,OneWire*%
X153300000Y-111190000D03*
%TD*%
D13*
%TO.P,RTemp1,1*%
%TO.N,5V*%
X175500000Y-118310000D03*
D14*
%TO.P,RTemp1,2*%
%TO.N,OneWire*%
X175500000Y-110690000D03*
%TD*%
D20*
%TO.P,TempProbe1,1,Pin_1*%
%TO.N,GND*%
X160300000Y-112500000D03*
D21*
%TO.P,TempProbe1,2,Pin_2*%
%TO.N,OneWire*%
X160300000Y-115000000D03*
%TO.P,TempProbe1,3,Pin_3*%
%TO.N,5V*%
X160300000Y-117500000D03*
%TD*%
D13*
%TO.P,R2,1*%
%TO.N,Net-(JP1-Pad2)*%
X138000000Y-129810000D03*
D14*
%TO.P,R2,2*%
%TO.N,Net-(R2-Pad2)*%
X138000000Y-122190000D03*
%TD*%
D22*
%TO.P,SW_POWER,1,A*%
%TO.N,Net-(SW1-Pad1)*%
X150592500Y-127475000D03*
D23*
%TO.P,SW_POWER,2,B*%
%TO.N,Net-(Batterycon1-Pad1)*%
X153092500Y-127475000D03*
%TO.P,SW_POWER,3,C*%
%TO.N,Net-(SW1-Pad3)*%
X155592500Y-127475000D03*
%TO.P,SW_POWER,4*%
%TO.N,N/C*%
X150592500Y-130775000D03*
%TO.P,SW_POWER,5*%
X153092500Y-130775000D03*
%TO.P,SW_POWER,6*%
X155592500Y-130775000D03*
%TD*%
D15*
%TO.P,NEOPIXELcon1,1,Pin_1*%
%TO.N,5V*%
X146500000Y-87500000D03*
D16*
%TO.P,NEOPIXELcon1,2,Pin_2*%
%TO.N,NEOPIXEL*%
X143960000Y-87500000D03*
%TO.P,NEOPIXELcon1,3,Pin_3*%
%TO.N,unconnected-(NEOPIXELcon1-Pad3)*%
X146500000Y-90040000D03*
%TO.P,NEOPIXELcon1,4,Pin_4*%
%TO.N,GND*%
X143960000Y-90040000D03*
%TD*%
D11*
%TO.P,SCD30con1,1,Pin_1*%
%TO.N,3V3*%
X142750000Y-51700000D03*
D12*
%TO.P,SCD30con1,2,Pin_2*%
%TO.N,GND*%
X145250000Y-51700000D03*
%TO.P,SCD30con1,3,Pin_3*%
%TO.N,SCL*%
X147750000Y-51700000D03*
%TO.P,SCD30con1,4,Pin_4*%
%TO.N,SDA*%
X150250000Y-51700000D03*
%TO.P,SCD30con1,5,Pin_5*%
%TO.N,RDYscd30*%
X152750000Y-51700000D03*
%TD*%
D20*
%TO.P,TempProbe2,1,Pin_1*%
%TO.N,GND*%
X169800000Y-112500000D03*
D21*
%TO.P,TempProbe2,2,Pin_2*%
%TO.N,OneWire*%
X169800000Y-115000000D03*
%TO.P,TempProbe2,3,Pin_3*%
%TO.N,5V*%
X169800000Y-117500000D03*
%TD*%
D24*
%TO.P,Batterycon1,1,Pin_1*%
%TO.N,Net-(Batterycon1-Pad1)*%
X167920000Y-81000000D03*
D25*
%TO.P,Batterycon1,2,Pin_2*%
%TO.N,Net-(Batterycon1-Pad2)*%
X173000000Y-81000000D03*
%TD*%
D26*
%TO.P,U2,1,In+*%
%TO.N,unconnected-(U2-Pad1)*%
X119950000Y-59200000D03*
D27*
%TO.P,U2,2,In-*%
%TO.N,unconnected-(U2-Pad2)*%
X122950000Y-59200000D03*
D28*
%TO.P,U2,3,BAT*%
%TO.N,Net-(SW1-Pad1)*%
X112450000Y-62200000D03*
%TO.P,U2,4,GND*%
%TO.N,Net-(Batterycon1-Pad2)*%
X112450000Y-64740000D03*
%TO.P,U2,5,EN*%
%TO.N,unconnected-(U2-Pad5)*%
X112450000Y-67280000D03*
%TO.P,U2,6,LB*%
%TO.N,Net-(JP1-Pad1)*%
X112450000Y-69820000D03*
%TO.P,U2,7,GND*%
%TO.N,Net-(R2-Pad2)*%
X112450000Y-72360000D03*
%TO.P,U2,8,5V*%
%TO.N,unconnected-(U2-Pad8)*%
X112450000Y-74900000D03*
%TD*%
D25*
%TO.P,U1,1,IN+*%
%TO.N,Net-(D1-Pad1)*%
X155810000Y-67995000D03*
%TO.P,U1,2,IN-*%
%TO.N,Net-(Solarcon1-Pad1)*%
X155810000Y-81995000D03*
%TO.P,U1,3,BAT+*%
%TO.N,Net-(SW1-Pad3)*%
X137810000Y-67995000D03*
%TO.P,U1,4,BAT-*%
%TO.N,Net-(Batterycon1-Pad2)*%
X137810000Y-81995000D03*
%TD*%
D19*
%TO.P,U_SD1,6,GND*%
%TO.N,GND*%
X167205000Y-91155000D03*
%TO.P,U_SD1,5,VCC*%
%TO.N,5V*%
X169745000Y-91155000D03*
%TO.P,U_SD1,4,MISO*%
%TO.N,MISO*%
X172285000Y-91155000D03*
%TO.P,U_SD1,3,MOSI*%
%TO.N,MOSI*%
X174825000Y-91155000D03*
%TO.P,U_SD1,2,SCK*%
%TO.N,SCK*%
X177365000Y-91155000D03*
%TO.P,U_SD1,1,CS*%
%TO.N,SDcs*%
X179905000Y-91155000D03*
%TD*%
D29*
%TO.P,D1,1,K*%
%TO.N,Net-(D1-Pad1)*%
X167920000Y-69500000D03*
D30*
%TO.P,D1,2,A*%
%TO.N,Net-(D1-Pad2)*%
X178080000Y-69500000D03*
%TD*%
D24*
%TO.P,Solarcon1,1,Pin_1*%
%TO.N,Net-(Solarcon1-Pad1)*%
X180000000Y-81000000D03*
D25*
%TO.P,Solarcon1,2,Pin_2*%
%TO.N,Net-(D1-Pad2)*%
X185080000Y-81000000D03*
%TD*%
D31*
%TO.N,5V*%
X146500000Y-79465500D03*
%TO.N,LEDSTRIPE*%
X137020100Y-71174000D03*
%TO.N,OneWire*%
X125600000Y-92974500D03*
%TD*%
D32*
%TO.N,Net-(Batterycon1-Pad1)*%
X156200000Y-91600000D02*
X156200000Y-95028900D01*
X156200000Y-95028900D02*
X156232400Y-95061300D01*
X156200000Y-95061300D02*
X156200000Y-124335100D01*
X156232400Y-124335100D02*
X153092500Y-127475000D01*
D33*
X166800000Y-81000000D02*
X167920000Y-81000000D01*
X156200000Y-91600000D02*
X166800000Y-81000000D01*
D34*
%TO.N,Net-(D1-Pad2)*%
X185080000Y-77925300D02*
X178080000Y-70925300D01*
X178080000Y-69500000D02*
X178080000Y-70925300D01*
X185080000Y-81000000D02*
X185080000Y-77925300D01*
%TO.N,3V3*%
X102800000Y-61240000D02*
X108300000Y-55740000D01*
X142750000Y-58200000D02*
X142750000Y-65000000D01*
X105000000Y-115015000D02*
X102800000Y-112815000D01*
X102800000Y-112815000D02*
X102800000Y-61240000D01*
%TO.N,GND*%
X107650000Y-92600000D02*
X108000000Y-92600000D01*
X107685900Y-92600000D02*
X108950000Y-92600000D01*
X106900000Y-90160000D02*
X106900000Y-91850000D01*
X175350000Y-83010000D02*
X175350000Y-77300000D01*
X147250000Y-69750000D02*
X150000000Y-72500000D01*
X142945000Y-92230300D02*
X142945000Y-92421400D01*
X167205000Y-109905000D02*
X162895000Y-109905000D01*
X167205000Y-109905000D02*
X169800000Y-112500000D01*
X167205000Y-91155000D02*
X175350000Y-83010000D01*
X109300000Y-92250000D02*
X131850000Y-92250000D01*
X142816400Y-92550000D02*
X142945000Y-92421400D01*
X131850000Y-92250000D02*
X132150000Y-92550000D01*
X175350000Y-77300000D02*
X170550000Y-72500000D01*
X170550000Y-72500000D02*
X159284300Y-72500000D01*
X108950000Y-92600000D02*
X109300000Y-92250000D01*
X158700000Y-64065000D02*
X160525000Y-62240000D01*
X142500000Y-72500000D02*
X145250000Y-69750000D01*
X108300000Y-88760000D02*
X106900000Y-90160000D01*
X106900000Y-91850000D02*
X107650000Y-92600000D01*
X142945000Y-92421400D02*
X142945000Y-97025000D01*
X159284300Y-72500000D02*
X150000000Y-72500000D01*
X145250000Y-69750000D02*
X145250000Y-65000000D01*
X143960000Y-91215300D02*
X142945000Y-92230300D01*
X145250000Y-51700000D02*
X145250000Y-58200000D01*
X162895000Y-109905000D02*
X160300000Y-112500000D01*
X143960000Y-90040000D02*
X143960000Y-91215300D01*
X132150000Y-92550000D02*
X142816400Y-92550000D01*
X145250000Y-69750000D02*
X147250000Y-69750000D01*
X105000000Y-112475000D02*
X105000000Y-95285900D01*
X105000000Y-95285900D02*
X107685900Y-92600000D01*
X158700000Y-71915700D02*
X158700000Y-64065000D01*
X159284300Y-72500000D02*
X158700000Y-71915700D01*
X167205000Y-109905000D02*
X167205000Y-91155000D01*
X145250000Y-65000000D02*
X145250000Y-58200000D01*
%TO.N,SCL*%
X147750000Y-51700000D02*
X147750000Y-58200000D01*
X160525000Y-64780000D02*
X172230000Y-53075000D01*
X172230000Y-53075000D02*
X172230000Y-51500000D01*
%TO.N,SDA*%
X150250000Y-51700000D02*
X150250000Y-58200000D01*
X174770000Y-53075000D02*
X174770000Y-51500000D01*
X160525000Y-67320000D02*
X174770000Y-53075000D01*
X150250000Y-65000000D02*
X150250000Y-58200000D01*
%TO.N,5V*%
X169800000Y-117500000D02*
X174690000Y-117500000D01*
X148700000Y-96350000D02*
X148700000Y-89700000D01*
X146446700Y-111956700D02*
X118796700Y-111956700D01*
X148700000Y-89700000D02*
X146500000Y-87500000D01*
X146500000Y-87500000D02*
X146500000Y-79465500D01*
X174690000Y-117500000D02*
X175500000Y-118310000D01*
X148025000Y-97025000D02*
X148700000Y-96350000D01*
X153300000Y-118810000D02*
X146446700Y-111956700D01*
X118796700Y-111956700D02*
X108300000Y-101460000D01*
%TO.N,LEDSTRIPE*%
X137020100Y-71979900D02*
X137020100Y-71174000D01*
X126578800Y-74790000D02*
X134210000Y-74790000D01*
X134210000Y-74790000D02*
X137020100Y-71979900D01*
X110068800Y-91300000D02*
X126578800Y-74790000D01*
X108300000Y-91300000D02*
X110068800Y-91300000D01*
%TO.N,OneWire*%
X133365400Y-97650000D02*
X138634700Y-97650000D01*
X138634700Y-97650000D02*
X152174700Y-111190000D01*
X128689900Y-92974500D02*
X133365400Y-97650000D01*
X125600000Y-92974500D02*
X128689900Y-92974500D01*
X152174700Y-111190000D02*
X153300000Y-111190000D01*
D32*
%TO.N,Net-(Batterycon1-Pad2)*%
X120083900Y-64740000D02*
X125500000Y-59323900D01*
X125500000Y-59323900D02*
X125500000Y-56050000D01*
X128300000Y-53250000D02*
X134800000Y-53250000D01*
X173000000Y-81000000D02*
X170115200Y-78115200D01*
X134800000Y-53250000D02*
X140356958Y-58806958D01*
X170115200Y-78115200D02*
X141689800Y-78115200D01*
X141689800Y-78115200D02*
X137810000Y-81995000D01*
X125500000Y-56050000D02*
X128300000Y-53250000D01*
X112450000Y-64740000D02*
X120083900Y-64740000D01*
D33*
X140356958Y-76782358D02*
X141689800Y-78115200D01*
D32*
X140356958Y-58806958D02*
X140356958Y-76782358D01*
D34*
%TO.N,Net-(SW1-Pad3)*%
X155592500Y-127475000D02*
X154476300Y-128591200D01*
X140775000Y-88775000D02*
X135500000Y-83500000D01*
X154458800Y-128591200D02*
X154150000Y-128900000D01*
X137810000Y-78217200D02*
X137810000Y-67995000D01*
X135956200Y-80071000D02*
X137810000Y-78217200D01*
X135929000Y-80071000D02*
X135956200Y-80071000D01*
X154476300Y-128591200D02*
X154458800Y-128591200D01*
X135500000Y-83500000D02*
X135500000Y-80500000D01*
X140775000Y-88775000D02*
X144396000Y-88775000D01*
X154425400Y-119935400D02*
X154425400Y-108523900D01*
X151850000Y-128350000D02*
X151850000Y-122510800D01*
X151850000Y-122510800D02*
X154425400Y-119935400D01*
X144396000Y-88775000D02*
X145230000Y-89609000D01*
X154425400Y-108523900D02*
X146676600Y-100775100D01*
X145230000Y-93245500D02*
X145230000Y-89609000D01*
X154150000Y-128900000D02*
X152400000Y-128900000D01*
X135500000Y-80500000D02*
X135929000Y-80071000D01*
X152400000Y-128900000D02*
X151850000Y-128350000D01*
X146676600Y-94692100D02*
X145230000Y-93245500D01*
X146676600Y-100775100D02*
X146676600Y-94692100D01*
%TD*%
M02*
