%TF.GenerationSoftware,KiCad,Pcbnew,(6.0.4)*%
%TF.CreationDate,2022-04-08T13:10:10+02:00*%
%TF.ProjectId,TeaSpike v1,54656153-7069-46b6-9520-76312e6b6963,rev?*%
%TF.SameCoordinates,Original*%
%TF.FileFunction,Legend,Bot*%
%TF.FilePolarity,Positive*%
%FSLAX46Y46*%
G04 Gerber Fmt 4.6, Leading zero omitted, Abs format (unit mm)*
G04 Created by KiCad (PCBNEW (6.0.4)) date 2022-04-08 13:10:10*
%MOMM*%
%LPD*%
G01*
G04 APERTURE LIST*
%ADD10C,0.150000*%
%ADD11C,0.120000*%
%ADD12C,0.200000*%
G04 APERTURE END LIST*
D10*
%TO.C,Batterycon1*%
X174340952Y-86008571D02*
X174198095Y-86056190D01*
X174150476Y-86103809D01*
X174102857Y-86199047D01*
X174102857Y-86341904D01*
X174150476Y-86437142D01*
X174198095Y-86484761D01*
X174293333Y-86532380D01*
X174674285Y-86532380D01*
X174674285Y-85532380D01*
X174340952Y-85532380D01*
X174245714Y-85580000D01*
X174198095Y-85627619D01*
X174150476Y-85722857D01*
X174150476Y-85818095D01*
X174198095Y-85913333D01*
X174245714Y-85960952D01*
X174340952Y-86008571D01*
X174674285Y-86008571D01*
X173245714Y-86532380D02*
X173245714Y-86008571D01*
X173293333Y-85913333D01*
X173388571Y-85865714D01*
X173579047Y-85865714D01*
X173674285Y-85913333D01*
X173245714Y-86484761D02*
X173340952Y-86532380D01*
X173579047Y-86532380D01*
X173674285Y-86484761D01*
X173721904Y-86389523D01*
X173721904Y-86294285D01*
X173674285Y-86199047D01*
X173579047Y-86151428D01*
X173340952Y-86151428D01*
X173245714Y-86103809D01*
X172912380Y-85865714D02*
X172531428Y-85865714D01*
X172769523Y-85532380D02*
X172769523Y-86389523D01*
X172721904Y-86484761D01*
X172626666Y-86532380D01*
X172531428Y-86532380D01*
X172340952Y-85865714D02*
X171960000Y-85865714D01*
X172198095Y-85532380D02*
X172198095Y-86389523D01*
X172150476Y-86484761D01*
X172055238Y-86532380D01*
X171960000Y-86532380D01*
X171245714Y-86484761D02*
X171340952Y-86532380D01*
X171531428Y-86532380D01*
X171626666Y-86484761D01*
X171674285Y-86389523D01*
X171674285Y-86008571D01*
X171626666Y-85913333D01*
X171531428Y-85865714D01*
X171340952Y-85865714D01*
X171245714Y-85913333D01*
X171198095Y-86008571D01*
X171198095Y-86103809D01*
X171674285Y-86199047D01*
X170769523Y-86532380D02*
X170769523Y-85865714D01*
X170769523Y-86056190D02*
X170721904Y-85960952D01*
X170674285Y-85913333D01*
X170579047Y-85865714D01*
X170483809Y-85865714D01*
X170245714Y-85865714D02*
X170007619Y-86532380D01*
X169769523Y-85865714D02*
X170007619Y-86532380D01*
X170102857Y-86770476D01*
X170150476Y-86818095D01*
X170245714Y-86865714D01*
X168960000Y-86484761D02*
X169055238Y-86532380D01*
X169245714Y-86532380D01*
X169340952Y-86484761D01*
X169388571Y-86437142D01*
X169436190Y-86341904D01*
X169436190Y-86056190D01*
X169388571Y-85960952D01*
X169340952Y-85913333D01*
X169245714Y-85865714D01*
X169055238Y-85865714D01*
X168960000Y-85913333D01*
X168388571Y-86532380D02*
X168483809Y-86484761D01*
X168531428Y-86437142D01*
X168579047Y-86341904D01*
X168579047Y-86056190D01*
X168531428Y-85960952D01*
X168483809Y-85913333D01*
X168388571Y-85865714D01*
X168245714Y-85865714D01*
X168150476Y-85913333D01*
X168102857Y-85960952D01*
X168055238Y-86056190D01*
X168055238Y-86341904D01*
X168102857Y-86437142D01*
X168150476Y-86484761D01*
X168245714Y-86532380D01*
X168388571Y-86532380D01*
X167626666Y-85865714D02*
X167626666Y-86532380D01*
X167626666Y-85960952D02*
X167579047Y-85913333D01*
X167483809Y-85865714D01*
X167340952Y-85865714D01*
X167245714Y-85913333D01*
X167198095Y-86008571D01*
X167198095Y-86532380D01*
X166198095Y-86532380D02*
X166769523Y-86532380D01*
X166483809Y-86532380D02*
X166483809Y-85532380D01*
X166579047Y-85675238D01*
X166674285Y-85770476D01*
X166769523Y-85818095D01*
%TO.C,U2*%
X116902380Y-69438095D02*
X117711904Y-69438095D01*
X117807142Y-69485714D01*
X117854761Y-69533333D01*
X117902380Y-69628571D01*
X117902380Y-69819047D01*
X117854761Y-69914285D01*
X117807142Y-69961904D01*
X117711904Y-70009523D01*
X116902380Y-70009523D01*
X116997619Y-70438095D02*
X116950000Y-70485714D01*
X116902380Y-70580952D01*
X116902380Y-70819047D01*
X116950000Y-70914285D01*
X116997619Y-70961904D01*
X117092857Y-71009523D01*
X117188095Y-71009523D01*
X117330952Y-70961904D01*
X117902380Y-70390476D01*
X117902380Y-71009523D01*
X123102380Y-65628571D02*
X122102380Y-65628571D01*
X122102380Y-66009523D01*
X122150000Y-66104761D01*
X122197619Y-66152380D01*
X122292857Y-66200000D01*
X122435714Y-66200000D01*
X122530952Y-66152380D01*
X122578571Y-66104761D01*
X122626190Y-66009523D01*
X122626190Y-65628571D01*
X123102380Y-66771428D02*
X123054761Y-66676190D01*
X123007142Y-66628571D01*
X122911904Y-66580952D01*
X122626190Y-66580952D01*
X122530952Y-66628571D01*
X122483333Y-66676190D01*
X122435714Y-66771428D01*
X122435714Y-66914285D01*
X122483333Y-67009523D01*
X122530952Y-67057142D01*
X122626190Y-67104761D01*
X122911904Y-67104761D01*
X123007142Y-67057142D01*
X123054761Y-67009523D01*
X123102380Y-66914285D01*
X123102380Y-66771428D01*
X122435714Y-67438095D02*
X123102380Y-67628571D01*
X122626190Y-67819047D01*
X123102380Y-68009523D01*
X122435714Y-68200000D01*
X123054761Y-68961904D02*
X123102380Y-68866666D01*
X123102380Y-68676190D01*
X123054761Y-68580952D01*
X122959523Y-68533333D01*
X122578571Y-68533333D01*
X122483333Y-68580952D01*
X122435714Y-68676190D01*
X122435714Y-68866666D01*
X122483333Y-68961904D01*
X122578571Y-69009523D01*
X122673809Y-69009523D01*
X122769047Y-68533333D01*
X123102380Y-69438095D02*
X122435714Y-69438095D01*
X122626190Y-69438095D02*
X122530952Y-69485714D01*
X122483333Y-69533333D01*
X122435714Y-69628571D01*
X122435714Y-69723809D01*
X122578571Y-70390476D02*
X122626190Y-70533333D01*
X122673809Y-70580952D01*
X122769047Y-70628571D01*
X122911904Y-70628571D01*
X123007142Y-70580952D01*
X123054761Y-70533333D01*
X123102380Y-70438095D01*
X123102380Y-70057142D01*
X122102380Y-70057142D01*
X122102380Y-70390476D01*
X122150000Y-70485714D01*
X122197619Y-70533333D01*
X122292857Y-70580952D01*
X122388095Y-70580952D01*
X122483333Y-70533333D01*
X122530952Y-70485714D01*
X122578571Y-70390476D01*
X122578571Y-70057142D01*
X123102380Y-71200000D02*
X123054761Y-71104761D01*
X123007142Y-71057142D01*
X122911904Y-71009523D01*
X122626190Y-71009523D01*
X122530952Y-71057142D01*
X122483333Y-71104761D01*
X122435714Y-71200000D01*
X122435714Y-71342857D01*
X122483333Y-71438095D01*
X122530952Y-71485714D01*
X122626190Y-71533333D01*
X122911904Y-71533333D01*
X123007142Y-71485714D01*
X123054761Y-71438095D01*
X123102380Y-71342857D01*
X123102380Y-71200000D01*
X123102380Y-72104761D02*
X123054761Y-72009523D01*
X123007142Y-71961904D01*
X122911904Y-71914285D01*
X122626190Y-71914285D01*
X122530952Y-71961904D01*
X122483333Y-72009523D01*
X122435714Y-72104761D01*
X122435714Y-72247619D01*
X122483333Y-72342857D01*
X122530952Y-72390476D01*
X122626190Y-72438095D01*
X122911904Y-72438095D01*
X123007142Y-72390476D01*
X123054761Y-72342857D01*
X123102380Y-72247619D01*
X123102380Y-72104761D01*
X123054761Y-72819047D02*
X123102380Y-72914285D01*
X123102380Y-73104761D01*
X123054761Y-73200000D01*
X122959523Y-73247619D01*
X122911904Y-73247619D01*
X122816666Y-73200000D01*
X122769047Y-73104761D01*
X122769047Y-72961904D01*
X122721428Y-72866666D01*
X122626190Y-72819047D01*
X122578571Y-72819047D01*
X122483333Y-72866666D01*
X122435714Y-72961904D01*
X122435714Y-73104761D01*
X122483333Y-73200000D01*
X122435714Y-73533333D02*
X122435714Y-73914285D01*
X122102380Y-73676190D02*
X122959523Y-73676190D01*
X123054761Y-73723809D01*
X123102380Y-73819047D01*
X123102380Y-73914285D01*
X122411904Y-87852380D02*
X122411904Y-88661904D01*
X122364285Y-88757142D01*
X122316666Y-88804761D01*
X122221428Y-88852380D01*
X122030952Y-88852380D01*
X121935714Y-88804761D01*
X121888095Y-88757142D01*
X121840476Y-88661904D01*
X121840476Y-87852380D01*
X121411904Y-88804761D02*
X121269047Y-88852380D01*
X121030952Y-88852380D01*
X120935714Y-88804761D01*
X120888095Y-88757142D01*
X120840476Y-88661904D01*
X120840476Y-88566666D01*
X120888095Y-88471428D01*
X120935714Y-88423809D01*
X121030952Y-88376190D01*
X121221428Y-88328571D01*
X121316666Y-88280952D01*
X121364285Y-88233333D01*
X121411904Y-88138095D01*
X121411904Y-88042857D01*
X121364285Y-87947619D01*
X121316666Y-87900000D01*
X121221428Y-87852380D01*
X120983333Y-87852380D01*
X120840476Y-87900000D01*
X120078571Y-88328571D02*
X119935714Y-88376190D01*
X119888095Y-88423809D01*
X119840476Y-88519047D01*
X119840476Y-88661904D01*
X119888095Y-88757142D01*
X119935714Y-88804761D01*
X120030952Y-88852380D01*
X120411904Y-88852380D01*
X120411904Y-87852380D01*
X120078571Y-87852380D01*
X119983333Y-87900000D01*
X119935714Y-87947619D01*
X119888095Y-88042857D01*
X119888095Y-88138095D01*
X119935714Y-88233333D01*
X119983333Y-88280952D01*
X120078571Y-88328571D01*
X120411904Y-88328571D01*
%TO.C,U1*%
X147361904Y-69852380D02*
X147361904Y-70661904D01*
X147314285Y-70757142D01*
X147266666Y-70804761D01*
X147171428Y-70852380D01*
X146980952Y-70852380D01*
X146885714Y-70804761D01*
X146838095Y-70757142D01*
X146790476Y-70661904D01*
X146790476Y-69852380D01*
X145790476Y-70852380D02*
X146361904Y-70852380D01*
X146076190Y-70852380D02*
X146076190Y-69852380D01*
X146171428Y-69995238D01*
X146266666Y-70090476D01*
X146361904Y-70138095D01*
X149640476Y-75127380D02*
X149069047Y-75127380D01*
X149354761Y-76127380D02*
X149354761Y-75127380D01*
X148735714Y-76127380D02*
X148735714Y-75127380D01*
X148354761Y-75127380D01*
X148259523Y-75175000D01*
X148211904Y-75222619D01*
X148164285Y-75317857D01*
X148164285Y-75460714D01*
X148211904Y-75555952D01*
X148259523Y-75603571D01*
X148354761Y-75651190D01*
X148735714Y-75651190D01*
X147307142Y-75460714D02*
X147307142Y-76127380D01*
X147545238Y-75079761D02*
X147783333Y-75794047D01*
X147164285Y-75794047D01*
X146592857Y-75127380D02*
X146497619Y-75127380D01*
X146402380Y-75175000D01*
X146354761Y-75222619D01*
X146307142Y-75317857D01*
X146259523Y-75508333D01*
X146259523Y-75746428D01*
X146307142Y-75936904D01*
X146354761Y-76032142D01*
X146402380Y-76079761D01*
X146497619Y-76127380D01*
X146592857Y-76127380D01*
X146688095Y-76079761D01*
X146735714Y-76032142D01*
X146783333Y-75936904D01*
X146830952Y-75746428D01*
X146830952Y-75508333D01*
X146783333Y-75317857D01*
X146735714Y-75222619D01*
X146688095Y-75175000D01*
X146592857Y-75127380D01*
X145354761Y-75127380D02*
X145830952Y-75127380D01*
X145878571Y-75603571D01*
X145830952Y-75555952D01*
X145735714Y-75508333D01*
X145497619Y-75508333D01*
X145402380Y-75555952D01*
X145354761Y-75603571D01*
X145307142Y-75698809D01*
X145307142Y-75936904D01*
X145354761Y-76032142D01*
X145402380Y-76079761D01*
X145497619Y-76127380D01*
X145735714Y-76127380D01*
X145830952Y-76079761D01*
X145878571Y-76032142D01*
X144450000Y-75127380D02*
X144640476Y-75127380D01*
X144735714Y-75175000D01*
X144783333Y-75222619D01*
X144878571Y-75365476D01*
X144926190Y-75555952D01*
X144926190Y-75936904D01*
X144878571Y-76032142D01*
X144830952Y-76079761D01*
X144735714Y-76127380D01*
X144545238Y-76127380D01*
X144450000Y-76079761D01*
X144402380Y-76032142D01*
X144354761Y-75936904D01*
X144354761Y-75698809D01*
X144402380Y-75603571D01*
X144450000Y-75555952D01*
X144545238Y-75508333D01*
X144735714Y-75508333D01*
X144830952Y-75555952D01*
X144878571Y-75603571D01*
X144926190Y-75698809D01*
X137497619Y-78655952D02*
X138497619Y-78655952D01*
X137783333Y-78322619D01*
X138497619Y-77989285D01*
X137497619Y-77989285D01*
X137497619Y-77513095D02*
X138164285Y-77513095D01*
X138497619Y-77513095D02*
X138450000Y-77560714D01*
X138402380Y-77513095D01*
X138450000Y-77465476D01*
X138497619Y-77513095D01*
X138402380Y-77513095D01*
X137545238Y-76608333D02*
X137497619Y-76703571D01*
X137497619Y-76894047D01*
X137545238Y-76989285D01*
X137592857Y-77036904D01*
X137688095Y-77084523D01*
X137973809Y-77084523D01*
X138069047Y-77036904D01*
X138116666Y-76989285D01*
X138164285Y-76894047D01*
X138164285Y-76703571D01*
X138116666Y-76608333D01*
X137497619Y-76179761D02*
X138164285Y-76179761D01*
X137973809Y-76179761D02*
X138069047Y-76132142D01*
X138116666Y-76084523D01*
X138164285Y-75989285D01*
X138164285Y-75894047D01*
X137497619Y-75417857D02*
X137545238Y-75513095D01*
X137592857Y-75560714D01*
X137688095Y-75608333D01*
X137973809Y-75608333D01*
X138069047Y-75560714D01*
X138116666Y-75513095D01*
X138164285Y-75417857D01*
X138164285Y-75275000D01*
X138116666Y-75179761D01*
X138069047Y-75132142D01*
X137973809Y-75084523D01*
X137688095Y-75084523D01*
X137592857Y-75132142D01*
X137545238Y-75179761D01*
X137497619Y-75275000D01*
X137497619Y-75417857D01*
X137878571Y-74655952D02*
X137878571Y-73894047D01*
X138497619Y-73417857D02*
X137688095Y-73417857D01*
X137592857Y-73370238D01*
X137545238Y-73322619D01*
X137497619Y-73227380D01*
X137497619Y-73036904D01*
X137545238Y-72941666D01*
X137592857Y-72894047D01*
X137688095Y-72846428D01*
X138497619Y-72846428D01*
X137545238Y-72417857D02*
X137497619Y-72275000D01*
X137497619Y-72036904D01*
X137545238Y-71941666D01*
X137592857Y-71894047D01*
X137688095Y-71846428D01*
X137783333Y-71846428D01*
X137878571Y-71894047D01*
X137926190Y-71941666D01*
X137973809Y-72036904D01*
X138021428Y-72227380D01*
X138069047Y-72322619D01*
X138116666Y-72370238D01*
X138211904Y-72417857D01*
X138307142Y-72417857D01*
X138402380Y-72370238D01*
X138450000Y-72322619D01*
X138497619Y-72227380D01*
X138497619Y-71989285D01*
X138450000Y-71846428D01*
X138021428Y-71084523D02*
X137973809Y-70941666D01*
X137926190Y-70894047D01*
X137830952Y-70846428D01*
X137688095Y-70846428D01*
X137592857Y-70894047D01*
X137545238Y-70941666D01*
X137497619Y-71036904D01*
X137497619Y-71417857D01*
X138497619Y-71417857D01*
X138497619Y-71084523D01*
X138450000Y-70989285D01*
X138402380Y-70941666D01*
X138307142Y-70894047D01*
X138211904Y-70894047D01*
X138116666Y-70941666D01*
X138069047Y-70989285D01*
X138021428Y-71084523D01*
X138021428Y-71417857D01*
%TO.C,U_SD1*%
X176824047Y-106907380D02*
X176824047Y-107716904D01*
X176776428Y-107812142D01*
X176728809Y-107859761D01*
X176633571Y-107907380D01*
X176443095Y-107907380D01*
X176347857Y-107859761D01*
X176300238Y-107812142D01*
X176252619Y-107716904D01*
X176252619Y-106907380D01*
X176014523Y-108002619D02*
X175252619Y-108002619D01*
X175062142Y-107859761D02*
X174919285Y-107907380D01*
X174681190Y-107907380D01*
X174585952Y-107859761D01*
X174538333Y-107812142D01*
X174490714Y-107716904D01*
X174490714Y-107621666D01*
X174538333Y-107526428D01*
X174585952Y-107478809D01*
X174681190Y-107431190D01*
X174871666Y-107383571D01*
X174966904Y-107335952D01*
X175014523Y-107288333D01*
X175062142Y-107193095D01*
X175062142Y-107097857D01*
X175014523Y-107002619D01*
X174966904Y-106955000D01*
X174871666Y-106907380D01*
X174633571Y-106907380D01*
X174490714Y-106955000D01*
X174062142Y-107907380D02*
X174062142Y-106907380D01*
X173824047Y-106907380D01*
X173681190Y-106955000D01*
X173585952Y-107050238D01*
X173538333Y-107145476D01*
X173490714Y-107335952D01*
X173490714Y-107478809D01*
X173538333Y-107669285D01*
X173585952Y-107764523D01*
X173681190Y-107859761D01*
X173824047Y-107907380D01*
X174062142Y-107907380D01*
X172538333Y-107907380D02*
X173109761Y-107907380D01*
X172824047Y-107907380D02*
X172824047Y-106907380D01*
X172919285Y-107050238D01*
X173014523Y-107145476D01*
X173109761Y-107193095D01*
X174190714Y-123059761D02*
X174047857Y-123107380D01*
X173809761Y-123107380D01*
X173714523Y-123059761D01*
X173666904Y-123012142D01*
X173619285Y-122916904D01*
X173619285Y-122821666D01*
X173666904Y-122726428D01*
X173714523Y-122678809D01*
X173809761Y-122631190D01*
X174000238Y-122583571D01*
X174095476Y-122535952D01*
X174143095Y-122488333D01*
X174190714Y-122393095D01*
X174190714Y-122297857D01*
X174143095Y-122202619D01*
X174095476Y-122155000D01*
X174000238Y-122107380D01*
X173762142Y-122107380D01*
X173619285Y-122155000D01*
X173190714Y-123107380D02*
X173190714Y-122107380D01*
X172952619Y-122107380D01*
X172809761Y-122155000D01*
X172714523Y-122250238D01*
X172666904Y-122345476D01*
X172619285Y-122535952D01*
X172619285Y-122678809D01*
X172666904Y-122869285D01*
X172714523Y-122964523D01*
X172809761Y-123059761D01*
X172952619Y-123107380D01*
X173190714Y-123107380D01*
X174876428Y-128159761D02*
X173447857Y-124350238D01*
X172019285Y-128159761D01*
%TO.C,D1*%
X173738095Y-72422380D02*
X173738095Y-71422380D01*
X173500000Y-71422380D01*
X173357142Y-71470000D01*
X173261904Y-71565238D01*
X173214285Y-71660476D01*
X173166666Y-71850952D01*
X173166666Y-71993809D01*
X173214285Y-72184285D01*
X173261904Y-72279523D01*
X173357142Y-72374761D01*
X173500000Y-72422380D01*
X173738095Y-72422380D01*
X172214285Y-72422380D02*
X172785714Y-72422380D01*
X172500000Y-72422380D02*
X172500000Y-71422380D01*
X172595238Y-71565238D01*
X172690476Y-71660476D01*
X172785714Y-71708095D01*
X175342857Y-69952380D02*
X175914285Y-69952380D01*
X175628571Y-69952380D02*
X175628571Y-68952380D01*
X175723809Y-69095238D01*
X175819047Y-69190476D01*
X175914285Y-69238095D01*
X174914285Y-69952380D02*
X174914285Y-68952380D01*
X174342857Y-69952380D01*
X174342857Y-68952380D01*
X173438095Y-69285714D02*
X173438095Y-69952380D01*
X173676190Y-68904761D02*
X173914285Y-69619047D01*
X173295238Y-69619047D01*
X172723809Y-68952380D02*
X172628571Y-68952380D01*
X172533333Y-69000000D01*
X172485714Y-69047619D01*
X172438095Y-69142857D01*
X172390476Y-69333333D01*
X172390476Y-69571428D01*
X172438095Y-69761904D01*
X172485714Y-69857142D01*
X172533333Y-69904761D01*
X172628571Y-69952380D01*
X172723809Y-69952380D01*
X172819047Y-69904761D01*
X172866666Y-69857142D01*
X172914285Y-69761904D01*
X172961904Y-69571428D01*
X172961904Y-69333333D01*
X172914285Y-69142857D01*
X172866666Y-69047619D01*
X172819047Y-69000000D01*
X172723809Y-68952380D01*
X171771428Y-68952380D02*
X171676190Y-68952380D01*
X171580952Y-69000000D01*
X171533333Y-69047619D01*
X171485714Y-69142857D01*
X171438095Y-69333333D01*
X171438095Y-69571428D01*
X171485714Y-69761904D01*
X171533333Y-69857142D01*
X171580952Y-69904761D01*
X171676190Y-69952380D01*
X171771428Y-69952380D01*
X171866666Y-69904761D01*
X171914285Y-69857142D01*
X171961904Y-69761904D01*
X172009523Y-69571428D01*
X172009523Y-69333333D01*
X171961904Y-69142857D01*
X171914285Y-69047619D01*
X171866666Y-69000000D01*
X171771428Y-68952380D01*
X170485714Y-69952380D02*
X171057142Y-69952380D01*
X170771428Y-69952380D02*
X170771428Y-68952380D01*
X170866666Y-69095238D01*
X170961904Y-69190476D01*
X171057142Y-69238095D01*
X168181904Y-72052380D02*
X168181904Y-71052380D01*
X167610476Y-72052380D02*
X168039047Y-71480952D01*
X167610476Y-71052380D02*
X168181904Y-71623809D01*
%TO.C,Solarcon1*%
X186111428Y-86484761D02*
X185968571Y-86532380D01*
X185730476Y-86532380D01*
X185635238Y-86484761D01*
X185587619Y-86437142D01*
X185540000Y-86341904D01*
X185540000Y-86246666D01*
X185587619Y-86151428D01*
X185635238Y-86103809D01*
X185730476Y-86056190D01*
X185920952Y-86008571D01*
X186016190Y-85960952D01*
X186063809Y-85913333D01*
X186111428Y-85818095D01*
X186111428Y-85722857D01*
X186063809Y-85627619D01*
X186016190Y-85580000D01*
X185920952Y-85532380D01*
X185682857Y-85532380D01*
X185540000Y-85580000D01*
X184968571Y-86532380D02*
X185063809Y-86484761D01*
X185111428Y-86437142D01*
X185159047Y-86341904D01*
X185159047Y-86056190D01*
X185111428Y-85960952D01*
X185063809Y-85913333D01*
X184968571Y-85865714D01*
X184825714Y-85865714D01*
X184730476Y-85913333D01*
X184682857Y-85960952D01*
X184635238Y-86056190D01*
X184635238Y-86341904D01*
X184682857Y-86437142D01*
X184730476Y-86484761D01*
X184825714Y-86532380D01*
X184968571Y-86532380D01*
X184063809Y-86532380D02*
X184159047Y-86484761D01*
X184206666Y-86389523D01*
X184206666Y-85532380D01*
X183254285Y-86532380D02*
X183254285Y-86008571D01*
X183301904Y-85913333D01*
X183397142Y-85865714D01*
X183587619Y-85865714D01*
X183682857Y-85913333D01*
X183254285Y-86484761D02*
X183349523Y-86532380D01*
X183587619Y-86532380D01*
X183682857Y-86484761D01*
X183730476Y-86389523D01*
X183730476Y-86294285D01*
X183682857Y-86199047D01*
X183587619Y-86151428D01*
X183349523Y-86151428D01*
X183254285Y-86103809D01*
X182778095Y-86532380D02*
X182778095Y-85865714D01*
X182778095Y-86056190D02*
X182730476Y-85960952D01*
X182682857Y-85913333D01*
X182587619Y-85865714D01*
X182492380Y-85865714D01*
X181730476Y-86484761D02*
X181825714Y-86532380D01*
X182016190Y-86532380D01*
X182111428Y-86484761D01*
X182159047Y-86437142D01*
X182206666Y-86341904D01*
X182206666Y-86056190D01*
X182159047Y-85960952D01*
X182111428Y-85913333D01*
X182016190Y-85865714D01*
X181825714Y-85865714D01*
X181730476Y-85913333D01*
X181159047Y-86532380D02*
X181254285Y-86484761D01*
X181301904Y-86437142D01*
X181349523Y-86341904D01*
X181349523Y-86056190D01*
X181301904Y-85960952D01*
X181254285Y-85913333D01*
X181159047Y-85865714D01*
X181016190Y-85865714D01*
X180920952Y-85913333D01*
X180873333Y-85960952D01*
X180825714Y-86056190D01*
X180825714Y-86341904D01*
X180873333Y-86437142D01*
X180920952Y-86484761D01*
X181016190Y-86532380D01*
X181159047Y-86532380D01*
X180397142Y-85865714D02*
X180397142Y-86532380D01*
X180397142Y-85960952D02*
X180349523Y-85913333D01*
X180254285Y-85865714D01*
X180111428Y-85865714D01*
X180016190Y-85913333D01*
X179968571Y-86008571D01*
X179968571Y-86532380D01*
X178968571Y-86532380D02*
X179540000Y-86532380D01*
X179254285Y-86532380D02*
X179254285Y-85532380D01*
X179349523Y-85675238D01*
X179444761Y-85770476D01*
X179540000Y-85818095D01*
D11*
%TO.C,Batterycon1*%
X175540000Y-84810000D02*
X165380000Y-84810000D01*
X165380000Y-77190000D02*
X175540000Y-77190000D01*
X165380000Y-84810000D02*
X165380000Y-77190000D01*
X175540000Y-78460000D02*
X165380000Y-78460000D01*
X175540000Y-77190000D02*
X175540000Y-84810000D01*
%TO.C,U2*%
X132600000Y-84200000D02*
X109600000Y-84200000D01*
X109600000Y-55200000D02*
X132600000Y-55200000D01*
X109600000Y-55200000D02*
X109600000Y-84200000D01*
X132600000Y-84200000D02*
X132600000Y-55200000D01*
X114650000Y-84200000D02*
X127650000Y-84200000D01*
X127650000Y-84200000D02*
X127650000Y-92200000D01*
X127650000Y-92200000D02*
X114650000Y-92200000D01*
X114650000Y-92200000D02*
X114650000Y-84200000D01*
X118700000Y-81600000D02*
G75*
G03*
X118700000Y-81600000I-2500000J0D01*
G01*
X114700000Y-57750000D02*
G75*
G03*
X114700000Y-57750000I-2500000J0D01*
G01*
X132499600Y-57750000D02*
G75*
G03*
X132499600Y-57750000I-2500000J0D01*
G01*
X128550000Y-81600000D02*
G75*
G03*
X128550000Y-81600000I-2500000J0D01*
G01*
D12*
%TO.C,U1*%
X141250000Y-70375000D02*
X141250000Y-79375000D01*
X141250000Y-79375000D02*
X135350000Y-79375000D01*
X141250000Y-70375000D02*
X135350000Y-70375000D01*
X157850000Y-66375000D02*
X135350000Y-66375000D01*
X135350000Y-66375000D02*
X135350000Y-83575000D01*
X135350000Y-83575000D02*
X157850000Y-83575000D01*
X157850000Y-83575000D02*
X157850000Y-66375000D01*
D11*
%TO.C,U_SD1*%
X165905000Y-128655000D02*
G75*
G03*
X165905000Y-128655000I-2000000J0D01*
G01*
X184905000Y-128655000D02*
G75*
G03*
X184905000Y-128655000I-2000000J0D01*
G01*
X184905000Y-90155000D02*
G75*
G03*
X184905000Y-90155000I-2000000J0D01*
G01*
X165905000Y-90155000D02*
G75*
G03*
X165905000Y-90155000I-2000000J0D01*
G01*
X180905000Y-130655000D02*
X165905000Y-130655000D01*
X165905000Y-130655000D02*
X165905000Y-113655000D01*
X165905000Y-113655000D02*
X180905000Y-113655000D01*
X180905000Y-113655000D02*
X180905000Y-130655000D01*
X184905000Y-130655000D02*
X161905000Y-130655000D01*
X161905000Y-130655000D02*
X161905000Y-88155000D01*
X161905000Y-88155000D02*
X184905000Y-88155000D01*
X184905000Y-88155000D02*
X184905000Y-130655000D01*
%TO.C,D1*%
X170280000Y-68030000D02*
X175720000Y-68030000D01*
X171180000Y-70970000D02*
X171180000Y-68030000D01*
X175720000Y-70970000D02*
X170280000Y-70970000D01*
X169260000Y-69500000D02*
X170280000Y-69500000D01*
X171300000Y-70970000D02*
X171300000Y-68030000D01*
X171060000Y-70970000D02*
X171060000Y-68030000D01*
X176740000Y-69500000D02*
X175720000Y-69500000D01*
X175720000Y-68030000D02*
X175720000Y-70970000D01*
X170280000Y-70970000D02*
X170280000Y-68030000D01*
%TO.C,Solarcon1*%
X177460000Y-77190000D02*
X187620000Y-77190000D01*
X187620000Y-77190000D02*
X187620000Y-84810000D01*
X187620000Y-84810000D02*
X177460000Y-84810000D01*
X187620000Y-78460000D02*
X177460000Y-78460000D01*
X177460000Y-84810000D02*
X177460000Y-77190000D01*
%TD*%
M02*
