%TF.GenerationSoftware,KiCad,Pcbnew,(6.0.4)*%
%TF.CreationDate,2022-04-08T13:10:09+02:00*%
%TF.ProjectId,TeaSpike v1,54656153-7069-46b6-9520-76312e6b6963,rev?*%
%TF.SameCoordinates,Original*%
%TF.FileFunction,Copper,L1,Top*%
%TF.FilePolarity,Positive*%
%FSLAX46Y46*%
G04 Gerber Fmt 4.6, Leading zero omitted, Abs format (unit mm)*
G04 Created by KiCad (PCBNEW (6.0.4)) date 2022-04-08 13:10:09*
%MOMM*%
%LPD*%
G01*
G04 APERTURE LIST*
G04 Aperture macros list*
%AMRoundRect*
0 Rectangle with rounded corners*
0 $1 Rounding radius*
0 $2 $3 $4 $5 $6 $7 $8 $9 X,Y pos of 4 corners*
0 Add a 4 corners polygon primitive as box body*
4,1,4,$2,$3,$4,$5,$6,$7,$8,$9,$2,$3,0*
0 Add four circle primitives for the rounded corners*
1,1,$1+$1,$2,$3*
1,1,$1+$1,$4,$5*
1,1,$1+$1,$6,$7*
1,1,$1+$1,$8,$9*
0 Add four rect primitives between the rounded corners*
20,1,$1+$1,$2,$3,$4,$5,0*
20,1,$1+$1,$4,$5,$6,$7,0*
20,1,$1+$1,$6,$7,$8,$9,0*
20,1,$1+$1,$8,$9,$2,$3,0*%
G04 Aperture macros list end*
%TA.AperFunction,ComponentPad*%
%ADD10RoundRect,0.250000X-0.600000X-0.725000X0.600000X-0.725000X0.600000X0.725000X-0.600000X0.725000X0*%
%TD*%
%TA.AperFunction,ComponentPad*%
%ADD11O,1.700000X1.950000*%
%TD*%
%TA.AperFunction,ComponentPad*%
%ADD12C,1.600000*%
%TD*%
%TA.AperFunction,ComponentPad*%
%ADD13O,1.600000X1.600000*%
%TD*%
%TA.AperFunction,ComponentPad*%
%ADD14R,1.700000X1.700000*%
%TD*%
%TA.AperFunction,ComponentPad*%
%ADD15O,1.700000X1.700000*%
%TD*%
%TA.AperFunction,ComponentPad*%
%ADD16R,1.560000X1.560000*%
%TD*%
%TA.AperFunction,ComponentPad*%
%ADD17C,1.560000*%
%TD*%
%TA.AperFunction,ComponentPad*%
%ADD18C,1.524000*%
%TD*%
%TA.AperFunction,ComponentPad*%
%ADD19RoundRect,0.250000X-0.725000X0.600000X-0.725000X-0.600000X0.725000X-0.600000X0.725000X0.600000X0*%
%TD*%
%TA.AperFunction,ComponentPad*%
%ADD20O,1.950000X1.700000*%
%TD*%
%TA.AperFunction,ComponentPad*%
%ADD21R,1.400000X1.400000*%
%TD*%
%TA.AperFunction,ComponentPad*%
%ADD22C,1.400000*%
%TD*%
%TA.AperFunction,ComponentPad*%
%ADD23R,3.000000X3.000000*%
%TD*%
%TA.AperFunction,ComponentPad*%
%ADD24C,3.000000*%
%TD*%
%TA.AperFunction,ComponentPad*%
%ADD25C,1.540000*%
%TD*%
%TA.AperFunction,ComponentPad*%
%ADD26R,2.200000X2.200000*%
%TD*%
%TA.AperFunction,ComponentPad*%
%ADD27O,2.200000X2.200000*%
%TD*%
%TA.AperFunction,ViaPad*%
%ADD28C,0.800000*%
%TD*%
%TA.AperFunction,Conductor*%
%ADD29C,0.250000*%
%TD*%
%TA.AperFunction,Conductor*%
%ADD30C,1.400000*%
%TD*%
G04 APERTURE END LIST*
D10*
%TO.P,DISPLAYcon1,1,Pin_1*%
%TO.N,3V3*%
X142750000Y-58200000D03*
D11*
%TO.P,DISPLAYcon1,2,Pin_2*%
%TO.N,GND*%
X145250000Y-58200000D03*
%TO.P,DISPLAYcon1,3,Pin_3*%
%TO.N,SCL*%
X147750000Y-58200000D03*
%TO.P,DISPLAYcon1,4,Pin_4*%
%TO.N,SDA*%
X150250000Y-58200000D03*
%TD*%
D12*
%TO.P,R1,1*%
%TO.N,Net-(JP1-Pad2)*%
X144000000Y-129810000D03*
D13*
%TO.P,R1,2*%
%TO.N,LowBatt*%
X144000000Y-122190000D03*
%TD*%
D14*
%TO.P,SoilMoisturecon1,1,Pin_1*%
%TO.N,GND*%
X105000000Y-112475000D03*
D15*
%TO.P,SoilMoisturecon1,2,Pin_2*%
%TO.N,3V3*%
X105000000Y-115015000D03*
%TO.P,SoilMoisturecon1,3,Pin_3*%
%TO.N,SoilMoisture*%
X105000000Y-117555000D03*
%TD*%
D16*
%TO.P,ESP32,1,3V3*%
%TO.N,3V3*%
X108300000Y-55740000D03*
D17*
%TO.P,ESP32,2,EN*%
%TO.N,EN*%
X108300000Y-58280000D03*
%TO.P,ESP32,3,SENSOR_VP*%
%TO.N,unconnected-(ESP32-Pad3)*%
X108300000Y-60820000D03*
%TO.P,ESP32,4,SENSOR_VN*%
%TO.N,unconnected-(ESP32-Pad4)*%
X108300000Y-63360000D03*
%TO.P,ESP32,5,IO34*%
%TO.N,unconnected-(ESP32-Pad5)*%
X108300000Y-65900000D03*
%TO.P,ESP32,6,IO35*%
%TO.N,SoilMoisture*%
X108300000Y-68440000D03*
%TO.P,ESP32,7,IO32*%
%TO.N,unconnected-(ESP32-Pad7)*%
X108300000Y-70980000D03*
%TO.P,ESP32,8,IO33*%
%TO.N,unconnected-(ESP32-Pad8)*%
X108300000Y-73520000D03*
%TO.P,ESP32,9,IO25*%
%TO.N,unconnected-(ESP32-Pad9)*%
X108300000Y-76060000D03*
%TO.P,ESP32,10,IO26*%
%TO.N,unconnected-(ESP32-Pad10)*%
X108300000Y-78600000D03*
%TO.P,ESP32,11,IO27*%
%TO.N,LowBatt*%
X108300000Y-81140000D03*
%TO.P,ESP32,12,IO14*%
%TO.N,OneWire*%
X108300000Y-83680000D03*
%TO.P,ESP32,13,IO12*%
%TO.N,unconnected-(ESP32-Pad13)*%
X108300000Y-86220000D03*
%TO.P,ESP32,14,GND1*%
%TO.N,GND*%
X108300000Y-88760000D03*
%TO.P,ESP32,15,IO13*%
%TO.N,LEDSTRIPE*%
X108300000Y-91300000D03*
%TO.P,ESP32,16,SD2*%
%TO.N,unconnected-(ESP32-Pad16)*%
X108300000Y-93840000D03*
%TO.P,ESP32,17,SD3*%
%TO.N,unconnected-(ESP32-Pad17)*%
X108300000Y-96380000D03*
%TO.P,ESP32,18,CMD*%
%TO.N,unconnected-(ESP32-Pad18)*%
X108300000Y-98920000D03*
%TO.P,ESP32,19,EXT_5V*%
%TO.N,5V*%
X108300000Y-101460000D03*
%TO.P,ESP32,20,GND3*%
%TO.N,unconnected-(ESP32-Pad20)*%
X133700000Y-55740000D03*
%TO.P,ESP32,21,IO23*%
%TO.N,MOSI*%
X133700000Y-58280000D03*
%TO.P,ESP32,22,IO22*%
%TO.N,SCL*%
X133700000Y-60820000D03*
%TO.P,ESP32,23,TXD0*%
%TO.N,unconnected-(ESP32-Pad23)*%
X133700000Y-63360000D03*
%TO.P,ESP32,24,RXD0*%
%TO.N,unconnected-(ESP32-Pad24)*%
X133700000Y-65900000D03*
%TO.P,ESP32,25,IO21*%
%TO.N,SDA*%
X133700000Y-68440000D03*
%TO.P,ESP32,26,GND2*%
%TO.N,unconnected-(ESP32-Pad26)*%
X133700000Y-70980000D03*
%TO.P,ESP32,27,IO19*%
%TO.N,MISO*%
X133700000Y-73520000D03*
%TO.P,ESP32,28,IO18*%
%TO.N,SCK*%
X133700000Y-76060000D03*
%TO.P,ESP32,29,IO5*%
%TO.N,SDcs*%
X133700000Y-78600000D03*
%TO.P,ESP32,30,IO17*%
%TO.N,unconnected-(ESP32-Pad30)*%
X133700000Y-81140000D03*
%TO.P,ESP32,31,IO16*%
%TO.N,unconnected-(ESP32-Pad31)*%
X133700000Y-83680000D03*
%TO.P,ESP32,32,IO4*%
%TO.N,NEOPIXEL*%
X133700000Y-86220000D03*
%TO.P,ESP32,33,IO0*%
%TO.N,unconnected-(ESP32-Pad33)*%
X133700000Y-88760000D03*
%TO.P,ESP32,34,IO2*%
%TO.N,unconnected-(ESP32-Pad34)*%
X133700000Y-91300000D03*
%TO.P,ESP32,35,IO15*%
%TO.N,unconnected-(ESP32-Pad35)*%
X133700000Y-93840000D03*
%TO.P,ESP32,36,SD1*%
%TO.N,unconnected-(ESP32-Pad36)*%
X133700000Y-96380000D03*
%TO.P,ESP32,37,SD0*%
%TO.N,unconnected-(ESP32-Pad37)*%
X133700000Y-98920000D03*
%TO.P,ESP32,38,CLK*%
%TO.N,unconnected-(ESP32-Pad38)*%
X133700000Y-101460000D03*
%TD*%
D14*
%TO.P,JP1,1,A*%
%TO.N,Net-(JP1-Pad1)*%
X133000000Y-124750000D03*
D15*
%TO.P,JP1,2,B*%
%TO.N,Net-(JP1-Pad2)*%
X133000000Y-127290000D03*
%TD*%
D14*
%TO.P,I2Ccon1,1,Pin_1*%
%TO.N,3V3*%
X160525000Y-59700000D03*
D15*
%TO.P,I2Ccon1,2,Pin_2*%
%TO.N,GND*%
X160525000Y-62240000D03*
%TO.P,I2Ccon1,3,Pin_3*%
%TO.N,SCL*%
X160525000Y-64780000D03*
%TO.P,I2Ccon1,4,Pin_4*%
%TO.N,SDA*%
X160525000Y-67320000D03*
%TD*%
D14*
%TO.P,PowerSupplycon1,1,Pin_1*%
%TO.N,5V*%
X148025000Y-97025000D03*
D15*
%TO.P,PowerSupplycon1,2,Pin_2*%
%TO.N,3V3*%
X145485000Y-97025000D03*
%TO.P,PowerSupplycon1,3,Pin_3*%
%TO.N,GND*%
X142945000Y-97025000D03*
%TD*%
D18*
%TO.P,U_RTC1,1,32K*%
%TO.N,unconnected-(U_RTC1-Pad1)*%
X167150000Y-51500000D03*
%TO.P,U_RTC1,2,SQW*%
%TO.N,unconnected-(U_RTC1-Pad2)*%
X169690000Y-51500000D03*
%TO.P,U_RTC1,3,SCL*%
%TO.N,SCL*%
X172230000Y-51500000D03*
%TO.P,U_RTC1,4,SDA*%
%TO.N,SDA*%
X174770000Y-51500000D03*
%TO.P,U_RTC1,5,VCC*%
%TO.N,3V3*%
X177310000Y-51500000D03*
%TO.P,U_RTC1,6,GND*%
%TO.N,GND*%
X179850000Y-51500000D03*
%TD*%
D10*
%TO.P,LEDSTRIPEcon1,1,Pin_1*%
%TO.N,GND*%
X142500000Y-72500000D03*
D11*
%TO.P,LEDSTRIPEcon1,2,Pin_2*%
%TO.N,LEDSTRIPE*%
X145000000Y-72500000D03*
%TO.P,LEDSTRIPEcon1,3,Pin_3*%
%TO.N,5V*%
X147500000Y-72500000D03*
%TO.P,LEDSTRIPEcon1,4,Pin_4*%
%TO.N,GND*%
X150000000Y-72500000D03*
%TD*%
D10*
%TO.P,VEML7700con1,1,Pin_1*%
%TO.N,3V3*%
X142750000Y-65000000D03*
D11*
%TO.P,VEML7700con1,2,Pin_2*%
%TO.N,GND*%
X145250000Y-65000000D03*
%TO.P,VEML7700con1,3,Pin_3*%
%TO.N,SCL*%
X147750000Y-65000000D03*
%TO.P,VEML7700con1,4,Pin_4*%
%TO.N,SDA*%
X150250000Y-65000000D03*
%TD*%
D12*
%TO.P,RTemp2,1*%
%TO.N,5V*%
X153300000Y-118810000D03*
D13*
%TO.P,RTemp2,2*%
%TO.N,OneWire*%
X153300000Y-111190000D03*
%TD*%
D12*
%TO.P,RTemp1,1*%
%TO.N,5V*%
X175500000Y-118310000D03*
D13*
%TO.P,RTemp1,2*%
%TO.N,OneWire*%
X175500000Y-110690000D03*
%TD*%
D19*
%TO.P,TempProbe1,1,Pin_1*%
%TO.N,GND*%
X160300000Y-112500000D03*
D20*
%TO.P,TempProbe1,2,Pin_2*%
%TO.N,OneWire*%
X160300000Y-115000000D03*
%TO.P,TempProbe1,3,Pin_3*%
%TO.N,5V*%
X160300000Y-117500000D03*
%TD*%
D12*
%TO.P,R2,1*%
%TO.N,Net-(JP1-Pad2)*%
X138000000Y-129810000D03*
D13*
%TO.P,R2,2*%
%TO.N,Net-(R2-Pad2)*%
X138000000Y-122190000D03*
%TD*%
D21*
%TO.P,SW_POWER,1,A*%
%TO.N,Net-(SW1-Pad1)*%
X150592500Y-127475000D03*
D22*
%TO.P,SW_POWER,2,B*%
%TO.N,Net-(Batterycon1-Pad1)*%
X153092500Y-127475000D03*
%TO.P,SW_POWER,3,C*%
%TO.N,Net-(SW1-Pad3)*%
X155592500Y-127475000D03*
%TO.P,SW_POWER,4*%
%TO.N,N/C*%
X150592500Y-130775000D03*
%TO.P,SW_POWER,5*%
X153092500Y-130775000D03*
%TO.P,SW_POWER,6*%
X155592500Y-130775000D03*
%TD*%
D14*
%TO.P,NEOPIXELcon1,1,Pin_1*%
%TO.N,5V*%
X146500000Y-87500000D03*
D15*
%TO.P,NEOPIXELcon1,2,Pin_2*%
%TO.N,NEOPIXEL*%
X143960000Y-87500000D03*
%TO.P,NEOPIXELcon1,3,Pin_3*%
%TO.N,unconnected-(NEOPIXELcon1-Pad3)*%
X146500000Y-90040000D03*
%TO.P,NEOPIXELcon1,4,Pin_4*%
%TO.N,GND*%
X143960000Y-90040000D03*
%TD*%
D10*
%TO.P,SCD30con1,1,Pin_1*%
%TO.N,3V3*%
X142750000Y-51700000D03*
D11*
%TO.P,SCD30con1,2,Pin_2*%
%TO.N,GND*%
X145250000Y-51700000D03*
%TO.P,SCD30con1,3,Pin_3*%
%TO.N,SCL*%
X147750000Y-51700000D03*
%TO.P,SCD30con1,4,Pin_4*%
%TO.N,SDA*%
X150250000Y-51700000D03*
%TO.P,SCD30con1,5,Pin_5*%
%TO.N,RDYscd30*%
X152750000Y-51700000D03*
%TD*%
D19*
%TO.P,TempProbe2,1,Pin_1*%
%TO.N,GND*%
X169800000Y-112500000D03*
D20*
%TO.P,TempProbe2,2,Pin_2*%
%TO.N,OneWire*%
X169800000Y-115000000D03*
%TO.P,TempProbe2,3,Pin_3*%
%TO.N,5V*%
X169800000Y-117500000D03*
%TD*%
D23*
%TO.P,Batterycon1,1,Pin_1*%
%TO.N,Net-(Batterycon1-Pad1)*%
X167920000Y-81000000D03*
D24*
%TO.P,Batterycon1,2,Pin_2*%
%TO.N,Net-(Batterycon1-Pad2)*%
X173000000Y-81000000D03*
%TD*%
D25*
%TO.P,U2,3,BAT*%
%TO.N,Net-(SW1-Pad1)*%
X112450000Y-62200000D03*
%TO.P,U2,4,GND*%
%TO.N,Net-(Batterycon1-Pad2)*%
X112450000Y-64740000D03*
%TO.P,U2,5,EN*%
%TO.N,unconnected-(U2-Pad5)*%
X112450000Y-67280000D03*
%TO.P,U2,6,LB*%
%TO.N,Net-(JP1-Pad1)*%
X112450000Y-69820000D03*
%TO.P,U2,7,GND*%
%TO.N,Net-(R2-Pad2)*%
X112450000Y-72360000D03*
%TO.P,U2,8,5V*%
%TO.N,unconnected-(U2-Pad8)*%
X112450000Y-74900000D03*
%TD*%
D24*
%TO.P,U1,1,IN+*%
%TO.N,Net-(D1-Pad1)*%
X155810000Y-67995000D03*
%TO.P,U1,2,IN-*%
%TO.N,Net-(Solarcon1-Pad1)*%
X155810000Y-81995000D03*
%TO.P,U1,3,BAT+*%
%TO.N,Net-(SW1-Pad3)*%
X137810000Y-67995000D03*
%TO.P,U1,4,BAT-*%
%TO.N,Net-(Batterycon1-Pad2)*%
X137810000Y-81995000D03*
%TD*%
D18*
%TO.P,U_SD1,6,GND*%
%TO.N,GND*%
X167205000Y-91155000D03*
%TO.P,U_SD1,5,VCC*%
%TO.N,5V*%
X169745000Y-91155000D03*
%TO.P,U_SD1,4,MISO*%
%TO.N,MISO*%
X172285000Y-91155000D03*
%TO.P,U_SD1,3,MOSI*%
%TO.N,MOSI*%
X174825000Y-91155000D03*
%TO.P,U_SD1,2,SCK*%
%TO.N,SCK*%
X177365000Y-91155000D03*
%TO.P,U_SD1,1,CS*%
%TO.N,SDcs*%
X179905000Y-91155000D03*
%TD*%
D26*
%TO.P,D1,1,K*%
%TO.N,Net-(D1-Pad1)*%
X167920000Y-69500000D03*
D27*
%TO.P,D1,2,A*%
%TO.N,Net-(D1-Pad2)*%
X178080000Y-69500000D03*
%TD*%
D23*
%TO.P,Solarcon1,1,Pin_1*%
%TO.N,Net-(Solarcon1-Pad1)*%
X180000000Y-81000000D03*
D24*
%TO.P,Solarcon1,2,Pin_2*%
%TO.N,Net-(D1-Pad2)*%
X185080000Y-81000000D03*
%TD*%
D28*
%TO.N,5V*%
X146500000Y-79465500D03*
%TO.N,LEDSTRIPE*%
X137020100Y-71174000D03*
%TO.N,OneWire*%
X125600000Y-92974500D03*
%TD*%
D29*
%TO.N,3V3*%
X117800000Y-61800000D02*
X117800000Y-54500000D01*
X123300000Y-67300000D02*
X117800000Y-61800000D01*
X117800000Y-54500000D02*
X121400000Y-54500000D01*
X110645300Y-54500000D02*
X117800000Y-54500000D01*
X143068250Y-94608250D02*
X145485000Y-97025000D01*
X141391750Y-94608250D02*
X143068250Y-94608250D01*
X133000000Y-87500000D02*
X134283500Y-87500000D01*
X123300000Y-67300000D02*
X132200000Y-76200000D01*
X132200000Y-76200000D02*
X132200000Y-86700000D01*
X132200000Y-86700000D02*
X133000000Y-87500000D01*
X134283500Y-87500000D02*
X141391750Y-94608250D01*
D30*
%TO.N,Net-(SW1-Pad1)*%
X150592500Y-123122000D02*
X150592500Y-127475000D01*
X130920500Y-103450000D02*
X150592500Y-123122000D01*
X113600000Y-62200000D02*
X130920500Y-79520500D01*
X130920500Y-79520500D02*
X130920500Y-103450000D01*
X112450000Y-62200000D02*
X113600000Y-62200000D01*
D29*
%TO.N,Net-(D1-Pad1)*%
X167920000Y-69500000D02*
X157315000Y-69500000D01*
X157315000Y-69500000D02*
X155810000Y-67995000D01*
%TO.N,3V3*%
X142750000Y-58200000D02*
X144058100Y-56891900D01*
X142750000Y-54850000D02*
X144425000Y-56525000D01*
X144058100Y-56891900D02*
X144450000Y-56500000D01*
X144425000Y-56525000D02*
X144058100Y-56891900D01*
X144450000Y-56500000D02*
X156149700Y-56500000D01*
X156149700Y-56500000D02*
X159349700Y-59700000D01*
X159349700Y-59700000D02*
X160525000Y-59700000D01*
X132122600Y-56122600D02*
X132100000Y-56145200D01*
X121400000Y-54500000D02*
X130500000Y-54500000D01*
X141550000Y-57000000D02*
X133000000Y-57000000D01*
X142750000Y-58200000D02*
X141550000Y-57000000D01*
X130500000Y-54500000D02*
X132122600Y-56122600D01*
X109405300Y-55740000D02*
X110645300Y-54500000D01*
X177310000Y-51500000D02*
X169110000Y-59700000D01*
X108300000Y-55740000D02*
X109405300Y-55740000D01*
X133000000Y-57000000D02*
X132122600Y-56122600D01*
X169110000Y-59700000D02*
X160525000Y-59700000D01*
X142750000Y-51700000D02*
X142750000Y-54850000D01*
%TO.N,GND*%
X169110000Y-62240000D02*
X160525000Y-62240000D01*
X145970000Y-92050000D02*
X143960000Y-90040000D01*
X167205000Y-91155000D02*
X166310000Y-92050000D01*
X166310000Y-92050000D02*
X145970000Y-92050000D01*
X179850000Y-51500000D02*
X169110000Y-62240000D01*
%TO.N,SCL*%
X144468900Y-60820000D02*
X144170000Y-60820000D01*
X145300000Y-60650000D02*
X145100000Y-60850000D01*
X147750000Y-63699700D02*
X158269400Y-63699700D01*
X144170000Y-60820000D02*
X144870300Y-60820000D01*
X145050150Y-60999850D02*
X147750000Y-63699700D01*
X144170000Y-60820000D02*
X133700000Y-60820000D01*
X144170000Y-60820000D02*
X145130000Y-60820000D01*
X147750000Y-63812300D02*
X147750000Y-63699700D01*
X160525000Y-64780000D02*
X159349700Y-64780000D01*
X158269400Y-63699700D02*
X159349700Y-64780000D01*
X144870300Y-60820000D02*
X145050150Y-60999850D01*
X147750000Y-58200000D02*
X145300000Y-60650000D01*
X145130000Y-60820000D02*
X145300000Y-60650000D01*
X145100000Y-60850000D02*
X144900000Y-60850000D01*
X147750000Y-65000000D02*
X147750000Y-63812300D01*
%TO.N,SDA*%
X136440000Y-65700000D02*
X133700000Y-68440000D01*
X148050000Y-67200000D02*
X141650000Y-67200000D01*
X157029700Y-65000000D02*
X159349700Y-67320000D01*
X150250000Y-65000000D02*
X148050000Y-67200000D01*
X140150000Y-65700000D02*
X136440000Y-65700000D01*
X141650000Y-67200000D02*
X140150000Y-65700000D01*
X150250000Y-65000000D02*
X157029700Y-65000000D01*
X160525000Y-67320000D02*
X159349700Y-67320000D01*
%TO.N,5V*%
X154610000Y-117500000D02*
X153300000Y-118810000D01*
X147500000Y-78465500D02*
X146500000Y-79465500D01*
X169745000Y-91155000D02*
X163875000Y-97025000D01*
X152108200Y-97025000D02*
X148025000Y-97025000D01*
X147500000Y-72500000D02*
X147500000Y-78465500D01*
X151500000Y-97633200D02*
X151500000Y-114390000D01*
X169800000Y-117500000D02*
X160300000Y-117500000D01*
X152108200Y-97025000D02*
X151500000Y-97633200D01*
X163875000Y-97025000D02*
X152108200Y-97025000D01*
X151500000Y-114390000D02*
X154610000Y-117500000D01*
X160300000Y-117500000D02*
X154610000Y-117500000D01*
%TO.N,LEDSTRIPE*%
X143200000Y-70700000D02*
X145000000Y-72500000D01*
X137494100Y-70700000D02*
X143200000Y-70700000D01*
X137020100Y-71174000D02*
X137494100Y-70700000D01*
%TO.N,OneWire*%
X125576400Y-92998100D02*
X117618100Y-92998100D01*
X117618100Y-92998100D02*
X108300000Y-83680000D01*
X171200000Y-115000000D02*
X169800000Y-115000000D01*
X125600000Y-92974500D02*
X125576400Y-92998100D01*
X160300000Y-115000000D02*
X158235300Y-115000000D01*
X158235300Y-115000000D02*
X154425300Y-111190000D01*
X175500000Y-110690000D02*
X175500000Y-110700000D01*
X153300000Y-111190000D02*
X154425300Y-111190000D01*
X175500000Y-110700000D02*
X171200000Y-115000000D01*
X169800000Y-115000000D02*
X160300000Y-115000000D01*
%TO.N,LowBatt*%
X108300000Y-81140000D02*
X106400000Y-83040000D01*
X107530000Y-90030000D02*
X108730000Y-90030000D01*
X106400000Y-88900000D02*
X107530000Y-90030000D01*
X134500000Y-120700000D02*
X137500000Y-123700000D01*
X142874700Y-122190000D02*
X144000000Y-122190000D01*
X108730000Y-90030000D02*
X134500000Y-115800000D01*
X141364700Y-123700000D02*
X142874700Y-122190000D01*
X134500000Y-115800000D02*
X134500000Y-120700000D01*
X106400000Y-83040000D02*
X106400000Y-88900000D01*
X137500000Y-123700000D02*
X141364700Y-123700000D01*
%TO.N,SoilMoisture*%
X107100000Y-115455000D02*
X105000000Y-117555000D01*
X107100000Y-108149400D02*
X107100000Y-115455000D01*
X105000000Y-71740000D02*
X105000000Y-106049400D01*
X108300000Y-68440000D02*
X105000000Y-71740000D01*
X105000000Y-106049400D02*
X107100000Y-108149400D01*
%TO.N,NEOPIXEL*%
X143960000Y-87500000D02*
X134980000Y-87500000D01*
X134980000Y-87500000D02*
X133700000Y-86220000D01*
%TO.N,SDcs*%
X172650000Y-93650000D02*
X171015000Y-92015000D01*
X151192900Y-88830900D02*
X140962000Y-78600000D01*
X140962000Y-78600000D02*
X133700000Y-78600000D01*
X177410000Y-93650000D02*
X172650000Y-93650000D01*
X171015000Y-90520718D02*
X169325182Y-88830900D01*
X179905000Y-91155000D02*
X177410000Y-93650000D01*
X171015000Y-92015000D02*
X171015000Y-90520718D01*
X169325182Y-88830900D02*
X151192900Y-88830900D01*
%TO.N,SCK*%
X133000000Y-72300000D02*
X136021500Y-72300000D01*
X132300000Y-74660000D02*
X132300000Y-73000000D01*
X174250000Y-92750000D02*
X175770000Y-92750000D01*
X133700000Y-76060000D02*
X132300000Y-74660000D01*
X132300000Y-73000000D02*
X133000000Y-72300000D01*
X173555000Y-90605000D02*
X173555000Y-92055000D01*
X175770000Y-92750000D02*
X177365000Y-91155000D01*
X148932200Y-85210700D02*
X168160700Y-85210700D01*
X173555000Y-92055000D02*
X174250000Y-92750000D01*
X168160700Y-85210700D02*
X173555000Y-90605000D01*
X136021500Y-72300000D02*
X148932200Y-85210700D01*
%TO.N,MISO*%
X172285000Y-90735000D02*
X168557100Y-87007100D01*
X168557100Y-87007100D02*
X150006000Y-87007100D01*
X172285000Y-91155000D02*
X172285000Y-90735000D01*
X136518900Y-73520000D02*
X133700000Y-73520000D01*
X150006000Y-87007100D02*
X136518900Y-73520000D01*
%TO.N,MOSI*%
X148883100Y-84224500D02*
X168324500Y-84224500D01*
X133700000Y-58280000D02*
X132100000Y-59880000D01*
X134368600Y-69710000D02*
X148883100Y-84224500D01*
X133110000Y-69710000D02*
X134368600Y-69710000D01*
X168324500Y-84224500D02*
X174825000Y-90725000D01*
X174825000Y-90725000D02*
X174825000Y-91155000D01*
X132100000Y-59880000D02*
X132100000Y-68700000D01*
X132100000Y-68700000D02*
X133110000Y-69710000D01*
%TO.N,Net-(Solarcon1-Pad1)*%
X176348600Y-82826100D02*
X156641100Y-82826100D01*
X180000000Y-81000000D02*
X178174700Y-81000000D01*
X156641100Y-82826100D02*
X155810000Y-81995000D01*
X178174700Y-81000000D02*
X176348600Y-82826100D01*
%TO.N,Net-(JP1-Pad2)*%
X136695300Y-129810000D02*
X134175300Y-127290000D01*
X133000000Y-127290000D02*
X134175300Y-127290000D01*
X138000000Y-129810000D02*
X136695300Y-129810000D01*
X144000000Y-129810000D02*
X138000000Y-129810000D01*
%TO.N,Net-(JP1-Pad1)*%
X105700000Y-79100000D02*
X107470000Y-77330000D01*
X133000000Y-116700000D02*
X108870000Y-92570000D01*
X111005400Y-71264600D02*
X112450000Y-69820000D01*
X107470000Y-77330000D02*
X108870000Y-77330000D01*
X108870000Y-92570000D02*
X107929800Y-92570000D01*
X133000000Y-124750000D02*
X133000000Y-116700000D01*
X111005400Y-75194600D02*
X111005400Y-71264600D01*
X105700000Y-90340200D02*
X105700000Y-79100000D01*
X108870000Y-77330000D02*
X111005400Y-75194600D01*
X107929800Y-92570000D02*
X105700000Y-90340200D01*
%TO.N,Net-(R2-Pad2)*%
X127950000Y-106501200D02*
X129699400Y-108250600D01*
X112450000Y-72360000D02*
X127950000Y-87860000D01*
X129699400Y-108250600D02*
X129699400Y-108299400D01*
X138000000Y-116600000D02*
X138000000Y-122190000D01*
X127950000Y-87860000D02*
X127950000Y-106501200D01*
X129699400Y-108299400D02*
X138000000Y-116600000D01*
%TD*%
M02*
