%TF.GenerationSoftware,KiCad,Pcbnew,(6.0.4)*%
%TF.CreationDate,2022-04-08T13:10:10+02:00*%
%TF.ProjectId,TeaSpike v1,54656153-7069-46b6-9520-76312e6b6963,rev?*%
%TF.SameCoordinates,Original*%
%TF.FileFunction,Legend,Top*%
%TF.FilePolarity,Positive*%
%FSLAX46Y46*%
G04 Gerber Fmt 4.6, Leading zero omitted, Abs format (unit mm)*
G04 Created by KiCad (PCBNEW (6.0.4)) date 2022-04-08 13:10:10*
%MOMM*%
%LPD*%
G01*
G04 APERTURE LIST*
%ADD10C,0.200000*%
%ADD11C,0.300000*%
%ADD12C,0.150000*%
%ADD13C,0.120000*%
%ADD14C,0.127000*%
G04 APERTURE END LIST*
D10*
X159438095Y-130652380D02*
X159438095Y-131461904D01*
X159485714Y-131557142D01*
X159533333Y-131604761D01*
X159628571Y-131652380D01*
X159819047Y-131652380D01*
X159914285Y-131604761D01*
X159961904Y-131557142D01*
X160009523Y-131461904D01*
X160009523Y-130652380D01*
X160485714Y-130985714D02*
X160485714Y-131652380D01*
X160485714Y-131080952D02*
X160533333Y-131033333D01*
X160628571Y-130985714D01*
X160771428Y-130985714D01*
X160866666Y-131033333D01*
X160914285Y-131128571D01*
X160914285Y-131652380D01*
X161390476Y-131652380D02*
X161390476Y-130985714D01*
X161390476Y-130652380D02*
X161342857Y-130700000D01*
X161390476Y-130747619D01*
X161438095Y-130700000D01*
X161390476Y-130652380D01*
X161390476Y-130747619D01*
X161771428Y-130985714D02*
X162009523Y-131652380D01*
X162247619Y-130985714D01*
X163009523Y-131604761D02*
X162914285Y-131652380D01*
X162723809Y-131652380D01*
X162628571Y-131604761D01*
X162580952Y-131509523D01*
X162580952Y-131128571D01*
X162628571Y-131033333D01*
X162723809Y-130985714D01*
X162914285Y-130985714D01*
X163009523Y-131033333D01*
X163057142Y-131128571D01*
X163057142Y-131223809D01*
X162580952Y-131319047D01*
X163485714Y-131652380D02*
X163485714Y-130985714D01*
X163485714Y-131176190D02*
X163533333Y-131080952D01*
X163580952Y-131033333D01*
X163676190Y-130985714D01*
X163771428Y-130985714D01*
X164057142Y-131604761D02*
X164152380Y-131652380D01*
X164342857Y-131652380D01*
X164438095Y-131604761D01*
X164485714Y-131509523D01*
X164485714Y-131461904D01*
X164438095Y-131366666D01*
X164342857Y-131319047D01*
X164200000Y-131319047D01*
X164104761Y-131271428D01*
X164057142Y-131176190D01*
X164057142Y-131128571D01*
X164104761Y-131033333D01*
X164200000Y-130985714D01*
X164342857Y-130985714D01*
X164438095Y-131033333D01*
X164914285Y-131652380D02*
X164914285Y-130985714D01*
X164914285Y-130652380D02*
X164866666Y-130700000D01*
X164914285Y-130747619D01*
X164961904Y-130700000D01*
X164914285Y-130652380D01*
X164914285Y-130747619D01*
X165819047Y-131652380D02*
X165819047Y-130652380D01*
X165819047Y-131604761D02*
X165723809Y-131652380D01*
X165533333Y-131652380D01*
X165438095Y-131604761D01*
X165390476Y-131557142D01*
X165342857Y-131461904D01*
X165342857Y-131176190D01*
X165390476Y-131080952D01*
X165438095Y-131033333D01*
X165533333Y-130985714D01*
X165723809Y-130985714D01*
X165819047Y-131033333D01*
X166723809Y-131652380D02*
X166723809Y-131128571D01*
X166676190Y-131033333D01*
X166580952Y-130985714D01*
X166390476Y-130985714D01*
X166295238Y-131033333D01*
X166723809Y-131604761D02*
X166628571Y-131652380D01*
X166390476Y-131652380D01*
X166295238Y-131604761D01*
X166247619Y-131509523D01*
X166247619Y-131414285D01*
X166295238Y-131319047D01*
X166390476Y-131271428D01*
X166628571Y-131271428D01*
X166723809Y-131223809D01*
X167628571Y-131652380D02*
X167628571Y-130652380D01*
X167628571Y-131604761D02*
X167533333Y-131652380D01*
X167342857Y-131652380D01*
X167247619Y-131604761D01*
X167200000Y-131557142D01*
X167152380Y-131461904D01*
X167152380Y-131176190D01*
X167200000Y-131080952D01*
X167247619Y-131033333D01*
X167342857Y-130985714D01*
X167533333Y-130985714D01*
X167628571Y-131033333D01*
X168866666Y-131652380D02*
X168866666Y-130652380D01*
X169247619Y-130652380D01*
X169342857Y-130700000D01*
X169390476Y-130747619D01*
X169438095Y-130842857D01*
X169438095Y-130985714D01*
X169390476Y-131080952D01*
X169342857Y-131128571D01*
X169247619Y-131176190D01*
X168866666Y-131176190D01*
X170009523Y-131652380D02*
X169914285Y-131604761D01*
X169866666Y-131557142D01*
X169819047Y-131461904D01*
X169819047Y-131176190D01*
X169866666Y-131080952D01*
X169914285Y-131033333D01*
X170009523Y-130985714D01*
X170152380Y-130985714D01*
X170247619Y-131033333D01*
X170295238Y-131080952D01*
X170342857Y-131176190D01*
X170342857Y-131461904D01*
X170295238Y-131557142D01*
X170247619Y-131604761D01*
X170152380Y-131652380D01*
X170009523Y-131652380D01*
X170914285Y-131652380D02*
X170819047Y-131604761D01*
X170771428Y-131509523D01*
X170771428Y-130652380D01*
X171295238Y-131652380D02*
X171295238Y-130985714D01*
X171295238Y-130652380D02*
X171247619Y-130700000D01*
X171295238Y-130747619D01*
X171342857Y-130700000D01*
X171295238Y-130652380D01*
X171295238Y-130747619D01*
X171628571Y-130985714D02*
X172009523Y-130985714D01*
X171771428Y-130652380D02*
X171771428Y-131509523D01*
X171819047Y-131604761D01*
X171914285Y-131652380D01*
X172009523Y-131652380D01*
X172723809Y-131604761D02*
X172628571Y-131652380D01*
X172438095Y-131652380D01*
X172342857Y-131604761D01*
X172295238Y-131509523D01*
X172295238Y-131128571D01*
X172342857Y-131033333D01*
X172438095Y-130985714D01*
X172628571Y-130985714D01*
X172723809Y-131033333D01*
X172771428Y-131128571D01*
X172771428Y-131223809D01*
X172295238Y-131319047D01*
X172628571Y-130604761D02*
X172485714Y-130747619D01*
X173628571Y-131604761D02*
X173533333Y-131652380D01*
X173342857Y-131652380D01*
X173247619Y-131604761D01*
X173200000Y-131557142D01*
X173152380Y-131461904D01*
X173152380Y-131176190D01*
X173200000Y-131080952D01*
X173247619Y-131033333D01*
X173342857Y-130985714D01*
X173533333Y-130985714D01*
X173628571Y-131033333D01*
X174057142Y-130985714D02*
X174057142Y-131652380D01*
X174057142Y-131080952D02*
X174104761Y-131033333D01*
X174200000Y-130985714D01*
X174342857Y-130985714D01*
X174438095Y-131033333D01*
X174485714Y-131128571D01*
X174485714Y-131652380D01*
X174961904Y-131652380D02*
X174961904Y-130985714D01*
X174961904Y-130652380D02*
X174914285Y-130700000D01*
X174961904Y-130747619D01*
X175009523Y-130700000D01*
X174961904Y-130652380D01*
X174961904Y-130747619D01*
X175866666Y-131604761D02*
X175771428Y-131652380D01*
X175580952Y-131652380D01*
X175485714Y-131604761D01*
X175438095Y-131557142D01*
X175390476Y-131461904D01*
X175390476Y-131176190D01*
X175438095Y-131080952D01*
X175485714Y-131033333D01*
X175580952Y-130985714D01*
X175771428Y-130985714D01*
X175866666Y-131033333D01*
X176723809Y-131652380D02*
X176723809Y-131128571D01*
X176676190Y-131033333D01*
X176580952Y-130985714D01*
X176390476Y-130985714D01*
X176295238Y-131033333D01*
X176723809Y-131604761D02*
X176628571Y-131652380D01*
X176390476Y-131652380D01*
X176295238Y-131604761D01*
X176247619Y-131509523D01*
X176247619Y-131414285D01*
X176295238Y-131319047D01*
X176390476Y-131271428D01*
X176628571Y-131271428D01*
X176723809Y-131223809D01*
X178390476Y-131652380D02*
X178390476Y-130652380D01*
X178390476Y-131604761D02*
X178295238Y-131652380D01*
X178104761Y-131652380D01*
X178009523Y-131604761D01*
X177961904Y-131557142D01*
X177914285Y-131461904D01*
X177914285Y-131176190D01*
X177961904Y-131080952D01*
X178009523Y-131033333D01*
X178104761Y-130985714D01*
X178295238Y-130985714D01*
X178390476Y-131033333D01*
X179247619Y-131604761D02*
X179152380Y-131652380D01*
X178961904Y-131652380D01*
X178866666Y-131604761D01*
X178819047Y-131509523D01*
X178819047Y-131128571D01*
X178866666Y-131033333D01*
X178961904Y-130985714D01*
X179152380Y-130985714D01*
X179247619Y-131033333D01*
X179295238Y-131128571D01*
X179295238Y-131223809D01*
X178819047Y-131319047D01*
X180485714Y-131652380D02*
X180485714Y-130652380D01*
X180819047Y-131366666D01*
X181152380Y-130652380D01*
X181152380Y-131652380D01*
X182057142Y-131652380D02*
X182057142Y-131128571D01*
X182009523Y-131033333D01*
X181914285Y-130985714D01*
X181723809Y-130985714D01*
X181628571Y-131033333D01*
X182057142Y-131604761D02*
X181961904Y-131652380D01*
X181723809Y-131652380D01*
X181628571Y-131604761D01*
X181580952Y-131509523D01*
X181580952Y-131414285D01*
X181628571Y-131319047D01*
X181723809Y-131271428D01*
X181961904Y-131271428D01*
X182057142Y-131223809D01*
X182961904Y-131652380D02*
X182961904Y-130652380D01*
X182961904Y-131604761D02*
X182866666Y-131652380D01*
X182676190Y-131652380D01*
X182580952Y-131604761D01*
X182533333Y-131557142D01*
X182485714Y-131461904D01*
X182485714Y-131176190D01*
X182533333Y-131080952D01*
X182580952Y-131033333D01*
X182676190Y-130985714D01*
X182866666Y-130985714D01*
X182961904Y-131033333D01*
X183438095Y-131652380D02*
X183438095Y-130985714D01*
X183438095Y-131176190D02*
X183485714Y-131080952D01*
X183533333Y-131033333D01*
X183628571Y-130985714D01*
X183723809Y-130985714D01*
X184057142Y-131652380D02*
X184057142Y-130985714D01*
X184057142Y-130652380D02*
X184009523Y-130700000D01*
X184057142Y-130747619D01*
X184104761Y-130700000D01*
X184057142Y-130652380D01*
X184057142Y-130747619D01*
X184961904Y-131652380D02*
X184961904Y-130652380D01*
X184961904Y-131604761D02*
X184866666Y-131652380D01*
X184676190Y-131652380D01*
X184580952Y-131604761D01*
X184533333Y-131557142D01*
X184485714Y-131461904D01*
X184485714Y-131176190D01*
X184533333Y-131080952D01*
X184580952Y-131033333D01*
X184676190Y-130985714D01*
X184866666Y-130985714D01*
X184961904Y-131033333D01*
D11*
X181285714Y-101099642D02*
X181500000Y-101171071D01*
X181857142Y-101171071D01*
X182000000Y-101099642D01*
X182071428Y-101028214D01*
X182142857Y-100885357D01*
X182142857Y-100742500D01*
X182071428Y-100599642D01*
X182000000Y-100528214D01*
X181857142Y-100456785D01*
X181571428Y-100385357D01*
X181428571Y-100313928D01*
X181357142Y-100242500D01*
X181285714Y-100099642D01*
X181285714Y-99956785D01*
X181357142Y-99813928D01*
X181428571Y-99742500D01*
X181571428Y-99671071D01*
X181928571Y-99671071D01*
X182142857Y-99742500D01*
X182785714Y-100171071D02*
X182785714Y-101671071D01*
X182785714Y-100242500D02*
X182928571Y-100171071D01*
X183214285Y-100171071D01*
X183357142Y-100242500D01*
X183428571Y-100313928D01*
X183500000Y-100456785D01*
X183500000Y-100885357D01*
X183428571Y-101028214D01*
X183357142Y-101099642D01*
X183214285Y-101171071D01*
X182928571Y-101171071D01*
X182785714Y-101099642D01*
X184142857Y-101171071D02*
X184142857Y-100171071D01*
X184142857Y-99671071D02*
X184071428Y-99742500D01*
X184142857Y-99813928D01*
X184214285Y-99742500D01*
X184142857Y-99671071D01*
X184142857Y-99813928D01*
X184857142Y-101171071D02*
X184857142Y-99671071D01*
X185000000Y-100599642D02*
X185428571Y-101171071D01*
X185428571Y-100171071D02*
X184857142Y-100742500D01*
X186642857Y-101099642D02*
X186500000Y-101171071D01*
X186214285Y-101171071D01*
X186071428Y-101099642D01*
X186000000Y-100956785D01*
X186000000Y-100385357D01*
X186071428Y-100242500D01*
X186214285Y-100171071D01*
X186500000Y-100171071D01*
X186642857Y-100242500D01*
X186714285Y-100385357D01*
X186714285Y-100528214D01*
X186000000Y-100671071D01*
X181857142Y-102586071D02*
X182214285Y-103586071D01*
X182571428Y-102586071D01*
X183071428Y-102228928D02*
X183142857Y-102157500D01*
X183285714Y-102086071D01*
X183642857Y-102086071D01*
X183785714Y-102157500D01*
X183857142Y-102228928D01*
X183928571Y-102371785D01*
X183928571Y-102514642D01*
X183857142Y-102728928D01*
X183000000Y-103586071D01*
X183928571Y-103586071D01*
X184571428Y-103443214D02*
X184642857Y-103514642D01*
X184571428Y-103586071D01*
X184500000Y-103514642D01*
X184571428Y-103443214D01*
X184571428Y-103586071D01*
X185571428Y-102086071D02*
X185714285Y-102086071D01*
X185857142Y-102157500D01*
X185928571Y-102228928D01*
X186000000Y-102371785D01*
X186071428Y-102657500D01*
X186071428Y-103014642D01*
X186000000Y-103300357D01*
X185928571Y-103443214D01*
X185857142Y-103514642D01*
X185714285Y-103586071D01*
X185571428Y-103586071D01*
X185428571Y-103514642D01*
X185357142Y-103443214D01*
X185285714Y-103300357D01*
X185214285Y-103014642D01*
X185214285Y-102657500D01*
X185285714Y-102371785D01*
X185357142Y-102228928D01*
X185428571Y-102157500D01*
X185571428Y-102086071D01*
D10*
X190000000Y-49500000D02*
G75*
G03*
X190000000Y-49500000I-2000000J0D01*
G01*
X190000000Y-129500000D02*
G75*
G03*
X190000000Y-129500000I-2000000J0D01*
G01*
X105000000Y-129500000D02*
G75*
G03*
X105000000Y-129500000I-2000000J0D01*
G01*
X105000000Y-49500000D02*
G75*
G03*
X105000000Y-49500000I-2000000J0D01*
G01*
D12*
X149357142Y-89785714D02*
X148595238Y-90071428D01*
X149357142Y-90357142D01*
X149833333Y-90452380D02*
X149833333Y-89452380D01*
X150404761Y-90452380D01*
X150404761Y-89452380D01*
X151452380Y-90357142D02*
X151404761Y-90404761D01*
X151261904Y-90452380D01*
X151166666Y-90452380D01*
X151023809Y-90404761D01*
X150928571Y-90309523D01*
X150880952Y-90214285D01*
X150833333Y-90023809D01*
X150833333Y-89880952D01*
X150880952Y-89690476D01*
X150928571Y-89595238D01*
X151023809Y-89500000D01*
X151166666Y-89452380D01*
X151261904Y-89452380D01*
X151404761Y-89500000D01*
X151452380Y-89547619D01*
%TO.C,DISPLAYcon1*%
X141952380Y-55852380D02*
X141952380Y-54852380D01*
X142190476Y-54852380D01*
X142333333Y-54900000D01*
X142428571Y-54995238D01*
X142476190Y-55090476D01*
X142523809Y-55280952D01*
X142523809Y-55423809D01*
X142476190Y-55614285D01*
X142428571Y-55709523D01*
X142333333Y-55804761D01*
X142190476Y-55852380D01*
X141952380Y-55852380D01*
X142952380Y-55852380D02*
X142952380Y-54852380D01*
X143380952Y-55804761D02*
X143523809Y-55852380D01*
X143761904Y-55852380D01*
X143857142Y-55804761D01*
X143904761Y-55757142D01*
X143952380Y-55661904D01*
X143952380Y-55566666D01*
X143904761Y-55471428D01*
X143857142Y-55423809D01*
X143761904Y-55376190D01*
X143571428Y-55328571D01*
X143476190Y-55280952D01*
X143428571Y-55233333D01*
X143380952Y-55138095D01*
X143380952Y-55042857D01*
X143428571Y-54947619D01*
X143476190Y-54900000D01*
X143571428Y-54852380D01*
X143809523Y-54852380D01*
X143952380Y-54900000D01*
X144380952Y-55852380D02*
X144380952Y-54852380D01*
X144761904Y-54852380D01*
X144857142Y-54900000D01*
X144904761Y-54947619D01*
X144952380Y-55042857D01*
X144952380Y-55185714D01*
X144904761Y-55280952D01*
X144857142Y-55328571D01*
X144761904Y-55376190D01*
X144380952Y-55376190D01*
X145857142Y-55852380D02*
X145380952Y-55852380D01*
X145380952Y-54852380D01*
X146142857Y-55566666D02*
X146619047Y-55566666D01*
X146047619Y-55852380D02*
X146380952Y-54852380D01*
X146714285Y-55852380D01*
X147238095Y-55376190D02*
X147238095Y-55852380D01*
X146904761Y-54852380D02*
X147238095Y-55376190D01*
X147571428Y-54852380D01*
X148333333Y-55804761D02*
X148238095Y-55852380D01*
X148047619Y-55852380D01*
X147952380Y-55804761D01*
X147904761Y-55757142D01*
X147857142Y-55661904D01*
X147857142Y-55376190D01*
X147904761Y-55280952D01*
X147952380Y-55233333D01*
X148047619Y-55185714D01*
X148238095Y-55185714D01*
X148333333Y-55233333D01*
X148904761Y-55852380D02*
X148809523Y-55804761D01*
X148761904Y-55757142D01*
X148714285Y-55661904D01*
X148714285Y-55376190D01*
X148761904Y-55280952D01*
X148809523Y-55233333D01*
X148904761Y-55185714D01*
X149047619Y-55185714D01*
X149142857Y-55233333D01*
X149190476Y-55280952D01*
X149238095Y-55376190D01*
X149238095Y-55661904D01*
X149190476Y-55757142D01*
X149142857Y-55804761D01*
X149047619Y-55852380D01*
X148904761Y-55852380D01*
X149666666Y-55185714D02*
X149666666Y-55852380D01*
X149666666Y-55280952D02*
X149714285Y-55233333D01*
X149809523Y-55185714D01*
X149952380Y-55185714D01*
X150047619Y-55233333D01*
X150095238Y-55328571D01*
X150095238Y-55852380D01*
X151095238Y-55852380D02*
X150523809Y-55852380D01*
X150809523Y-55852380D02*
X150809523Y-54852380D01*
X150714285Y-54995238D01*
X150619047Y-55090476D01*
X150523809Y-55138095D01*
%TO.C,R1*%
X142082380Y-126166666D02*
X141606190Y-126500000D01*
X142082380Y-126738095D02*
X141082380Y-126738095D01*
X141082380Y-126357142D01*
X141130000Y-126261904D01*
X141177619Y-126214285D01*
X141272857Y-126166666D01*
X141415714Y-126166666D01*
X141510952Y-126214285D01*
X141558571Y-126261904D01*
X141606190Y-126357142D01*
X141606190Y-126738095D01*
X142082380Y-125214285D02*
X142082380Y-125785714D01*
X142082380Y-125500000D02*
X141082380Y-125500000D01*
X141225238Y-125595238D01*
X141320476Y-125690476D01*
X141368095Y-125785714D01*
X144352380Y-126314285D02*
X144352380Y-126885714D01*
X144352380Y-126600000D02*
X143352380Y-126600000D01*
X143495238Y-126695238D01*
X143590476Y-126790476D01*
X143638095Y-126885714D01*
X144352380Y-125885714D02*
X143352380Y-125885714D01*
X144352380Y-125314285D02*
X143780952Y-125742857D01*
X143352380Y-125314285D02*
X143923809Y-125885714D01*
%TO.C,SoilMoisturecon1*%
X108404761Y-121190476D02*
X108452380Y-121047619D01*
X108452380Y-120809523D01*
X108404761Y-120714285D01*
X108357142Y-120666666D01*
X108261904Y-120619047D01*
X108166666Y-120619047D01*
X108071428Y-120666666D01*
X108023809Y-120714285D01*
X107976190Y-120809523D01*
X107928571Y-121000000D01*
X107880952Y-121095238D01*
X107833333Y-121142857D01*
X107738095Y-121190476D01*
X107642857Y-121190476D01*
X107547619Y-121142857D01*
X107500000Y-121095238D01*
X107452380Y-121000000D01*
X107452380Y-120761904D01*
X107500000Y-120619047D01*
X108452380Y-120047619D02*
X108404761Y-120142857D01*
X108357142Y-120190476D01*
X108261904Y-120238095D01*
X107976190Y-120238095D01*
X107880952Y-120190476D01*
X107833333Y-120142857D01*
X107785714Y-120047619D01*
X107785714Y-119904761D01*
X107833333Y-119809523D01*
X107880952Y-119761904D01*
X107976190Y-119714285D01*
X108261904Y-119714285D01*
X108357142Y-119761904D01*
X108404761Y-119809523D01*
X108452380Y-119904761D01*
X108452380Y-120047619D01*
X108452380Y-119285714D02*
X107785714Y-119285714D01*
X107452380Y-119285714D02*
X107500000Y-119333333D01*
X107547619Y-119285714D01*
X107500000Y-119238095D01*
X107452380Y-119285714D01*
X107547619Y-119285714D01*
X108452380Y-118666666D02*
X108404761Y-118761904D01*
X108309523Y-118809523D01*
X107452380Y-118809523D01*
X108452380Y-118285714D02*
X107452380Y-118285714D01*
X108166666Y-117952380D01*
X107452380Y-117619047D01*
X108452380Y-117619047D01*
X108452380Y-117000000D02*
X108404761Y-117095238D01*
X108357142Y-117142857D01*
X108261904Y-117190476D01*
X107976190Y-117190476D01*
X107880952Y-117142857D01*
X107833333Y-117095238D01*
X107785714Y-117000000D01*
X107785714Y-116857142D01*
X107833333Y-116761904D01*
X107880952Y-116714285D01*
X107976190Y-116666666D01*
X108261904Y-116666666D01*
X108357142Y-116714285D01*
X108404761Y-116761904D01*
X108452380Y-116857142D01*
X108452380Y-117000000D01*
X108452380Y-116238095D02*
X107785714Y-116238095D01*
X107452380Y-116238095D02*
X107500000Y-116285714D01*
X107547619Y-116238095D01*
X107500000Y-116190476D01*
X107452380Y-116238095D01*
X107547619Y-116238095D01*
X108404761Y-115809523D02*
X108452380Y-115714285D01*
X108452380Y-115523809D01*
X108404761Y-115428571D01*
X108309523Y-115380952D01*
X108261904Y-115380952D01*
X108166666Y-115428571D01*
X108119047Y-115523809D01*
X108119047Y-115666666D01*
X108071428Y-115761904D01*
X107976190Y-115809523D01*
X107928571Y-115809523D01*
X107833333Y-115761904D01*
X107785714Y-115666666D01*
X107785714Y-115523809D01*
X107833333Y-115428571D01*
X107785714Y-115095238D02*
X107785714Y-114714285D01*
X107452380Y-114952380D02*
X108309523Y-114952380D01*
X108404761Y-114904761D01*
X108452380Y-114809523D01*
X108452380Y-114714285D01*
X107785714Y-113952380D02*
X108452380Y-113952380D01*
X107785714Y-114380952D02*
X108309523Y-114380952D01*
X108404761Y-114333333D01*
X108452380Y-114238095D01*
X108452380Y-114095238D01*
X108404761Y-114000000D01*
X108357142Y-113952380D01*
X108452380Y-113476190D02*
X107785714Y-113476190D01*
X107976190Y-113476190D02*
X107880952Y-113428571D01*
X107833333Y-113380952D01*
X107785714Y-113285714D01*
X107785714Y-113190476D01*
X108404761Y-112476190D02*
X108452380Y-112571428D01*
X108452380Y-112761904D01*
X108404761Y-112857142D01*
X108309523Y-112904761D01*
X107928571Y-112904761D01*
X107833333Y-112857142D01*
X107785714Y-112761904D01*
X107785714Y-112571428D01*
X107833333Y-112476190D01*
X107928571Y-112428571D01*
X108023809Y-112428571D01*
X108119047Y-112904761D01*
X108404761Y-111571428D02*
X108452380Y-111666666D01*
X108452380Y-111857142D01*
X108404761Y-111952380D01*
X108357142Y-112000000D01*
X108261904Y-112047619D01*
X107976190Y-112047619D01*
X107880952Y-112000000D01*
X107833333Y-111952380D01*
X107785714Y-111857142D01*
X107785714Y-111666666D01*
X107833333Y-111571428D01*
X108452380Y-111000000D02*
X108404761Y-111095238D01*
X108357142Y-111142857D01*
X108261904Y-111190476D01*
X107976190Y-111190476D01*
X107880952Y-111142857D01*
X107833333Y-111095238D01*
X107785714Y-111000000D01*
X107785714Y-110857142D01*
X107833333Y-110761904D01*
X107880952Y-110714285D01*
X107976190Y-110666666D01*
X108261904Y-110666666D01*
X108357142Y-110714285D01*
X108404761Y-110761904D01*
X108452380Y-110857142D01*
X108452380Y-111000000D01*
X107785714Y-110238095D02*
X108452380Y-110238095D01*
X107880952Y-110238095D02*
X107833333Y-110190476D01*
X107785714Y-110095238D01*
X107785714Y-109952380D01*
X107833333Y-109857142D01*
X107928571Y-109809523D01*
X108452380Y-109809523D01*
X108452380Y-108809523D02*
X108452380Y-109380952D01*
X108452380Y-109095238D02*
X107452380Y-109095238D01*
X107595238Y-109190476D01*
X107690476Y-109285714D01*
X107738095Y-109380952D01*
%TO.C,ESP32*%
X118356315Y-61428543D02*
X118689777Y-61428543D01*
X118832690Y-61952555D02*
X118356315Y-61952555D01*
X118356315Y-60952169D01*
X118832690Y-60952169D01*
X119213789Y-61904918D02*
X119356701Y-61952555D01*
X119594888Y-61952555D01*
X119690163Y-61904918D01*
X119737801Y-61857280D01*
X119785438Y-61762005D01*
X119785438Y-61666731D01*
X119737801Y-61571456D01*
X119690163Y-61523818D01*
X119594888Y-61476181D01*
X119404339Y-61428543D01*
X119309064Y-61380906D01*
X119261426Y-61333269D01*
X119213789Y-61237994D01*
X119213789Y-61142719D01*
X119261426Y-61047444D01*
X119309064Y-60999807D01*
X119404339Y-60952169D01*
X119642526Y-60952169D01*
X119785438Y-60999807D01*
X120214175Y-61952555D02*
X120214175Y-60952169D01*
X120595274Y-60952169D01*
X120690549Y-60999807D01*
X120738187Y-61047444D01*
X120785824Y-61142719D01*
X120785824Y-61285631D01*
X120738187Y-61380906D01*
X120690549Y-61428543D01*
X120595274Y-61476181D01*
X120214175Y-61476181D01*
X121119286Y-60952169D02*
X121738573Y-60952169D01*
X121405111Y-61333269D01*
X121548023Y-61333269D01*
X121643298Y-61380906D01*
X121690935Y-61428543D01*
X121738573Y-61523818D01*
X121738573Y-61762005D01*
X121690935Y-61857280D01*
X121643298Y-61904918D01*
X121548023Y-61952555D01*
X121262198Y-61952555D01*
X121166924Y-61904918D01*
X121119286Y-61857280D01*
X122119672Y-61047444D02*
X122167310Y-60999807D01*
X122262584Y-60952169D01*
X122500772Y-60952169D01*
X122596046Y-60999807D01*
X122643684Y-61047444D01*
X122691321Y-61142719D01*
X122691321Y-61237994D01*
X122643684Y-61380906D01*
X122072035Y-61952555D01*
X122691321Y-61952555D01*
%TO.C,JP1*%
X129852380Y-127033333D02*
X130566666Y-127033333D01*
X130709523Y-127080952D01*
X130804761Y-127176190D01*
X130852380Y-127319047D01*
X130852380Y-127414285D01*
X130852380Y-126557142D02*
X129852380Y-126557142D01*
X129852380Y-126176190D01*
X129900000Y-126080952D01*
X129947619Y-126033333D01*
X130042857Y-125985714D01*
X130185714Y-125985714D01*
X130280952Y-126033333D01*
X130328571Y-126080952D01*
X130376190Y-126176190D01*
X130376190Y-126557142D01*
X130852380Y-125033333D02*
X130852380Y-125604761D01*
X130852380Y-125319047D02*
X129852380Y-125319047D01*
X129995238Y-125414285D01*
X130090476Y-125509523D01*
X130138095Y-125604761D01*
%TO.C,I2Ccon1*%
X157952380Y-64285714D02*
X156952380Y-64285714D01*
X157047619Y-63857142D02*
X157000000Y-63809523D01*
X156952380Y-63714285D01*
X156952380Y-63476190D01*
X157000000Y-63380952D01*
X157047619Y-63333333D01*
X157142857Y-63285714D01*
X157238095Y-63285714D01*
X157380952Y-63333333D01*
X157952380Y-63904761D01*
X157952380Y-63285714D01*
X157857142Y-62285714D02*
X157904761Y-62333333D01*
X157952380Y-62476190D01*
X157952380Y-62571428D01*
X157904761Y-62714285D01*
X157809523Y-62809523D01*
X157714285Y-62857142D01*
X157523809Y-62904761D01*
X157380952Y-62904761D01*
X157190476Y-62857142D01*
X157095238Y-62809523D01*
X157000000Y-62714285D01*
X156952380Y-62571428D01*
X156952380Y-62476190D01*
X157000000Y-62333333D01*
X157047619Y-62285714D01*
X157904761Y-61428571D02*
X157952380Y-61523809D01*
X157952380Y-61714285D01*
X157904761Y-61809523D01*
X157857142Y-61857142D01*
X157761904Y-61904761D01*
X157476190Y-61904761D01*
X157380952Y-61857142D01*
X157333333Y-61809523D01*
X157285714Y-61714285D01*
X157285714Y-61523809D01*
X157333333Y-61428571D01*
X157952380Y-60857142D02*
X157904761Y-60952380D01*
X157857142Y-61000000D01*
X157761904Y-61047619D01*
X157476190Y-61047619D01*
X157380952Y-61000000D01*
X157333333Y-60952380D01*
X157285714Y-60857142D01*
X157285714Y-60714285D01*
X157333333Y-60619047D01*
X157380952Y-60571428D01*
X157476190Y-60523809D01*
X157761904Y-60523809D01*
X157857142Y-60571428D01*
X157904761Y-60619047D01*
X157952380Y-60714285D01*
X157952380Y-60857142D01*
X157285714Y-60095238D02*
X157952380Y-60095238D01*
X157380952Y-60095238D02*
X157333333Y-60047619D01*
X157285714Y-59952380D01*
X157285714Y-59809523D01*
X157333333Y-59714285D01*
X157428571Y-59666666D01*
X157952380Y-59666666D01*
X157952380Y-58666666D02*
X157952380Y-59238095D01*
X157952380Y-58952380D02*
X156952380Y-58952380D01*
X157095238Y-59047619D01*
X157190476Y-59142857D01*
X157238095Y-59238095D01*
%TO.C,PowerSupplycon1*%
X139738095Y-99952380D02*
X139738095Y-98952380D01*
X140119047Y-98952380D01*
X140214285Y-99000000D01*
X140261904Y-99047619D01*
X140309523Y-99142857D01*
X140309523Y-99285714D01*
X140261904Y-99380952D01*
X140214285Y-99428571D01*
X140119047Y-99476190D01*
X139738095Y-99476190D01*
X140880952Y-99952380D02*
X140785714Y-99904761D01*
X140738095Y-99857142D01*
X140690476Y-99761904D01*
X140690476Y-99476190D01*
X140738095Y-99380952D01*
X140785714Y-99333333D01*
X140880952Y-99285714D01*
X141023809Y-99285714D01*
X141119047Y-99333333D01*
X141166666Y-99380952D01*
X141214285Y-99476190D01*
X141214285Y-99761904D01*
X141166666Y-99857142D01*
X141119047Y-99904761D01*
X141023809Y-99952380D01*
X140880952Y-99952380D01*
X141547619Y-99285714D02*
X141738095Y-99952380D01*
X141928571Y-99476190D01*
X142119047Y-99952380D01*
X142309523Y-99285714D01*
X143071428Y-99904761D02*
X142976190Y-99952380D01*
X142785714Y-99952380D01*
X142690476Y-99904761D01*
X142642857Y-99809523D01*
X142642857Y-99428571D01*
X142690476Y-99333333D01*
X142785714Y-99285714D01*
X142976190Y-99285714D01*
X143071428Y-99333333D01*
X143119047Y-99428571D01*
X143119047Y-99523809D01*
X142642857Y-99619047D01*
X143547619Y-99952380D02*
X143547619Y-99285714D01*
X143547619Y-99476190D02*
X143595238Y-99380952D01*
X143642857Y-99333333D01*
X143738095Y-99285714D01*
X143833333Y-99285714D01*
X144119047Y-99904761D02*
X144261904Y-99952380D01*
X144500000Y-99952380D01*
X144595238Y-99904761D01*
X144642857Y-99857142D01*
X144690476Y-99761904D01*
X144690476Y-99666666D01*
X144642857Y-99571428D01*
X144595238Y-99523809D01*
X144500000Y-99476190D01*
X144309523Y-99428571D01*
X144214285Y-99380952D01*
X144166666Y-99333333D01*
X144119047Y-99238095D01*
X144119047Y-99142857D01*
X144166666Y-99047619D01*
X144214285Y-99000000D01*
X144309523Y-98952380D01*
X144547619Y-98952380D01*
X144690476Y-99000000D01*
X145547619Y-99285714D02*
X145547619Y-99952380D01*
X145119047Y-99285714D02*
X145119047Y-99809523D01*
X145166666Y-99904761D01*
X145261904Y-99952380D01*
X145404761Y-99952380D01*
X145500000Y-99904761D01*
X145547619Y-99857142D01*
X146023809Y-99285714D02*
X146023809Y-100285714D01*
X146023809Y-99333333D02*
X146119047Y-99285714D01*
X146309523Y-99285714D01*
X146404761Y-99333333D01*
X146452380Y-99380952D01*
X146500000Y-99476190D01*
X146500000Y-99761904D01*
X146452380Y-99857142D01*
X146404761Y-99904761D01*
X146309523Y-99952380D01*
X146119047Y-99952380D01*
X146023809Y-99904761D01*
X146928571Y-99285714D02*
X146928571Y-100285714D01*
X146928571Y-99333333D02*
X147023809Y-99285714D01*
X147214285Y-99285714D01*
X147309523Y-99333333D01*
X147357142Y-99380952D01*
X147404761Y-99476190D01*
X147404761Y-99761904D01*
X147357142Y-99857142D01*
X147309523Y-99904761D01*
X147214285Y-99952380D01*
X147023809Y-99952380D01*
X146928571Y-99904761D01*
X147976190Y-99952380D02*
X147880952Y-99904761D01*
X147833333Y-99809523D01*
X147833333Y-98952380D01*
X148261904Y-99285714D02*
X148500000Y-99952380D01*
X148738095Y-99285714D02*
X148500000Y-99952380D01*
X148404761Y-100190476D01*
X148357142Y-100238095D01*
X148261904Y-100285714D01*
X149547619Y-99904761D02*
X149452380Y-99952380D01*
X149261904Y-99952380D01*
X149166666Y-99904761D01*
X149119047Y-99857142D01*
X149071428Y-99761904D01*
X149071428Y-99476190D01*
X149119047Y-99380952D01*
X149166666Y-99333333D01*
X149261904Y-99285714D01*
X149452380Y-99285714D01*
X149547619Y-99333333D01*
X150119047Y-99952380D02*
X150023809Y-99904761D01*
X149976190Y-99857142D01*
X149928571Y-99761904D01*
X149928571Y-99476190D01*
X149976190Y-99380952D01*
X150023809Y-99333333D01*
X150119047Y-99285714D01*
X150261904Y-99285714D01*
X150357142Y-99333333D01*
X150404761Y-99380952D01*
X150452380Y-99476190D01*
X150452380Y-99761904D01*
X150404761Y-99857142D01*
X150357142Y-99904761D01*
X150261904Y-99952380D01*
X150119047Y-99952380D01*
X150880952Y-99285714D02*
X150880952Y-99952380D01*
X150880952Y-99380952D02*
X150928571Y-99333333D01*
X151023809Y-99285714D01*
X151166666Y-99285714D01*
X151261904Y-99333333D01*
X151309523Y-99428571D01*
X151309523Y-99952380D01*
X152309523Y-99952380D02*
X151738095Y-99952380D01*
X152023809Y-99952380D02*
X152023809Y-98952380D01*
X151928571Y-99095238D01*
X151833333Y-99190476D01*
X151738095Y-99238095D01*
%TO.C,U_RTC1*%
X170476190Y-68452380D02*
X170476190Y-69261904D01*
X170523809Y-69357142D01*
X170571428Y-69404761D01*
X170666666Y-69452380D01*
X170857142Y-69452380D01*
X170952380Y-69404761D01*
X171000000Y-69357142D01*
X171047619Y-69261904D01*
X171047619Y-68452380D01*
X171285714Y-69547619D02*
X172047619Y-69547619D01*
X172857142Y-69452380D02*
X172523809Y-68976190D01*
X172285714Y-69452380D02*
X172285714Y-68452380D01*
X172666666Y-68452380D01*
X172761904Y-68500000D01*
X172809523Y-68547619D01*
X172857142Y-68642857D01*
X172857142Y-68785714D01*
X172809523Y-68880952D01*
X172761904Y-68928571D01*
X172666666Y-68976190D01*
X172285714Y-68976190D01*
X173142857Y-68452380D02*
X173714285Y-68452380D01*
X173428571Y-69452380D02*
X173428571Y-68452380D01*
X174619047Y-69357142D02*
X174571428Y-69404761D01*
X174428571Y-69452380D01*
X174333333Y-69452380D01*
X174190476Y-69404761D01*
X174095238Y-69309523D01*
X174047619Y-69214285D01*
X174000000Y-69023809D01*
X174000000Y-68880952D01*
X174047619Y-68690476D01*
X174095238Y-68595238D01*
X174190476Y-68500000D01*
X174333333Y-68452380D01*
X174428571Y-68452380D01*
X174571428Y-68500000D01*
X174619047Y-68547619D01*
X175571428Y-69452380D02*
X175000000Y-69452380D01*
X175285714Y-69452380D02*
X175285714Y-68452380D01*
X175190476Y-68595238D01*
X175095238Y-68690476D01*
X175000000Y-68738095D01*
%TO.C,LEDSTRIPEcon1*%
X141250000Y-70152380D02*
X140773809Y-70152380D01*
X140773809Y-69152380D01*
X141583333Y-69628571D02*
X141916666Y-69628571D01*
X142059523Y-70152380D02*
X141583333Y-70152380D01*
X141583333Y-69152380D01*
X142059523Y-69152380D01*
X142488095Y-70152380D02*
X142488095Y-69152380D01*
X142726190Y-69152380D01*
X142869047Y-69200000D01*
X142964285Y-69295238D01*
X143011904Y-69390476D01*
X143059523Y-69580952D01*
X143059523Y-69723809D01*
X143011904Y-69914285D01*
X142964285Y-70009523D01*
X142869047Y-70104761D01*
X142726190Y-70152380D01*
X142488095Y-70152380D01*
X143440476Y-70104761D02*
X143583333Y-70152380D01*
X143821428Y-70152380D01*
X143916666Y-70104761D01*
X143964285Y-70057142D01*
X144011904Y-69961904D01*
X144011904Y-69866666D01*
X143964285Y-69771428D01*
X143916666Y-69723809D01*
X143821428Y-69676190D01*
X143630952Y-69628571D01*
X143535714Y-69580952D01*
X143488095Y-69533333D01*
X143440476Y-69438095D01*
X143440476Y-69342857D01*
X143488095Y-69247619D01*
X143535714Y-69200000D01*
X143630952Y-69152380D01*
X143869047Y-69152380D01*
X144011904Y-69200000D01*
X144297619Y-69152380D02*
X144869047Y-69152380D01*
X144583333Y-70152380D02*
X144583333Y-69152380D01*
X145773809Y-70152380D02*
X145440476Y-69676190D01*
X145202380Y-70152380D02*
X145202380Y-69152380D01*
X145583333Y-69152380D01*
X145678571Y-69200000D01*
X145726190Y-69247619D01*
X145773809Y-69342857D01*
X145773809Y-69485714D01*
X145726190Y-69580952D01*
X145678571Y-69628571D01*
X145583333Y-69676190D01*
X145202380Y-69676190D01*
X146202380Y-70152380D02*
X146202380Y-69152380D01*
X146678571Y-70152380D02*
X146678571Y-69152380D01*
X147059523Y-69152380D01*
X147154761Y-69200000D01*
X147202380Y-69247619D01*
X147250000Y-69342857D01*
X147250000Y-69485714D01*
X147202380Y-69580952D01*
X147154761Y-69628571D01*
X147059523Y-69676190D01*
X146678571Y-69676190D01*
X147678571Y-69628571D02*
X148011904Y-69628571D01*
X148154761Y-70152380D02*
X147678571Y-70152380D01*
X147678571Y-69152380D01*
X148154761Y-69152380D01*
X149011904Y-70104761D02*
X148916666Y-70152380D01*
X148726190Y-70152380D01*
X148630952Y-70104761D01*
X148583333Y-70057142D01*
X148535714Y-69961904D01*
X148535714Y-69676190D01*
X148583333Y-69580952D01*
X148630952Y-69533333D01*
X148726190Y-69485714D01*
X148916666Y-69485714D01*
X149011904Y-69533333D01*
X149583333Y-70152380D02*
X149488095Y-70104761D01*
X149440476Y-70057142D01*
X149392857Y-69961904D01*
X149392857Y-69676190D01*
X149440476Y-69580952D01*
X149488095Y-69533333D01*
X149583333Y-69485714D01*
X149726190Y-69485714D01*
X149821428Y-69533333D01*
X149869047Y-69580952D01*
X149916666Y-69676190D01*
X149916666Y-69961904D01*
X149869047Y-70057142D01*
X149821428Y-70104761D01*
X149726190Y-70152380D01*
X149583333Y-70152380D01*
X150345238Y-69485714D02*
X150345238Y-70152380D01*
X150345238Y-69580952D02*
X150392857Y-69533333D01*
X150488095Y-69485714D01*
X150630952Y-69485714D01*
X150726190Y-69533333D01*
X150773809Y-69628571D01*
X150773809Y-70152380D01*
X151773809Y-70152380D02*
X151202380Y-70152380D01*
X151488095Y-70152380D02*
X151488095Y-69152380D01*
X151392857Y-69295238D01*
X151297619Y-69390476D01*
X151202380Y-69438095D01*
%TO.C,VEML7700con1*%
X141023809Y-61652380D02*
X141357142Y-62652380D01*
X141690476Y-61652380D01*
X142023809Y-62128571D02*
X142357142Y-62128571D01*
X142500000Y-62652380D02*
X142023809Y-62652380D01*
X142023809Y-61652380D01*
X142500000Y-61652380D01*
X142928571Y-62652380D02*
X142928571Y-61652380D01*
X143261904Y-62366666D01*
X143595238Y-61652380D01*
X143595238Y-62652380D01*
X144547619Y-62652380D02*
X144071428Y-62652380D01*
X144071428Y-61652380D01*
X144785714Y-61652380D02*
X145452380Y-61652380D01*
X145023809Y-62652380D01*
X145738095Y-61652380D02*
X146404761Y-61652380D01*
X145976190Y-62652380D01*
X146976190Y-61652380D02*
X147071428Y-61652380D01*
X147166666Y-61700000D01*
X147214285Y-61747619D01*
X147261904Y-61842857D01*
X147309523Y-62033333D01*
X147309523Y-62271428D01*
X147261904Y-62461904D01*
X147214285Y-62557142D01*
X147166666Y-62604761D01*
X147071428Y-62652380D01*
X146976190Y-62652380D01*
X146880952Y-62604761D01*
X146833333Y-62557142D01*
X146785714Y-62461904D01*
X146738095Y-62271428D01*
X146738095Y-62033333D01*
X146785714Y-61842857D01*
X146833333Y-61747619D01*
X146880952Y-61700000D01*
X146976190Y-61652380D01*
X147928571Y-61652380D02*
X148023809Y-61652380D01*
X148119047Y-61700000D01*
X148166666Y-61747619D01*
X148214285Y-61842857D01*
X148261904Y-62033333D01*
X148261904Y-62271428D01*
X148214285Y-62461904D01*
X148166666Y-62557142D01*
X148119047Y-62604761D01*
X148023809Y-62652380D01*
X147928571Y-62652380D01*
X147833333Y-62604761D01*
X147785714Y-62557142D01*
X147738095Y-62461904D01*
X147690476Y-62271428D01*
X147690476Y-62033333D01*
X147738095Y-61842857D01*
X147785714Y-61747619D01*
X147833333Y-61700000D01*
X147928571Y-61652380D01*
X149119047Y-62604761D02*
X149023809Y-62652380D01*
X148833333Y-62652380D01*
X148738095Y-62604761D01*
X148690476Y-62557142D01*
X148642857Y-62461904D01*
X148642857Y-62176190D01*
X148690476Y-62080952D01*
X148738095Y-62033333D01*
X148833333Y-61985714D01*
X149023809Y-61985714D01*
X149119047Y-62033333D01*
X149690476Y-62652380D02*
X149595238Y-62604761D01*
X149547619Y-62557142D01*
X149500000Y-62461904D01*
X149500000Y-62176190D01*
X149547619Y-62080952D01*
X149595238Y-62033333D01*
X149690476Y-61985714D01*
X149833333Y-61985714D01*
X149928571Y-62033333D01*
X149976190Y-62080952D01*
X150023809Y-62176190D01*
X150023809Y-62461904D01*
X149976190Y-62557142D01*
X149928571Y-62604761D01*
X149833333Y-62652380D01*
X149690476Y-62652380D01*
X150452380Y-61985714D02*
X150452380Y-62652380D01*
X150452380Y-62080952D02*
X150500000Y-62033333D01*
X150595238Y-61985714D01*
X150738095Y-61985714D01*
X150833333Y-62033333D01*
X150880952Y-62128571D01*
X150880952Y-62652380D01*
X151880952Y-62652380D02*
X151309523Y-62652380D01*
X151595238Y-62652380D02*
X151595238Y-61652380D01*
X151500000Y-61795238D01*
X151404761Y-61890476D01*
X151309523Y-61938095D01*
%TO.C,RTemp2*%
X155952380Y-117095238D02*
X155476190Y-117428571D01*
X155952380Y-117666666D02*
X154952380Y-117666666D01*
X154952380Y-117285714D01*
X155000000Y-117190476D01*
X155047619Y-117142857D01*
X155142857Y-117095238D01*
X155285714Y-117095238D01*
X155380952Y-117142857D01*
X155428571Y-117190476D01*
X155476190Y-117285714D01*
X155476190Y-117666666D01*
X154952380Y-116809523D02*
X154952380Y-116238095D01*
X155952380Y-116523809D02*
X154952380Y-116523809D01*
X155904761Y-115523809D02*
X155952380Y-115619047D01*
X155952380Y-115809523D01*
X155904761Y-115904761D01*
X155809523Y-115952380D01*
X155428571Y-115952380D01*
X155333333Y-115904761D01*
X155285714Y-115809523D01*
X155285714Y-115619047D01*
X155333333Y-115523809D01*
X155428571Y-115476190D01*
X155523809Y-115476190D01*
X155619047Y-115952380D01*
X155952380Y-115047619D02*
X155285714Y-115047619D01*
X155380952Y-115047619D02*
X155333333Y-115000000D01*
X155285714Y-114904761D01*
X155285714Y-114761904D01*
X155333333Y-114666666D01*
X155428571Y-114619047D01*
X155952380Y-114619047D01*
X155428571Y-114619047D02*
X155333333Y-114571428D01*
X155285714Y-114476190D01*
X155285714Y-114333333D01*
X155333333Y-114238095D01*
X155428571Y-114190476D01*
X155952380Y-114190476D01*
X155285714Y-113714285D02*
X156285714Y-113714285D01*
X155333333Y-113714285D02*
X155285714Y-113619047D01*
X155285714Y-113428571D01*
X155333333Y-113333333D01*
X155380952Y-113285714D01*
X155476190Y-113238095D01*
X155761904Y-113238095D01*
X155857142Y-113285714D01*
X155904761Y-113333333D01*
X155952380Y-113428571D01*
X155952380Y-113619047D01*
X155904761Y-113714285D01*
X155047619Y-112857142D02*
X155000000Y-112809523D01*
X154952380Y-112714285D01*
X154952380Y-112476190D01*
X155000000Y-112380952D01*
X155047619Y-112333333D01*
X155142857Y-112285714D01*
X155238095Y-112285714D01*
X155380952Y-112333333D01*
X155952380Y-112904761D01*
X155952380Y-112285714D01*
X153185714Y-115585714D02*
X153852380Y-115585714D01*
X152804761Y-115823809D02*
X153519047Y-116061904D01*
X153519047Y-115442857D01*
X153852380Y-115061904D02*
X152852380Y-115061904D01*
X153852380Y-114490476D02*
X153280952Y-114919047D01*
X152852380Y-114490476D02*
X153423809Y-115061904D01*
X152852380Y-114157142D02*
X152852380Y-113490476D01*
X153852380Y-113919047D01*
%TO.C,RTemp1*%
X178452380Y-116595238D02*
X177976190Y-116928571D01*
X178452380Y-117166666D02*
X177452380Y-117166666D01*
X177452380Y-116785714D01*
X177500000Y-116690476D01*
X177547619Y-116642857D01*
X177642857Y-116595238D01*
X177785714Y-116595238D01*
X177880952Y-116642857D01*
X177928571Y-116690476D01*
X177976190Y-116785714D01*
X177976190Y-117166666D01*
X177452380Y-116309523D02*
X177452380Y-115738095D01*
X178452380Y-116023809D02*
X177452380Y-116023809D01*
X178404761Y-115023809D02*
X178452380Y-115119047D01*
X178452380Y-115309523D01*
X178404761Y-115404761D01*
X178309523Y-115452380D01*
X177928571Y-115452380D01*
X177833333Y-115404761D01*
X177785714Y-115309523D01*
X177785714Y-115119047D01*
X177833333Y-115023809D01*
X177928571Y-114976190D01*
X178023809Y-114976190D01*
X178119047Y-115452380D01*
X178452380Y-114547619D02*
X177785714Y-114547619D01*
X177880952Y-114547619D02*
X177833333Y-114500000D01*
X177785714Y-114404761D01*
X177785714Y-114261904D01*
X177833333Y-114166666D01*
X177928571Y-114119047D01*
X178452380Y-114119047D01*
X177928571Y-114119047D02*
X177833333Y-114071428D01*
X177785714Y-113976190D01*
X177785714Y-113833333D01*
X177833333Y-113738095D01*
X177928571Y-113690476D01*
X178452380Y-113690476D01*
X177785714Y-113214285D02*
X178785714Y-113214285D01*
X177833333Y-113214285D02*
X177785714Y-113119047D01*
X177785714Y-112928571D01*
X177833333Y-112833333D01*
X177880952Y-112785714D01*
X177976190Y-112738095D01*
X178261904Y-112738095D01*
X178357142Y-112785714D01*
X178404761Y-112833333D01*
X178452380Y-112928571D01*
X178452380Y-113119047D01*
X178404761Y-113214285D01*
X178452380Y-111785714D02*
X178452380Y-112357142D01*
X178452380Y-112071428D02*
X177452380Y-112071428D01*
X177595238Y-112166666D01*
X177690476Y-112261904D01*
X177738095Y-112357142D01*
X175385714Y-115485714D02*
X176052380Y-115485714D01*
X175004761Y-115723809D02*
X175719047Y-115961904D01*
X175719047Y-115342857D01*
X176052380Y-114961904D02*
X175052380Y-114961904D01*
X176052380Y-114390476D02*
X175480952Y-114819047D01*
X175052380Y-114390476D02*
X175623809Y-114961904D01*
X175052380Y-114057142D02*
X175052380Y-113390476D01*
X176052380Y-113819047D01*
%TO.C,TempProbe1*%
X162552380Y-119452380D02*
X162552380Y-118880952D01*
X163552380Y-119166666D02*
X162552380Y-119166666D01*
X163504761Y-118166666D02*
X163552380Y-118261904D01*
X163552380Y-118452380D01*
X163504761Y-118547619D01*
X163409523Y-118595238D01*
X163028571Y-118595238D01*
X162933333Y-118547619D01*
X162885714Y-118452380D01*
X162885714Y-118261904D01*
X162933333Y-118166666D01*
X163028571Y-118119047D01*
X163123809Y-118119047D01*
X163219047Y-118595238D01*
X163552380Y-117690476D02*
X162885714Y-117690476D01*
X162980952Y-117690476D02*
X162933333Y-117642857D01*
X162885714Y-117547619D01*
X162885714Y-117404761D01*
X162933333Y-117309523D01*
X163028571Y-117261904D01*
X163552380Y-117261904D01*
X163028571Y-117261904D02*
X162933333Y-117214285D01*
X162885714Y-117119047D01*
X162885714Y-116976190D01*
X162933333Y-116880952D01*
X163028571Y-116833333D01*
X163552380Y-116833333D01*
X162885714Y-116357142D02*
X163885714Y-116357142D01*
X162933333Y-116357142D02*
X162885714Y-116261904D01*
X162885714Y-116071428D01*
X162933333Y-115976190D01*
X162980952Y-115928571D01*
X163076190Y-115880952D01*
X163361904Y-115880952D01*
X163457142Y-115928571D01*
X163504761Y-115976190D01*
X163552380Y-116071428D01*
X163552380Y-116261904D01*
X163504761Y-116357142D01*
X163552380Y-115452380D02*
X162552380Y-115452380D01*
X162552380Y-115071428D01*
X162600000Y-114976190D01*
X162647619Y-114928571D01*
X162742857Y-114880952D01*
X162885714Y-114880952D01*
X162980952Y-114928571D01*
X163028571Y-114976190D01*
X163076190Y-115071428D01*
X163076190Y-115452380D01*
X163552380Y-114452380D02*
X162885714Y-114452380D01*
X163076190Y-114452380D02*
X162980952Y-114404761D01*
X162933333Y-114357142D01*
X162885714Y-114261904D01*
X162885714Y-114166666D01*
X163552380Y-113690476D02*
X163504761Y-113785714D01*
X163457142Y-113833333D01*
X163361904Y-113880952D01*
X163076190Y-113880952D01*
X162980952Y-113833333D01*
X162933333Y-113785714D01*
X162885714Y-113690476D01*
X162885714Y-113547619D01*
X162933333Y-113452380D01*
X162980952Y-113404761D01*
X163076190Y-113357142D01*
X163361904Y-113357142D01*
X163457142Y-113404761D01*
X163504761Y-113452380D01*
X163552380Y-113547619D01*
X163552380Y-113690476D01*
X163552380Y-112928571D02*
X162552380Y-112928571D01*
X162933333Y-112928571D02*
X162885714Y-112833333D01*
X162885714Y-112642857D01*
X162933333Y-112547619D01*
X162980952Y-112500000D01*
X163076190Y-112452380D01*
X163361904Y-112452380D01*
X163457142Y-112500000D01*
X163504761Y-112547619D01*
X163552380Y-112642857D01*
X163552380Y-112833333D01*
X163504761Y-112928571D01*
X163504761Y-111642857D02*
X163552380Y-111738095D01*
X163552380Y-111928571D01*
X163504761Y-112023809D01*
X163409523Y-112071428D01*
X163028571Y-112071428D01*
X162933333Y-112023809D01*
X162885714Y-111928571D01*
X162885714Y-111738095D01*
X162933333Y-111642857D01*
X163028571Y-111595238D01*
X163123809Y-111595238D01*
X163219047Y-112071428D01*
X163552380Y-110642857D02*
X163552380Y-111214285D01*
X163552380Y-110928571D02*
X162552380Y-110928571D01*
X162695238Y-111023809D01*
X162790476Y-111119047D01*
X162838095Y-111214285D01*
%TO.C,R2*%
X136082380Y-126166666D02*
X135606190Y-126500000D01*
X136082380Y-126738095D02*
X135082380Y-126738095D01*
X135082380Y-126357142D01*
X135130000Y-126261904D01*
X135177619Y-126214285D01*
X135272857Y-126166666D01*
X135415714Y-126166666D01*
X135510952Y-126214285D01*
X135558571Y-126261904D01*
X135606190Y-126357142D01*
X135606190Y-126738095D01*
X135177619Y-125785714D02*
X135130000Y-125738095D01*
X135082380Y-125642857D01*
X135082380Y-125404761D01*
X135130000Y-125309523D01*
X135177619Y-125261904D01*
X135272857Y-125214285D01*
X135368095Y-125214285D01*
X135510952Y-125261904D01*
X136082380Y-125833333D01*
X136082380Y-125214285D01*
X137547619Y-126685714D02*
X137500000Y-126638095D01*
X137452380Y-126542857D01*
X137452380Y-126304761D01*
X137500000Y-126209523D01*
X137547619Y-126161904D01*
X137642857Y-126114285D01*
X137738095Y-126114285D01*
X137880952Y-126161904D01*
X138452380Y-126733333D01*
X138452380Y-126114285D01*
X138452380Y-125685714D02*
X137452380Y-125685714D01*
X138452380Y-125114285D02*
X137880952Y-125542857D01*
X137452380Y-125114285D02*
X138023809Y-125685714D01*
%TO.C,SW_POWER*%
X149364285Y-126154761D02*
X149507142Y-126202380D01*
X149745238Y-126202380D01*
X149840476Y-126154761D01*
X149888095Y-126107142D01*
X149935714Y-126011904D01*
X149935714Y-125916666D01*
X149888095Y-125821428D01*
X149840476Y-125773809D01*
X149745238Y-125726190D01*
X149554761Y-125678571D01*
X149459523Y-125630952D01*
X149411904Y-125583333D01*
X149364285Y-125488095D01*
X149364285Y-125392857D01*
X149411904Y-125297619D01*
X149459523Y-125250000D01*
X149554761Y-125202380D01*
X149792857Y-125202380D01*
X149935714Y-125250000D01*
X150269047Y-125202380D02*
X150507142Y-126202380D01*
X150697619Y-125488095D01*
X150888095Y-126202380D01*
X151126190Y-125202380D01*
X151269047Y-126297619D02*
X152030952Y-126297619D01*
X152269047Y-126202380D02*
X152269047Y-125202380D01*
X152650000Y-125202380D01*
X152745238Y-125250000D01*
X152792857Y-125297619D01*
X152840476Y-125392857D01*
X152840476Y-125535714D01*
X152792857Y-125630952D01*
X152745238Y-125678571D01*
X152650000Y-125726190D01*
X152269047Y-125726190D01*
X153459523Y-125202380D02*
X153650000Y-125202380D01*
X153745238Y-125250000D01*
X153840476Y-125345238D01*
X153888095Y-125535714D01*
X153888095Y-125869047D01*
X153840476Y-126059523D01*
X153745238Y-126154761D01*
X153650000Y-126202380D01*
X153459523Y-126202380D01*
X153364285Y-126154761D01*
X153269047Y-126059523D01*
X153221428Y-125869047D01*
X153221428Y-125535714D01*
X153269047Y-125345238D01*
X153364285Y-125250000D01*
X153459523Y-125202380D01*
X154221428Y-125202380D02*
X154459523Y-126202380D01*
X154650000Y-125488095D01*
X154840476Y-126202380D01*
X155078571Y-125202380D01*
X155459523Y-125678571D02*
X155792857Y-125678571D01*
X155935714Y-126202380D02*
X155459523Y-126202380D01*
X155459523Y-125202380D01*
X155935714Y-125202380D01*
X156935714Y-126202380D02*
X156602380Y-125726190D01*
X156364285Y-126202380D02*
X156364285Y-125202380D01*
X156745238Y-125202380D01*
X156840476Y-125250000D01*
X156888095Y-125297619D01*
X156935714Y-125392857D01*
X156935714Y-125535714D01*
X156888095Y-125630952D01*
X156840476Y-125678571D01*
X156745238Y-125726190D01*
X156364285Y-125726190D01*
%TO.C,NEOPIXELcon1*%
X140087142Y-85182380D02*
X140087142Y-84182380D01*
X140658571Y-85182380D01*
X140658571Y-84182380D01*
X141134761Y-84658571D02*
X141468095Y-84658571D01*
X141610952Y-85182380D02*
X141134761Y-85182380D01*
X141134761Y-84182380D01*
X141610952Y-84182380D01*
X142230000Y-84182380D02*
X142420476Y-84182380D01*
X142515714Y-84230000D01*
X142610952Y-84325238D01*
X142658571Y-84515714D01*
X142658571Y-84849047D01*
X142610952Y-85039523D01*
X142515714Y-85134761D01*
X142420476Y-85182380D01*
X142230000Y-85182380D01*
X142134761Y-85134761D01*
X142039523Y-85039523D01*
X141991904Y-84849047D01*
X141991904Y-84515714D01*
X142039523Y-84325238D01*
X142134761Y-84230000D01*
X142230000Y-84182380D01*
X143087142Y-85182380D02*
X143087142Y-84182380D01*
X143468095Y-84182380D01*
X143563333Y-84230000D01*
X143610952Y-84277619D01*
X143658571Y-84372857D01*
X143658571Y-84515714D01*
X143610952Y-84610952D01*
X143563333Y-84658571D01*
X143468095Y-84706190D01*
X143087142Y-84706190D01*
X144087142Y-85182380D02*
X144087142Y-84182380D01*
X144468095Y-84182380D02*
X145134761Y-85182380D01*
X145134761Y-84182380D02*
X144468095Y-85182380D01*
X145515714Y-84658571D02*
X145849047Y-84658571D01*
X145991904Y-85182380D02*
X145515714Y-85182380D01*
X145515714Y-84182380D01*
X145991904Y-84182380D01*
X146896666Y-85182380D02*
X146420476Y-85182380D01*
X146420476Y-84182380D01*
X147658571Y-85134761D02*
X147563333Y-85182380D01*
X147372857Y-85182380D01*
X147277619Y-85134761D01*
X147230000Y-85087142D01*
X147182380Y-84991904D01*
X147182380Y-84706190D01*
X147230000Y-84610952D01*
X147277619Y-84563333D01*
X147372857Y-84515714D01*
X147563333Y-84515714D01*
X147658571Y-84563333D01*
X148230000Y-85182380D02*
X148134761Y-85134761D01*
X148087142Y-85087142D01*
X148039523Y-84991904D01*
X148039523Y-84706190D01*
X148087142Y-84610952D01*
X148134761Y-84563333D01*
X148230000Y-84515714D01*
X148372857Y-84515714D01*
X148468095Y-84563333D01*
X148515714Y-84610952D01*
X148563333Y-84706190D01*
X148563333Y-84991904D01*
X148515714Y-85087142D01*
X148468095Y-85134761D01*
X148372857Y-85182380D01*
X148230000Y-85182380D01*
X148991904Y-84515714D02*
X148991904Y-85182380D01*
X148991904Y-84610952D02*
X149039523Y-84563333D01*
X149134761Y-84515714D01*
X149277619Y-84515714D01*
X149372857Y-84563333D01*
X149420476Y-84658571D01*
X149420476Y-85182380D01*
X150420476Y-85182380D02*
X149849047Y-85182380D01*
X150134761Y-85182380D02*
X150134761Y-84182380D01*
X150039523Y-84325238D01*
X149944285Y-84420476D01*
X149849047Y-84468095D01*
%TO.C,SCD30con1*%
X143702380Y-49304761D02*
X143845238Y-49352380D01*
X144083333Y-49352380D01*
X144178571Y-49304761D01*
X144226190Y-49257142D01*
X144273809Y-49161904D01*
X144273809Y-49066666D01*
X144226190Y-48971428D01*
X144178571Y-48923809D01*
X144083333Y-48876190D01*
X143892857Y-48828571D01*
X143797619Y-48780952D01*
X143750000Y-48733333D01*
X143702380Y-48638095D01*
X143702380Y-48542857D01*
X143750000Y-48447619D01*
X143797619Y-48400000D01*
X143892857Y-48352380D01*
X144130952Y-48352380D01*
X144273809Y-48400000D01*
X145273809Y-49257142D02*
X145226190Y-49304761D01*
X145083333Y-49352380D01*
X144988095Y-49352380D01*
X144845238Y-49304761D01*
X144750000Y-49209523D01*
X144702380Y-49114285D01*
X144654761Y-48923809D01*
X144654761Y-48780952D01*
X144702380Y-48590476D01*
X144750000Y-48495238D01*
X144845238Y-48400000D01*
X144988095Y-48352380D01*
X145083333Y-48352380D01*
X145226190Y-48400000D01*
X145273809Y-48447619D01*
X145702380Y-49352380D02*
X145702380Y-48352380D01*
X145940476Y-48352380D01*
X146083333Y-48400000D01*
X146178571Y-48495238D01*
X146226190Y-48590476D01*
X146273809Y-48780952D01*
X146273809Y-48923809D01*
X146226190Y-49114285D01*
X146178571Y-49209523D01*
X146083333Y-49304761D01*
X145940476Y-49352380D01*
X145702380Y-49352380D01*
X146607142Y-48352380D02*
X147226190Y-48352380D01*
X146892857Y-48733333D01*
X147035714Y-48733333D01*
X147130952Y-48780952D01*
X147178571Y-48828571D01*
X147226190Y-48923809D01*
X147226190Y-49161904D01*
X147178571Y-49257142D01*
X147130952Y-49304761D01*
X147035714Y-49352380D01*
X146750000Y-49352380D01*
X146654761Y-49304761D01*
X146607142Y-49257142D01*
X147845238Y-48352380D02*
X147940476Y-48352380D01*
X148035714Y-48400000D01*
X148083333Y-48447619D01*
X148130952Y-48542857D01*
X148178571Y-48733333D01*
X148178571Y-48971428D01*
X148130952Y-49161904D01*
X148083333Y-49257142D01*
X148035714Y-49304761D01*
X147940476Y-49352380D01*
X147845238Y-49352380D01*
X147750000Y-49304761D01*
X147702380Y-49257142D01*
X147654761Y-49161904D01*
X147607142Y-48971428D01*
X147607142Y-48733333D01*
X147654761Y-48542857D01*
X147702380Y-48447619D01*
X147750000Y-48400000D01*
X147845238Y-48352380D01*
X149035714Y-49304761D02*
X148940476Y-49352380D01*
X148750000Y-49352380D01*
X148654761Y-49304761D01*
X148607142Y-49257142D01*
X148559523Y-49161904D01*
X148559523Y-48876190D01*
X148607142Y-48780952D01*
X148654761Y-48733333D01*
X148750000Y-48685714D01*
X148940476Y-48685714D01*
X149035714Y-48733333D01*
X149607142Y-49352380D02*
X149511904Y-49304761D01*
X149464285Y-49257142D01*
X149416666Y-49161904D01*
X149416666Y-48876190D01*
X149464285Y-48780952D01*
X149511904Y-48733333D01*
X149607142Y-48685714D01*
X149750000Y-48685714D01*
X149845238Y-48733333D01*
X149892857Y-48780952D01*
X149940476Y-48876190D01*
X149940476Y-49161904D01*
X149892857Y-49257142D01*
X149845238Y-49304761D01*
X149750000Y-49352380D01*
X149607142Y-49352380D01*
X150369047Y-48685714D02*
X150369047Y-49352380D01*
X150369047Y-48780952D02*
X150416666Y-48733333D01*
X150511904Y-48685714D01*
X150654761Y-48685714D01*
X150750000Y-48733333D01*
X150797619Y-48828571D01*
X150797619Y-49352380D01*
X151797619Y-49352380D02*
X151226190Y-49352380D01*
X151511904Y-49352380D02*
X151511904Y-48352380D01*
X151416666Y-48495238D01*
X151321428Y-48590476D01*
X151226190Y-48638095D01*
%TO.C,TempProbe2*%
X172052380Y-119452380D02*
X172052380Y-118880952D01*
X173052380Y-119166666D02*
X172052380Y-119166666D01*
X173004761Y-118166666D02*
X173052380Y-118261904D01*
X173052380Y-118452380D01*
X173004761Y-118547619D01*
X172909523Y-118595238D01*
X172528571Y-118595238D01*
X172433333Y-118547619D01*
X172385714Y-118452380D01*
X172385714Y-118261904D01*
X172433333Y-118166666D01*
X172528571Y-118119047D01*
X172623809Y-118119047D01*
X172719047Y-118595238D01*
X173052380Y-117690476D02*
X172385714Y-117690476D01*
X172480952Y-117690476D02*
X172433333Y-117642857D01*
X172385714Y-117547619D01*
X172385714Y-117404761D01*
X172433333Y-117309523D01*
X172528571Y-117261904D01*
X173052380Y-117261904D01*
X172528571Y-117261904D02*
X172433333Y-117214285D01*
X172385714Y-117119047D01*
X172385714Y-116976190D01*
X172433333Y-116880952D01*
X172528571Y-116833333D01*
X173052380Y-116833333D01*
X172385714Y-116357142D02*
X173385714Y-116357142D01*
X172433333Y-116357142D02*
X172385714Y-116261904D01*
X172385714Y-116071428D01*
X172433333Y-115976190D01*
X172480952Y-115928571D01*
X172576190Y-115880952D01*
X172861904Y-115880952D01*
X172957142Y-115928571D01*
X173004761Y-115976190D01*
X173052380Y-116071428D01*
X173052380Y-116261904D01*
X173004761Y-116357142D01*
X173052380Y-115452380D02*
X172052380Y-115452380D01*
X172052380Y-115071428D01*
X172100000Y-114976190D01*
X172147619Y-114928571D01*
X172242857Y-114880952D01*
X172385714Y-114880952D01*
X172480952Y-114928571D01*
X172528571Y-114976190D01*
X172576190Y-115071428D01*
X172576190Y-115452380D01*
X173052380Y-114452380D02*
X172385714Y-114452380D01*
X172576190Y-114452380D02*
X172480952Y-114404761D01*
X172433333Y-114357142D01*
X172385714Y-114261904D01*
X172385714Y-114166666D01*
X173052380Y-113690476D02*
X173004761Y-113785714D01*
X172957142Y-113833333D01*
X172861904Y-113880952D01*
X172576190Y-113880952D01*
X172480952Y-113833333D01*
X172433333Y-113785714D01*
X172385714Y-113690476D01*
X172385714Y-113547619D01*
X172433333Y-113452380D01*
X172480952Y-113404761D01*
X172576190Y-113357142D01*
X172861904Y-113357142D01*
X172957142Y-113404761D01*
X173004761Y-113452380D01*
X173052380Y-113547619D01*
X173052380Y-113690476D01*
X173052380Y-112928571D02*
X172052380Y-112928571D01*
X172433333Y-112928571D02*
X172385714Y-112833333D01*
X172385714Y-112642857D01*
X172433333Y-112547619D01*
X172480952Y-112500000D01*
X172576190Y-112452380D01*
X172861904Y-112452380D01*
X172957142Y-112500000D01*
X173004761Y-112547619D01*
X173052380Y-112642857D01*
X173052380Y-112833333D01*
X173004761Y-112928571D01*
X173004761Y-111642857D02*
X173052380Y-111738095D01*
X173052380Y-111928571D01*
X173004761Y-112023809D01*
X172909523Y-112071428D01*
X172528571Y-112071428D01*
X172433333Y-112023809D01*
X172385714Y-111928571D01*
X172385714Y-111738095D01*
X172433333Y-111642857D01*
X172528571Y-111595238D01*
X172623809Y-111595238D01*
X172719047Y-112071428D01*
X172147619Y-111214285D02*
X172100000Y-111166666D01*
X172052380Y-111071428D01*
X172052380Y-110833333D01*
X172100000Y-110738095D01*
X172147619Y-110690476D01*
X172242857Y-110642857D01*
X172338095Y-110642857D01*
X172480952Y-110690476D01*
X173052380Y-111261904D01*
X173052380Y-110642857D01*
%TO.C,G\u002A\u002A\u002A*%
G36*
X174747906Y-105794933D02*
G01*
X174980595Y-105758224D01*
X175210993Y-105719688D01*
X175211308Y-105719634D01*
X175363473Y-105706486D01*
X175484875Y-105743848D01*
X175625764Y-105850637D01*
X175673410Y-105893595D01*
X175819064Y-106044148D01*
X175887955Y-106178757D01*
X175906596Y-106352118D01*
X175906717Y-106374880D01*
X175851849Y-106642712D01*
X175702882Y-106853055D01*
X175483276Y-106991272D01*
X175216489Y-107042724D01*
X174925980Y-106992775D01*
X174919950Y-106990591D01*
X174838047Y-106975208D01*
X174802512Y-107029132D01*
X174794827Y-107178657D01*
X174781833Y-107338027D01*
X174728874Y-107411538D01*
X174654064Y-107432554D01*
X174596630Y-107436918D01*
X174557428Y-107417739D01*
X174532975Y-107355454D01*
X174519791Y-107230500D01*
X174514395Y-107023317D01*
X174513307Y-106714342D01*
X174513300Y-106641465D01*
X174513300Y-106380296D01*
X174826108Y-106380296D01*
X174851797Y-106577549D01*
X174940948Y-106702567D01*
X174965151Y-106720837D01*
X175147930Y-106807417D01*
X175320322Y-106785464D01*
X175474568Y-106688563D01*
X175609242Y-106514665D01*
X175634704Y-106313495D01*
X175549356Y-106120432D01*
X175502489Y-106069925D01*
X175309775Y-105957861D01*
X175117496Y-105954425D01*
X174954482Y-106046390D01*
X174849561Y-106220526D01*
X174826108Y-106380296D01*
X174513300Y-106380296D01*
X174513300Y-105830384D01*
X174747906Y-105794933D01*
G37*
G36*
X170697044Y-106372846D02*
G01*
X170751532Y-106109071D01*
X170897483Y-105901433D01*
X171108628Y-105763707D01*
X171358697Y-105709663D01*
X171621420Y-105753075D01*
X171754150Y-105818631D01*
X171966675Y-105951715D01*
X171570674Y-106351267D01*
X171384530Y-106543816D01*
X171279063Y-106668546D01*
X171243242Y-106742758D01*
X171266033Y-106783751D01*
X171288116Y-106794351D01*
X171425811Y-106794801D01*
X171604457Y-106728595D01*
X171608931Y-106726205D01*
X171776326Y-106660300D01*
X171907942Y-106649359D01*
X171977645Y-106688270D01*
X171959303Y-106771919D01*
X171944238Y-106791812D01*
X171724277Y-106966261D01*
X171452116Y-107050033D01*
X171171290Y-107032065D01*
X171096695Y-107007159D01*
X170898600Y-106865858D01*
X170756344Y-106646224D01*
X170744243Y-106594032D01*
X170947290Y-106594032D01*
X171228817Y-106317734D01*
X171375393Y-106166588D01*
X171477219Y-106047652D01*
X171510344Y-105991901D01*
X171463290Y-105944172D01*
X171347750Y-105953697D01*
X171202162Y-106012742D01*
X171112131Y-106072029D01*
X170977355Y-106236875D01*
X170947290Y-106397863D01*
X170947290Y-106594032D01*
X170744243Y-106594032D01*
X170697348Y-106391776D01*
X170697044Y-106372846D01*
G37*
G36*
X172274412Y-105925704D02*
G01*
X172481033Y-105775771D01*
X172718709Y-105711215D01*
X172848054Y-105720482D01*
X173060549Y-105761987D01*
X173246428Y-105795775D01*
X173449753Y-105830931D01*
X173449753Y-106418421D01*
X173447823Y-106692766D01*
X173438717Y-106865345D01*
X173417465Y-106959498D01*
X173379097Y-106998563D01*
X173324630Y-107005912D01*
X173222994Y-106978245D01*
X173199507Y-106939803D01*
X173157352Y-106921512D01*
X173060464Y-106971083D01*
X172833204Y-107057716D01*
X172575922Y-107031234D01*
X172433914Y-106970540D01*
X172257532Y-106818609D01*
X172125827Y-106603721D01*
X172073405Y-106382533D01*
X172073399Y-106380296D01*
X172323645Y-106380296D01*
X172373314Y-106527143D01*
X172494086Y-106677483D01*
X172643606Y-106787842D01*
X172750295Y-106818227D01*
X172881416Y-106780919D01*
X173031627Y-106690938D01*
X173034666Y-106688563D01*
X173173315Y-106514356D01*
X173199507Y-106380296D01*
X173144817Y-106204949D01*
X173008669Y-106049387D01*
X172832946Y-105954442D01*
X172750295Y-105942365D01*
X172607231Y-105993347D01*
X172460764Y-106117312D01*
X172353247Y-106270786D01*
X172323645Y-106380296D01*
X172073399Y-106380296D01*
X172128613Y-106135663D01*
X172274412Y-105925704D01*
G37*
G36*
X174157940Y-105776124D02*
G01*
X174267011Y-105853291D01*
X174316427Y-105941910D01*
X174265362Y-106004226D01*
X174259031Y-106008267D01*
X174124815Y-106039976D01*
X174059729Y-106030563D01*
X173966884Y-106026571D01*
X173956020Y-106083227D01*
X174017801Y-106175637D01*
X174142895Y-106278906D01*
X174155981Y-106287281D01*
X174312718Y-106440336D01*
X174385679Y-106628348D01*
X174369703Y-106814906D01*
X174259629Y-106963592D01*
X174252556Y-106968687D01*
X174063451Y-107058415D01*
X173887046Y-107035060D01*
X173776482Y-106971083D01*
X173672462Y-106867687D01*
X173637438Y-106783399D01*
X173685211Y-106711540D01*
X173793693Y-106697151D01*
X173910632Y-106743896D01*
X173932282Y-106762727D01*
X174033671Y-106799155D01*
X174117921Y-106741501D01*
X174137931Y-106665556D01*
X174091783Y-106579707D01*
X173975804Y-106462016D01*
X173918965Y-106415818D01*
X173751652Y-106240167D01*
X173702620Y-106064685D01*
X173773848Y-105899915D01*
X173814409Y-105858219D01*
X173985208Y-105767205D01*
X174157940Y-105776124D01*
G37*
G36*
X177463933Y-105793196D02*
G01*
X177551220Y-105847334D01*
X177631286Y-105924017D01*
X177610719Y-105978994D01*
X177578817Y-106002310D01*
X177440971Y-106039211D01*
X177375492Y-106030563D01*
X177281176Y-106025609D01*
X177269907Y-106081770D01*
X177332287Y-106175847D01*
X177458913Y-106284641D01*
X177485749Y-106302669D01*
X177653029Y-106468237D01*
X177708542Y-106661026D01*
X177648730Y-106856536D01*
X177578817Y-106943350D01*
X177405976Y-107053353D01*
X177221288Y-107041433D01*
X177092245Y-106971083D01*
X176988226Y-106867687D01*
X176953202Y-106783399D01*
X177000974Y-106711540D01*
X177109456Y-106697151D01*
X177226395Y-106743896D01*
X177248046Y-106762727D01*
X177349434Y-106799155D01*
X177433684Y-106741501D01*
X177453694Y-106665556D01*
X177407547Y-106579707D01*
X177291568Y-106462016D01*
X177234729Y-106415818D01*
X177067809Y-106238830D01*
X177016055Y-106058261D01*
X177082512Y-105888319D01*
X177114074Y-105852991D01*
X177279106Y-105762718D01*
X177463933Y-105793196D01*
G37*
G36*
X170464065Y-105131155D02*
G01*
X170630293Y-105140955D01*
X170719051Y-105163757D01*
X170754153Y-105204853D01*
X170759606Y-105254188D01*
X170735112Y-105340425D01*
X170639491Y-105375221D01*
X170540640Y-105379311D01*
X170321674Y-105379311D01*
X170321674Y-106192611D01*
X170320613Y-106524637D01*
X170315384Y-106751484D01*
X170302920Y-106893093D01*
X170280153Y-106969403D01*
X170244015Y-107000355D01*
X170196551Y-107005912D01*
X170145470Y-106999014D01*
X170110571Y-106965026D01*
X170088785Y-106884009D01*
X170077045Y-106736022D01*
X170072283Y-106501126D01*
X170071428Y-106192611D01*
X170071428Y-105379311D01*
X169852463Y-105379311D01*
X169701547Y-105365314D01*
X169640655Y-105310674D01*
X169633497Y-105254188D01*
X169642905Y-105194740D01*
X169687006Y-105157801D01*
X169789615Y-105138077D01*
X169974546Y-105130276D01*
X170196551Y-105129064D01*
X170464065Y-105131155D01*
G37*
G36*
X176260617Y-105826216D02*
G01*
X176297320Y-105868614D01*
X176317458Y-105967644D01*
X176325917Y-106146516D01*
X176327586Y-106411577D01*
X176325696Y-106687811D01*
X176316771Y-106862150D01*
X176295922Y-106957805D01*
X176258265Y-106997984D01*
X176202463Y-107005912D01*
X176144308Y-106996937D01*
X176107605Y-106954540D01*
X176087467Y-106855510D01*
X176079008Y-106676638D01*
X176077340Y-106411577D01*
X176079229Y-106135343D01*
X176088155Y-105961004D01*
X176109003Y-105865349D01*
X176146660Y-105825169D01*
X176202463Y-105817242D01*
X176260617Y-105826216D01*
G37*
G36*
X176688482Y-105135214D02*
G01*
X176722366Y-105166054D01*
X176744524Y-105240172D01*
X176757434Y-105376155D01*
X176763575Y-105592590D01*
X176765424Y-105908064D01*
X176765517Y-106067488D01*
X176764697Y-106428152D01*
X176760585Y-106682282D01*
X176750702Y-106848466D01*
X176732571Y-106945291D01*
X176703713Y-106991344D01*
X176661650Y-107005213D01*
X176640394Y-107005912D01*
X176592305Y-106999762D01*
X176558421Y-106968922D01*
X176536263Y-106894804D01*
X176523353Y-106758821D01*
X176517213Y-106542387D01*
X176515364Y-106226913D01*
X176515271Y-106067488D01*
X176516090Y-105706824D01*
X176520203Y-105452694D01*
X176530085Y-105286510D01*
X176548216Y-105189685D01*
X176577074Y-105143632D01*
X176619137Y-105129764D01*
X176640394Y-105129064D01*
X176688482Y-105135214D01*
G37*
G36*
X176315627Y-105362064D02*
G01*
X176355122Y-105464344D01*
X176310185Y-105559372D01*
X176185980Y-105625267D01*
X176075668Y-105593915D01*
X176038551Y-105538711D01*
X176036577Y-105402927D01*
X176134753Y-105324982D01*
X176199461Y-105316749D01*
X176315627Y-105362064D01*
G37*
G36*
X173752116Y-94631898D02*
G01*
X173878715Y-94759876D01*
X174075158Y-94963277D01*
X174333755Y-95234001D01*
X174646821Y-95563952D01*
X175006666Y-95945032D01*
X175405603Y-96369143D01*
X175835945Y-96828187D01*
X176197564Y-97215025D01*
X178650794Y-99842611D01*
X177703940Y-99879155D01*
X177701898Y-101456203D01*
X177701105Y-101939585D01*
X177699461Y-102309369D01*
X177695960Y-102577081D01*
X177689593Y-102754245D01*
X177679352Y-102852387D01*
X177664230Y-102883033D01*
X177643218Y-102857707D01*
X177615309Y-102787936D01*
X177591407Y-102719627D01*
X177403561Y-102277494D01*
X177154918Y-101876727D01*
X176834103Y-101506891D01*
X176429739Y-101157552D01*
X175930447Y-100818276D01*
X175324852Y-100478628D01*
X174937386Y-100285499D01*
X174471257Y-100045657D01*
X174081058Y-99812648D01*
X173777859Y-99594369D01*
X173572734Y-99398719D01*
X173480327Y-99246048D01*
X173416089Y-99138137D01*
X173344782Y-99146887D01*
X173300891Y-99232636D01*
X173282355Y-99336402D01*
X173256407Y-99535153D01*
X173226645Y-99799238D01*
X173199740Y-100066488D01*
X173170540Y-100899145D01*
X173249175Y-101676578D01*
X173438067Y-102410974D01*
X173739642Y-103114520D01*
X173844240Y-103307002D01*
X174210175Y-103850393D01*
X174625531Y-104279374D01*
X175091995Y-104595193D01*
X175611250Y-104799096D01*
X175952216Y-104868715D01*
X176001463Y-104882353D01*
X175941625Y-104894303D01*
X175770467Y-104904613D01*
X175485750Y-104913334D01*
X175085239Y-104920514D01*
X174566695Y-104926205D01*
X173927882Y-104930454D01*
X173166564Y-104933313D01*
X173027463Y-104933658D01*
X169696059Y-104941380D01*
X169696059Y-99879155D01*
X169229609Y-99860883D01*
X168763160Y-99842611D01*
X169276530Y-99297714D01*
X169789901Y-98752816D01*
X170282307Y-98755621D01*
X170531753Y-98754414D01*
X170694403Y-98739478D01*
X170808568Y-98699061D01*
X170912560Y-98621413D01*
X171004403Y-98534139D01*
X171234093Y-98309853D01*
X172248930Y-98309853D01*
X172721407Y-98315029D01*
X173069750Y-98330549D01*
X173293759Y-98356400D01*
X173382961Y-98384291D01*
X173502788Y-98426218D01*
X173601077Y-98376630D01*
X173683150Y-98273696D01*
X173700000Y-98216010D01*
X173656132Y-98114457D01*
X173601077Y-98055390D01*
X173493145Y-98005464D01*
X173382961Y-98047730D01*
X173260768Y-98081155D01*
X173016567Y-98104654D01*
X172649411Y-98118285D01*
X172217649Y-98122168D01*
X171171531Y-98122168D01*
X170940346Y-98347915D01*
X170796985Y-98476153D01*
X170669490Y-98545219D01*
X170506865Y-98574641D01*
X170327694Y-98582521D01*
X170127936Y-98583713D01*
X169989857Y-98577950D01*
X169946267Y-98568262D01*
X169987116Y-98516741D01*
X170097447Y-98395742D01*
X170258983Y-98224975D01*
X170399775Y-98079147D01*
X170594420Y-97875601D01*
X170757791Y-97698214D01*
X170868697Y-97570362D01*
X170903377Y-97523570D01*
X171000579Y-97460336D01*
X171176256Y-97434084D01*
X171188373Y-97433991D01*
X171366881Y-97457338D01*
X171519915Y-97544763D01*
X171635468Y-97652956D01*
X171847697Y-97871922D01*
X173176807Y-97871922D01*
X173639126Y-97874837D01*
X174017736Y-97883260D01*
X174302046Y-97896707D01*
X174481463Y-97914693D01*
X174544581Y-97934483D01*
X174642285Y-97991593D01*
X174778181Y-97979176D01*
X174882089Y-97911132D01*
X174921530Y-97792560D01*
X174880324Y-97675822D01*
X174788990Y-97594284D01*
X174678045Y-97581310D01*
X174615450Y-97619624D01*
X174529271Y-97642680D01*
X174327500Y-97661098D01*
X174019594Y-97674435D01*
X173615015Y-97682253D01*
X173227972Y-97684237D01*
X172786925Y-97683582D01*
X172453909Y-97680626D01*
X172211835Y-97673880D01*
X172043612Y-97661854D01*
X171932153Y-97643060D01*
X171860366Y-97616008D01*
X171811163Y-97579210D01*
X171791872Y-97559114D01*
X171752501Y-97511970D01*
X171744218Y-97478462D01*
X171783151Y-97456263D01*
X171885431Y-97443044D01*
X172067188Y-97436477D01*
X172344552Y-97434235D01*
X172658886Y-97433991D01*
X173106802Y-97438712D01*
X173436655Y-97453194D01*
X173655161Y-97477908D01*
X173767220Y-97512193D01*
X173877091Y-97555509D01*
X173960081Y-97501167D01*
X173986180Y-97467801D01*
X174054448Y-97326535D01*
X174008273Y-97216353D01*
X173931098Y-97157389D01*
X173800590Y-97126165D01*
X173701065Y-97168560D01*
X173566215Y-97208466D01*
X173317613Y-97234582D01*
X172965976Y-97245901D01*
X172873645Y-97246306D01*
X172570241Y-97245606D01*
X172374225Y-97241010D01*
X172267861Y-97228768D01*
X172233415Y-97205133D01*
X172253152Y-97166356D01*
X172294102Y-97123833D01*
X172355911Y-97074493D01*
X172439789Y-97039961D01*
X172567812Y-97017358D01*
X172762056Y-97003805D01*
X173044598Y-96996421D01*
X173293349Y-96993501D01*
X173619420Y-96993522D01*
X173906328Y-96999028D01*
X174127947Y-97009117D01*
X174258149Y-97022885D01*
X174275040Y-97027423D01*
X174452217Y-97056158D01*
X174570414Y-96992670D01*
X174607142Y-96870080D01*
X174573205Y-96742675D01*
X174459163Y-96693595D01*
X174316373Y-96703293D01*
X174243326Y-96740516D01*
X174150198Y-96769815D01*
X173944975Y-96791496D01*
X173640503Y-96804628D01*
X173307006Y-96808375D01*
X172438545Y-96808375D01*
X172167327Y-97030617D01*
X171996037Y-97160258D01*
X171856442Y-97223230D01*
X171689499Y-97239022D01*
X171551359Y-97233943D01*
X171206609Y-97215025D01*
X172434184Y-95901232D01*
X172749996Y-95564718D01*
X173038558Y-95260066D01*
X173288788Y-94998754D01*
X173489602Y-94792255D01*
X173629918Y-94652045D01*
X173698652Y-94589601D01*
X173703046Y-94587439D01*
X173752116Y-94631898D01*
G37*
G36*
X175902775Y-102538548D02*
G01*
X176039852Y-102635795D01*
X176254488Y-102795217D01*
X176313112Y-102839463D01*
X176647850Y-103145708D01*
X176980995Y-103549279D01*
X177292319Y-104023777D01*
X177468047Y-104347045D01*
X177597445Y-104616247D01*
X177666299Y-104793875D01*
X177678232Y-104895772D01*
X177636863Y-104937782D01*
X177603887Y-104941380D01*
X177531913Y-104923276D01*
X177536136Y-104900645D01*
X177524516Y-104832879D01*
X177463247Y-104677527D01*
X177362118Y-104457105D01*
X177230918Y-104194133D01*
X177219167Y-104171453D01*
X176929237Y-103667002D01*
X176619765Y-103246435D01*
X176258463Y-102869162D01*
X176011964Y-102653795D01*
X175883325Y-102544153D01*
X175848764Y-102506868D01*
X175902775Y-102538548D01*
G37*
D13*
%TO.C,DISPLAYcon1*%
X152860000Y-59010000D02*
X151860000Y-59010000D01*
X152860000Y-60510000D02*
X152860000Y-56490000D01*
X140640000Y-58200000D02*
X140640000Y-56990000D01*
X139840000Y-58310000D02*
X139840000Y-60810000D01*
X140640000Y-56990000D02*
X152360000Y-56990000D01*
X141140000Y-59010000D02*
X141140000Y-60510000D01*
X152360000Y-58200000D02*
X152860000Y-58200000D01*
X152360000Y-56990000D02*
X152360000Y-58200000D01*
X140140000Y-59010000D02*
X141140000Y-59010000D01*
X140140000Y-58200000D02*
X140640000Y-58200000D01*
X139840000Y-60810000D02*
X142340000Y-60810000D01*
X151860000Y-59010000D02*
X151860000Y-60510000D01*
X140140000Y-60510000D02*
X152860000Y-60510000D01*
X152860000Y-56490000D02*
X140140000Y-56490000D01*
X140140000Y-56490000D02*
X140140000Y-60510000D01*
%TO.C,R1*%
X142960000Y-129270000D02*
X142630000Y-129270000D01*
X142630000Y-129270000D02*
X142630000Y-122730000D01*
X142630000Y-122730000D02*
X142960000Y-122730000D01*
X145370000Y-122730000D02*
X145040000Y-122730000D01*
X145370000Y-129270000D02*
X145370000Y-122730000D01*
X145040000Y-129270000D02*
X145370000Y-129270000D01*
%TO.C,SoilMoisturecon1*%
X103670000Y-113745000D02*
X103670000Y-118885000D01*
X103670000Y-118885000D02*
X106330000Y-118885000D01*
X103670000Y-113745000D02*
X106330000Y-113745000D01*
X103670000Y-111145000D02*
X105000000Y-111145000D01*
X106330000Y-113745000D02*
X106330000Y-118885000D01*
X103670000Y-112475000D02*
X103670000Y-111145000D01*
D14*
%TO.C,ESP32*%
X134950000Y-102750000D02*
X107050000Y-102750000D01*
X107050000Y-48350000D02*
X134950000Y-48350000D01*
X107050000Y-102750000D02*
X107050000Y-48350000D01*
X134950000Y-48350000D02*
X134950000Y-102750000D01*
D13*
%TO.C,JP1*%
X131670000Y-124750000D02*
X131670000Y-123420000D01*
X134330000Y-126020000D02*
X134330000Y-128620000D01*
X131670000Y-126020000D02*
X131670000Y-128620000D01*
X131670000Y-128620000D02*
X134330000Y-128620000D01*
X131670000Y-123420000D02*
X133000000Y-123420000D01*
X131670000Y-126020000D02*
X134330000Y-126020000D01*
%TO.C,I2Ccon1*%
X159195000Y-60970000D02*
X161855000Y-60970000D01*
X161855000Y-58370000D02*
X161855000Y-59700000D01*
X160525000Y-58370000D02*
X161855000Y-58370000D01*
X159195000Y-60970000D02*
X159195000Y-68650000D01*
X159195000Y-68650000D02*
X161855000Y-68650000D01*
X161855000Y-60970000D02*
X161855000Y-68650000D01*
%TO.C,PowerSupplycon1*%
X149355000Y-97025000D02*
X149355000Y-98355000D01*
X149355000Y-98355000D02*
X148025000Y-98355000D01*
X146755000Y-95695000D02*
X146755000Y-98355000D01*
X141615000Y-95695000D02*
X141615000Y-98355000D01*
X146755000Y-98355000D02*
X141615000Y-98355000D01*
X146755000Y-95695000D02*
X141615000Y-95695000D01*
%TO.C,U_RTC1*%
X162000000Y-51500000D02*
X185000000Y-51500000D01*
X162000000Y-84500000D02*
X185000000Y-84500000D01*
X185000000Y-84500000D02*
X185000000Y-50500000D01*
X185000000Y-50500000D02*
X162000000Y-50500000D01*
X162000000Y-50500000D02*
X162000000Y-84500000D01*
X170550000Y-58800000D02*
X175450000Y-58800000D01*
X175450000Y-58800000D02*
X175450000Y-62500000D01*
X175450000Y-62500000D02*
X170550000Y-62500000D01*
X170550000Y-62500000D02*
X170550000Y-58800000D01*
X181031219Y-69500000D02*
G75*
G03*
X181031219Y-69500000I-8015610J0D01*
G01*
%TO.C,LEDSTRIPEcon1*%
X140390000Y-71290000D02*
X152110000Y-71290000D01*
X139890000Y-70790000D02*
X139890000Y-74810000D01*
X140890000Y-73310000D02*
X140890000Y-74810000D01*
X151610000Y-73310000D02*
X151610000Y-74810000D01*
X152610000Y-74810000D02*
X152610000Y-70790000D01*
X139890000Y-73310000D02*
X140890000Y-73310000D01*
X152110000Y-71290000D02*
X152110000Y-72500000D01*
X139890000Y-74810000D02*
X152610000Y-74810000D01*
X152110000Y-72500000D02*
X152610000Y-72500000D01*
X139590000Y-72610000D02*
X139590000Y-75110000D01*
X152610000Y-70790000D02*
X139890000Y-70790000D01*
X139890000Y-72500000D02*
X140390000Y-72500000D01*
X140390000Y-72500000D02*
X140390000Y-71290000D01*
X139590000Y-75110000D02*
X142090000Y-75110000D01*
X152610000Y-73310000D02*
X151610000Y-73310000D01*
%TO.C,VEML7700con1*%
X152860000Y-65810000D02*
X151860000Y-65810000D01*
X140140000Y-65000000D02*
X140640000Y-65000000D01*
X140640000Y-65000000D02*
X140640000Y-63790000D01*
X152360000Y-63790000D02*
X152360000Y-65000000D01*
X140140000Y-63290000D02*
X140140000Y-67310000D01*
X152860000Y-67310000D02*
X152860000Y-63290000D01*
X139840000Y-65110000D02*
X139840000Y-67610000D01*
X151860000Y-65810000D02*
X151860000Y-67310000D01*
X141140000Y-65810000D02*
X141140000Y-67310000D01*
X140140000Y-67310000D02*
X152860000Y-67310000D01*
X152860000Y-63290000D02*
X140140000Y-63290000D01*
X139840000Y-67610000D02*
X142340000Y-67610000D01*
X140640000Y-63790000D02*
X152360000Y-63790000D01*
X152360000Y-65000000D02*
X152860000Y-65000000D01*
X140140000Y-65810000D02*
X141140000Y-65810000D01*
%TO.C,RTemp2*%
X154670000Y-111730000D02*
X154340000Y-111730000D01*
X151930000Y-111730000D02*
X152260000Y-111730000D01*
X154670000Y-118270000D02*
X154670000Y-111730000D01*
X154340000Y-118270000D02*
X154670000Y-118270000D01*
X152260000Y-118270000D02*
X151930000Y-118270000D01*
X151930000Y-118270000D02*
X151930000Y-111730000D01*
%TO.C,RTemp1*%
X174130000Y-117770000D02*
X174130000Y-111230000D01*
X174460000Y-117770000D02*
X174130000Y-117770000D01*
X176540000Y-117770000D02*
X176870000Y-117770000D01*
X176870000Y-117770000D02*
X176870000Y-111230000D01*
X176870000Y-111230000D02*
X176540000Y-111230000D01*
X174130000Y-111230000D02*
X174460000Y-111230000D01*
%TO.C,TempProbe1*%
X160190000Y-109590000D02*
X157690000Y-109590000D01*
X162010000Y-120110000D02*
X162010000Y-109890000D01*
X161510000Y-110390000D02*
X161510000Y-119610000D01*
X160300000Y-110390000D02*
X161510000Y-110390000D01*
X161510000Y-119610000D02*
X160300000Y-119610000D01*
X160300000Y-119610000D02*
X160300000Y-120110000D01*
X157990000Y-120110000D02*
X162010000Y-120110000D01*
X159490000Y-109890000D02*
X159490000Y-110890000D01*
X162010000Y-109890000D02*
X157990000Y-109890000D01*
X159490000Y-119110000D02*
X157990000Y-119110000D01*
X159490000Y-110890000D02*
X157990000Y-110890000D01*
X160300000Y-109890000D02*
X160300000Y-110390000D01*
X157990000Y-109890000D02*
X157990000Y-120110000D01*
X157690000Y-109590000D02*
X157690000Y-112090000D01*
X159490000Y-120110000D02*
X159490000Y-119110000D01*
%TO.C,R2*%
X139040000Y-129270000D02*
X139370000Y-129270000D01*
X139370000Y-122730000D02*
X139040000Y-122730000D01*
X136960000Y-129270000D02*
X136630000Y-129270000D01*
X139370000Y-129270000D02*
X139370000Y-122730000D01*
X136630000Y-122730000D02*
X136960000Y-122730000D01*
X136630000Y-129270000D02*
X136630000Y-122730000D01*
%TO.C,SW_POWER*%
X157692500Y-127025000D02*
X157692500Y-131225000D01*
X148492500Y-127025000D02*
X148492500Y-131225000D01*
X149692500Y-127025000D02*
X148492500Y-127025000D01*
X156492500Y-127025000D02*
X157692500Y-127025000D01*
X148492500Y-131225000D02*
X149692500Y-131225000D01*
X148192500Y-126725000D02*
X148192500Y-127925000D01*
X149392500Y-126725000D02*
X148192500Y-126725000D01*
X157692500Y-131225000D02*
X156492500Y-131225000D01*
%TO.C,NEOPIXELcon1*%
X142630000Y-86170000D02*
X142630000Y-91370000D01*
X145230000Y-86170000D02*
X145230000Y-88770000D01*
X142630000Y-91370000D02*
X147830000Y-91370000D01*
X145230000Y-88770000D02*
X147830000Y-88770000D01*
X142630000Y-86170000D02*
X145230000Y-86170000D01*
X147830000Y-88770000D02*
X147830000Y-91370000D01*
X146500000Y-86170000D02*
X147830000Y-86170000D01*
X147830000Y-86170000D02*
X147830000Y-87500000D01*
%TO.C,SCD30con1*%
X140140000Y-54010000D02*
X155360000Y-54010000D01*
X155360000Y-49990000D02*
X140140000Y-49990000D01*
X154860000Y-50490000D02*
X154860000Y-51700000D01*
X140640000Y-50490000D02*
X154860000Y-50490000D01*
X154360000Y-52510000D02*
X154360000Y-54010000D01*
X155360000Y-52510000D02*
X154360000Y-52510000D01*
X139840000Y-51810000D02*
X139840000Y-54310000D01*
X140140000Y-52510000D02*
X141140000Y-52510000D01*
X154860000Y-51700000D02*
X155360000Y-51700000D01*
X141140000Y-52510000D02*
X141140000Y-54010000D01*
X140140000Y-49990000D02*
X140140000Y-54010000D01*
X140640000Y-51700000D02*
X140640000Y-50490000D01*
X140140000Y-51700000D02*
X140640000Y-51700000D01*
X139840000Y-54310000D02*
X142340000Y-54310000D01*
X155360000Y-54010000D02*
X155360000Y-49990000D01*
%TO.C,TempProbe2*%
X167190000Y-109590000D02*
X167190000Y-112090000D01*
X169800000Y-109890000D02*
X169800000Y-110390000D01*
X169800000Y-110390000D02*
X171010000Y-110390000D01*
X168990000Y-110890000D02*
X167490000Y-110890000D01*
X169690000Y-109590000D02*
X167190000Y-109590000D01*
X171010000Y-110390000D02*
X171010000Y-119610000D01*
X167490000Y-109890000D02*
X167490000Y-120110000D01*
X168990000Y-119110000D02*
X167490000Y-119110000D01*
X168990000Y-120110000D02*
X168990000Y-119110000D01*
X169800000Y-119610000D02*
X169800000Y-120110000D01*
X171010000Y-119610000D02*
X169800000Y-119610000D01*
X167490000Y-120110000D02*
X171510000Y-120110000D01*
X168990000Y-109890000D02*
X168990000Y-110890000D01*
X171510000Y-120110000D02*
X171510000Y-109890000D01*
X171510000Y-109890000D02*
X167490000Y-109890000D01*
%TD*%
M02*
