%TF.GenerationSoftware,KiCad,Pcbnew,(6.0.4)*%
%TF.CreationDate,2022-04-08T13:10:10+02:00*%
%TF.ProjectId,TeaSpike v1,54656153-7069-46b6-9520-76312e6b6963,rev?*%
%TF.SameCoordinates,Original*%
%TF.FileFunction,Profile,NP*%
%FSLAX46Y46*%
G04 Gerber Fmt 4.6, Leading zero omitted, Abs format (unit mm)*
G04 Created by KiCad (PCBNEW (6.0.4)) date 2022-04-08 13:10:10*
%MOMM*%
%LPD*%
G01*
G04 APERTURE LIST*
%TA.AperFunction,Profile*%
%ADD10C,1.600000*%
%TD*%
%TA.AperFunction,Profile*%
%ADD11C,0.200000*%
%TD*%
%TA.AperFunction,Profile*%
%ADD12C,7.600000*%
%TD*%
%TA.AperFunction,Profile*%
%ADD13C,1.060000*%
%TD*%
%TA.AperFunction,Profile*%
%ADD14C,0.120000*%
%TD*%
G04 APERTURE END LIST*
D10*
X188800000Y-49500000D02*
G75*
G03*
X188800000Y-49500000I-800000J0D01*
G01*
X188800000Y-129500000D02*
G75*
G03*
X188800000Y-129500000I-800000J0D01*
G01*
X103800000Y-49500000D02*
G75*
G03*
X103800000Y-49500000I-800000J0D01*
G01*
D11*
X100500000Y-47080000D02*
X190500000Y-47080000D01*
X190500000Y-47080000D02*
X190500000Y-132080000D01*
X190500000Y-132080000D02*
X100500000Y-132080000D01*
X100500000Y-132080000D02*
X100500000Y-47080000D01*
D12*
X124800000Y-123000000D02*
G75*
G03*
X124800000Y-123000000I-3800000J0D01*
G01*
D10*
X103800000Y-129500000D02*
G75*
G03*
X103800000Y-129500000I-800000J0D01*
G01*
%TO.C,U_RTC1*%
D13*
X164030000Y-57500000D02*
G75*
G03*
X164030000Y-57500000I-530000J0D01*
G01*
X164030000Y-80500000D02*
G75*
G03*
X164030000Y-80500000I-530000J0D01*
G01*
X184030000Y-57500000D02*
G75*
G03*
X184030000Y-57500000I-530000J0D01*
G01*
D14*
%TO.C,U2*%
X113700000Y-57750000D02*
G75*
G03*
X113700000Y-57750000I-1500000J0D01*
G01*
X117700000Y-81600000D02*
G75*
G03*
X117700000Y-81600000I-1500000J0D01*
G01*
X131499600Y-57750000D02*
G75*
G03*
X131499600Y-57750000I-1500000J0D01*
G01*
X127550000Y-81600000D02*
G75*
G03*
X127550000Y-81600000I-1500000J0D01*
G01*
%TO.C,U_SD1*%
X164905000Y-90155000D02*
G75*
G03*
X164905000Y-90155000I-1000000J0D01*
G01*
X183905000Y-128655000D02*
G75*
G03*
X183905000Y-128655000I-1000000J0D01*
G01*
X183905000Y-90155000D02*
G75*
G03*
X183905000Y-90155000I-1000000J0D01*
G01*
X164905000Y-128655000D02*
G75*
G03*
X164905000Y-128655000I-1000000J0D01*
G01*
%TD*%
M02*
